<?xml version="1.0" encoding="UTF-8" standalone="no"?>
<svg
   xmlns:dc="http://purl.org/dc/elements/1.1/"
   xmlns:cc="http://creativecommons.org/ns#"
   xmlns:rdf="http://www.w3.org/1999/02/22-rdf-syntax-ns#"
   xmlns:svg="http://www.w3.org/2000/svg"
   xmlns="http://www.w3.org/2000/svg"
   xmlns:sodipodi="http://sodipodi.sourceforge.net/DTD/sodipodi-0.dtd"
   xmlns:inkscape="http://www.inkscape.org/namespaces/inkscape"
   inkscape:version="1.0beta1 (32d4812, 2019-09-19)"
   sodipodi:docname="doxology.svg"
   viewBox="0 0 149.33333 149.33333"
   height="149.33333"
   width="149.33333"
   xml:space="preserve"
   id="svg10"
   version="1.1">
  <metadata
     id="metadata16">
    <rdf:RDF>
      <cc:Work
         rdf:about="">
        <dc:format>image/svg+xml</dc:format>
        <dc:type
           rdf:resource="http://purl.org/dc/dcmitype/StillImage" />
        <dc:title></dc:title>
      </cc:Work>
    </rdf:RDF>
  </metadata>
  <defs
     id="defs14" />
  <sodipodi:namedview
     inkscape:current-layer="svg10"
     inkscape:window-maximized="0"
     inkscape:window-y="25"
     inkscape:window-x="0"
     inkscape:cy="560"
     inkscape:cx="400"
     inkscape:zoom="0.35"
     showgrid="false"
     id="namedview12"
     inkscape:window-height="787"
     inkscape:window-width="1440"
     inkscape:pageshadow="2"
     inkscape:pageopacity="0"
     guidetolerance="10"
     gridtolerance="10"
     objecttolerance="10"
     borderopacity="1"
     inkscape:document-rotation="0"
     bordercolor="#666666"
     pagecolor="#ffffff" />
  <g
     transform="matrix(1.3333333,0,0,-1.3333333,0,149.33333)"
     inkscape:label="doxology"
     inkscape:groupmode="layer"
     id="g18">
    <g
       id="g20">
      <g
         transform="matrix(1,0,0,-0.813652,0,112)"
         id="g22">
        <path
           inkscape:connector-curvature="0"
           id="path24"
           style="fill:none;stroke:#ff0000;stroke-width:7.09514;stroke-linecap:butt;stroke-linejoin:miter;stroke-miterlimit:2;stroke-dasharray:none;stroke-opacity:1"
           d="M 27.793,69.594 C 15.812,56.444 17.047,36.323 30.551,24.653 44.059,12.986 64.723,14.187 76.707,27.336 c 4.363,4.792 7.145,10.749 7.977,17.101" />
      </g>
      <g
         transform="matrix(1,0,0,-0.804692,0,112)"
         id="g26">
        <path
           inkscape:connector-curvature="0"
           id="path28"
           style="fill:none;stroke:#ff0000;stroke-width:7.13453;stroke-linecap:butt;stroke-linejoin:miter;stroke-miterlimit:2;stroke-dasharray:none;stroke-opacity:1"
           d="M 84.527,92.97 C 82.844,110.402 66.965,123.203 49.062,121.562 31.16,119.922 18.012,104.461 19.699,87.029 20.379,79.966 23.48,73.325 28.496,68.174" />
      </g>
      <g
         transform="matrix(0.667368,0,0,-1,0,112)"
         id="g30">
        <path
           inkscape:connector-curvature="0"
           id="path32"
           style="fill:none;stroke:#ff0000;stroke-width:7.83425;stroke-linecap:butt;stroke-linejoin:miter;stroke-miterlimit:2;stroke-dasharray:none;stroke-opacity:1"
           d="m 125.206,33.949 c 2.663,-6.531 7.375,-12.078 13.474,-15.836" />
      </g>
      <g
         transform="matrix(0.686601,0,0,-1,0,112)"
         id="g34">
        <path
           inkscape:connector-curvature="0"
           id="path36"
           style="fill:none;stroke:#ff0000;stroke-width:7.72374;stroke-linecap:butt;stroke-linejoin:miter;stroke-miterlimit:2;stroke-dasharray:none;stroke-opacity:1"
           d="m 133.68,93.207 c -5.313,-4.293 -9.114,-10.094 -10.883,-16.59" />
      </g>
      <g
         transform="matrix(0.747294,0,0,-1,0,112)"
         id="g38">
        <path
           inkscape:connector-curvature="0"
           id="path40"
           style="fill:#ff0000;fill-opacity:1;fill-rule:nonzero;stroke:#ff0000;stroke-width:2.10942;stroke-linecap:butt;stroke-linejoin:miter;stroke-miterlimit:2;stroke-dasharray:none;stroke-opacity:1"
           d="m 72.344,49.312 c -5.483,2.391 -12.325,0.727 -15.274,-3.718 -2.953,-4.446 -0.893,-9.985 4.59,-12.371 5.489,-2.391 12.326,-0.727 15.279,3.718 2.922,4.403 0.936,9.891 -4.464,12.317" />
      </g>
      <g
         transform="matrix(0.812146,0,0,-1,0,112)"
         id="g42">
        <path
           inkscape:connector-curvature="0"
           id="path44"
           style="fill:#ff0000;fill-opacity:1;fill-rule:nonzero;stroke:#ff0000;stroke-width:2.084;stroke-linecap:butt;stroke-linejoin:miter;stroke-miterlimit:2;stroke-dasharray:none;stroke-opacity:1"
           d="m 66.457,78.609 c -5.421,2.36 -12.179,0.715 -15.093,-3.675 -2.915,-4.391 -0.885,-9.864 4.535,-12.223 5.421,-2.363 12.179,-0.715 15.093,3.672 2.891,4.351 0.924,9.773 -4.405,12.168" />
      </g>
      <g
         transform="matrix(0.758225,0,0,-1,0,112)"
         id="g46">
        <path
           inkscape:connector-curvature="0"
           id="path48"
           style="fill:#ff0000;fill-opacity:1;fill-rule:nonzero;stroke:#ff0000;stroke-width:2.15311;stroke-linecap:butt;stroke-linejoin:miter;stroke-miterlimit:2;stroke-dasharray:none;stroke-opacity:1"
           d="m 103.985,63.422 c -5.6,2.441 -12.586,0.742 -15.595,-3.793 -3.014,-4.539 -0.912,-10.191 4.688,-12.633 5.6,-2.437 12.581,-0.738 15.595,3.797 2.983,4.496 0.953,10.098 -4.554,12.57" />
      </g>
    </g>
  </g>
</svg>
