<?xml version="1.0" encoding="UTF-8" standalone="no"?>
<svg
   xmlns:dc="http://purl.org/dc/elements/1.1/"
   xmlns:cc="http://creativecommons.org/ns#"
   xmlns:rdf="http://www.w3.org/1999/02/22-rdf-syntax-ns#"
   xmlns:svg="http://www.w3.org/2000/svg"
   xmlns="http://www.w3.org/2000/svg"
   xmlns:sodipodi="http://sodipodi.sourceforge.net/DTD/sodipodi-0.dtd"
   xmlns:inkscape="http://www.inkscape.org/namespaces/inkscape"
   inkscape:version="1.0beta1 (32d4812, 2019-09-19)"
   sodipodi:docname="food-without-oil.svg"
   viewBox="0 0 85.333336 85.333336"
   height="85.333336"
   width="85.333336"
   xml:space="preserve"
   id="svg10"
   version="1.1">
  <metadata
     id="metadata16">
    <rdf:RDF>
      <cc:Work
         rdf:about="">
        <dc:format>image/svg+xml</dc:format>
        <dc:type
           rdf:resource="http://purl.org/dc/dcmitype/StillImage" />
        <dc:title></dc:title>
      </cc:Work>
    </rdf:RDF>
  </metadata>
  <defs
     id="defs14" />
  <sodipodi:namedview
     inkscape:current-layer="svg10"
     inkscape:window-maximized="0"
     inkscape:window-y="25"
     inkscape:window-x="0"
     inkscape:cy="560"
     inkscape:cx="400"
     inkscape:zoom="0.35"
     showgrid="false"
     id="namedview12"
     inkscape:window-height="787"
     inkscape:window-width="1440"
     inkscape:pageshadow="2"
     inkscape:pageopacity="0"
     guidetolerance="10"
     gridtolerance="10"
     objecttolerance="10"
     borderopacity="1"
     inkscape:document-rotation="0"
     bordercolor="#666666"
     pagecolor="#ffffff" />
  <g
     transform="matrix(1.3333333,0,0,-1.3333333,0,85.333333)"
     inkscape:label="food-without-oil"
     inkscape:groupmode="layer"
     id="g18">
    <g
       id="g20">
      <path
         inkscape:connector-curvature="0"
         id="path22"
         style="fill:#f9d54b;fill-opacity:1;fill-rule:nonzero;stroke:none"
         d="M 64,32 C 64,14.328 49.672,0 32,0 14.328,0 0,14.328 0,32 0,49.672 14.328,64 32,64 49.672,64 64,49.672 64,32 Z" />
      <path
         inkscape:connector-curvature="0"
         id="path24"
         style="fill:#dbb446;fill-opacity:1;fill-rule:nonzero;stroke:none"
         d="M 35.047,0.148 C 49.359,1.5 60.918,12.277 63.469,26.207 L 54.301,35.375 53.41,35.371 46.262,42.52 42.551,38.809 46.027,35.332 38.059,35.293 25.301,27.129 13.078,39.281 8.336,36.781 20.844,24.273 14.797,20.402 Z" />
      <path
         inkscape:connector-curvature="0"
         id="path26"
         style="fill:#c95b50;fill-opacity:1;fill-rule:nonzero;stroke:none"
         d="M 10.98,39.703 C 9.758,39.008 7.32,37.797 8.605,36.457 9.898,35.117 13.711,32.59 13.711,32.59 l -0.41,3.453 c 0,0 -2.891,0.93 -2.371,1.496 0.511,0.566 1.8,0.621 1.8,0.621 0,0 2.219,0.461 2.012,1.133 -0.207,0.672 -3.043,0.824 -3.762,0.41 z" />
      <path
         inkscape:connector-curvature="0"
         id="path28"
         style="fill:#c95b50;fill-opacity:1;fill-rule:nonzero;stroke:none"
         d="m 47.965,36.527 c 0.844,-0.035 3.156,-0.019 3.945,-0.086 0.625,-0.054 0.387,-2.406 -0.215,-2.578 -0.601,-0.172 -3.437,-0.121 -3.937,-0.105 -0.496,0.019 0.207,2.769 0.207,2.769 z" />
      <path
         inkscape:connector-curvature="0"
         id="path30"
         style="fill:#dd6858;fill-opacity:1;fill-rule:nonzero;stroke:none"
         d="M 12.629,39.395 14.484,21.66 c 0,-3.191 7.387,-5.777 16.5,-5.777 9.114,0 16.332,2.59 16.5,5.777 0.102,1.957 0.723,17.735 0.723,17.735 z" />
      <path
         inkscape:connector-curvature="0"
         id="path32"
         style="fill:#f26051;fill-opacity:1;fill-rule:nonzero;stroke:none"
         d="m 45.164,29.395 c 1.133,0.308 5.516,1.39 6.805,2.32 1.289,0.926 3.508,2.781 2.422,3.762 -1.082,0.98 -2.731,0.98 -2.731,0.98 0,0 0.824,-1.031 -0.465,-1.855 -1.289,-0.829 -2.886,-1.575 -4.074,-1.782 -1.183,-0.203 -1.855,-0.488 -2.062,-1.57 -0.204,-1.082 0.105,-1.855 0.105,-1.855 z" />
      <path
         inkscape:connector-curvature="0"
         id="path34"
         style="fill:#ad5853;fill-opacity:1;fill-rule:nonzero;stroke:none"
         d="m 48.207,39.395 c 0,-3.188 -7.965,-5.774 -17.789,-5.774 -9.824,0 -17.789,2.586 -17.789,5.774 0,3.191 7.965,5.777 17.789,5.777 9.824,0 17.789,-2.586 17.789,-5.777 z" />
      <path
         inkscape:connector-curvature="0"
         id="path36"
         style="fill:#894645;fill-opacity:1;fill-rule:nonzero;stroke:none"
         d="m 48.207,39.922 c 0,-3.024 -7.965,-5.477 -17.789,-5.477 -9.824,0 -17.789,2.453 -17.789,5.477 0,3.023 8.152,5.797 17.976,5.797 9.825,0 17.602,-2.774 17.602,-5.797 z" />
      <path
         inkscape:connector-curvature="0"
         id="path38"
         style="fill:#c95b50;fill-opacity:1;fill-rule:nonzero;stroke:none"
         d="m 34.852,42.891 c 0,-0.5 -1.114,-0.528 -1.411,-0.504 -1.011,0.078 -0.988,1.957 -3.375,2.011 -2.277,0.051 -2.332,-1.839 -3.004,-1.898 -0.195,-0.016 -1.734,-0.047 -1.722,0.281 0.051,1.778 1.75,3.422 4.711,3.446 3.125,0.027 4.801,-1.555 4.801,-3.336 z" />
    </g>
  </g>
</svg>
