<?xml version="1.0" encoding="UTF-8" standalone="no"?>
<svg
   xmlns:dc="http://purl.org/dc/elements/1.1/"
   xmlns:cc="http://creativecommons.org/ns#"
   xmlns:rdf="http://www.w3.org/1999/02/22-rdf-syntax-ns#"
   xmlns:svg="http://www.w3.org/2000/svg"
   xmlns="http://www.w3.org/2000/svg"
   xmlns:sodipodi="http://sodipodi.sourceforge.net/DTD/sodipodi-0.dtd"
   xmlns:inkscape="http://www.inkscape.org/namespaces/inkscape"
   inkscape:version="1.0beta1 (32d4812, 2019-09-19)"
   sodipodi:docname="food-mexican.svg"
   viewBox="0 0 85.333336 85.333336"
   height="85.333336"
   width="85.333336"
   xml:space="preserve"
   id="svg10"
   version="1.1">
  <metadata
     id="metadata16">
    <rdf:RDF>
      <cc:Work
         rdf:about="">
        <dc:format>image/svg+xml</dc:format>
        <dc:type
           rdf:resource="http://purl.org/dc/dcmitype/StillImage" />
        <dc:title></dc:title>
      </cc:Work>
    </rdf:RDF>
  </metadata>
  <defs
     id="defs14" />
  <sodipodi:namedview
     inkscape:current-layer="svg10"
     inkscape:window-maximized="0"
     inkscape:window-y="25"
     inkscape:window-x="0"
     inkscape:cy="560"
     inkscape:cx="400"
     inkscape:zoom="0.35"
     showgrid="false"
     id="namedview12"
     inkscape:window-height="787"
     inkscape:window-width="1440"
     inkscape:pageshadow="2"
     inkscape:pageopacity="0"
     guidetolerance="10"
     gridtolerance="10"
     objecttolerance="10"
     borderopacity="1"
     inkscape:document-rotation="0"
     bordercolor="#666666"
     pagecolor="#ffffff" />
  <g
     transform="matrix(1.3333333,0,0,-1.3333333,0,85.333333)"
     inkscape:label="food-mexican"
     inkscape:groupmode="layer"
     id="g18">
    <g
       id="g20">
      <path
         inkscape:connector-curvature="0"
         id="path22"
         style="fill:#d4dddd;fill-opacity:1;fill-rule:nonzero;stroke:none"
         d="M 64,32 C 64,14.328 49.672,0 32,0 14.328,0 0,14.328 0,32 0,49.672 14.328,64 32,64 49.672,64 64,49.672 64,32 Z" />
      <path
         inkscape:connector-curvature="0"
         id="path24"
         style="fill:#f0c041;fill-opacity:1;fill-rule:nonzero;stroke:none"
         d="m 6.754,40.062 c 0,-0.3 0,-0.554 0,-0.855 0,-15.723 11.285,-28.523 25.246,-28.523 13.961,0 25.246,12.75 25.246,28.523 0,0.301 0,0.555 0,0.855 z" />
      <path
         inkscape:connector-curvature="0"
         id="path26"
         style="fill:#474f5a;fill-opacity:1;fill-rule:nonzero;stroke:none"
         d="m 7.66,35.527 c 0.152,-0.656 0.352,-1.257 0.555,-1.863 0.504,-1.461 1.008,-2.926 1.512,-4.387 0.101,-0.3 0.199,-0.652 0.351,-0.906 0.152,-0.25 0.305,-0.453 0.453,-0.703 0.504,-0.707 1.008,-1.465 1.41,-2.219 0.457,-0.855 0.911,-1.816 0.606,-2.722 -0.149,-0.403 -0.402,-0.805 -0.199,-1.157 0.097,-0.152 0.25,-0.254 0.453,-0.355 1.058,-0.504 2.168,-0.906 3.273,-1.156 0.504,-0.102 1.059,-0.204 1.364,-0.606 0.148,-0.203 0.199,-0.406 0.3,-0.656 0.153,-0.402 0.352,-0.805 0.657,-1.16 0.402,-0.555 1.308,-0.957 1.71,-0.403 0.254,0.352 0.254,1.008 0.707,1.008 0.153,0 0.254,-0.101 0.352,-0.152 0.406,-0.352 0.707,-0.856 0.809,-1.36 0.05,-0.3 0.101,-0.656 0.199,-0.957 0.152,-0.3 0.453,-0.554 0.808,-0.453 0,-0.402 0,-0.808 -0.05,-1.211 0.402,0.051 0.754,0.102 1.16,0.153 -0.254,0.351 0.199,0.804 0.601,0.855 0.407,0.051 0.911,0 1.262,0.254 0.152,0.149 0.301,0.352 0.504,0.402 0.402,0.153 0.805,-0.3 1.059,-0.656 0.25,-0.351 0.804,-0.703 1.109,-0.351 -0.152,-0.555 0.602,-0.856 1.207,-0.907 0.859,-0.05 1.715,-0.152 2.52,0.102 0.808,0.199 1.562,0.805 1.765,1.609 0.25,-0.453 0.504,-0.957 0.754,-1.41 1.262,-0.605 2.57,-1.207 3.883,-1.715 -0.102,0.91 0,2.067 0.855,2.321 -0.453,0.203 -0.957,0.605 -0.754,1.058 0.047,0.153 0.2,0.25 0.352,0.352 0.805,0.554 1.711,1.008 2.57,1.512 0.453,0.253 0.907,0.503 1.411,0.757 0.453,0.25 0.906,0.504 1.41,0.453 0.504,-0.05 0.957,-0.605 0.757,-1.058 0.352,-0.152 0.704,-0.305 1.059,-0.203 0.352,0.101 0.652,0.504 0.453,0.859 -0.152,0.25 -0.504,0.301 -0.656,0.504 -0.402,0.504 0.301,1.105 0.906,1.309 0.606,0.203 1.363,0.757 1.059,1.261 0.906,0.403 1.765,0.805 2.672,1.207 0.25,0.102 0.504,0.305 0.504,0.555 0,0.203 -0.204,0.301 -0.254,0.504 -0.098,0.504 0.656,0.605 1.109,0.453 -0.555,0 -1.059,0.555 -0.957,1.109 0.102,0.555 0.906,0.805 1.262,0.403 0.402,0.453 0.703,0.957 1.008,1.511 0.199,0.356 0.402,0.809 0.3,1.211 -0.101,0.403 -0.605,0.754 -0.957,0.504 -0.101,0.504 0.707,0.657 1.16,0.907 0.555,0.254 0.805,0.906 1.008,1.511 0.602,1.817 0.907,3.68 1.059,5.594 -0.91,-0.351 -1.465,-1.258 -2.219,-1.863 -0.957,-0.809 -2.219,-1.16 -3.426,-1.512 -7.812,-2.016 -15.976,-1.918 -24.039,-1.766 -1.812,0.051 -3.578,0.051 -5.34,0.356 -1.867,0.301 -3.679,0.805 -5.496,1.359 -2.519,0.754 -5.039,1.512 -7.558,2.266" />
      <path
         inkscape:connector-curvature="0"
         id="path28"
         style="fill:#ff876c;fill-opacity:1;fill-rule:nonzero;stroke:none"
         d="m 25.398,17.637 c 0,-0.75 -0.609,-1.36 -1.359,-1.36 -0.754,0 -1.363,0.61 -1.363,1.36 0,0.754 0.609,1.363 1.363,1.363 0.75,0 1.359,-0.609 1.359,-1.363 z" />
      <path
         inkscape:connector-curvature="0"
         id="path30"
         style="fill:#ff876c;fill-opacity:1;fill-rule:nonzero;stroke:none"
         d="m 35.68,16.883 c 0,-0.613 -0.496,-1.11 -1.11,-1.11 -0.613,0 -1.109,0.497 -1.109,1.11 0,0.613 0.496,1.109 1.109,1.109 0.614,0 1.11,-0.496 1.11,-1.109 z" />
      <path
         inkscape:connector-curvature="0"
         id="path32"
         style="fill:#ff876c;fill-opacity:1;fill-rule:nonzero;stroke:none"
         d="m 14.867,25.602 c 0,-0.782 -0.633,-1.414 -1.41,-1.414 -0.781,0 -1.414,0.632 -1.414,1.414 0,0.777 0.633,1.41 1.414,1.41 0.777,0 1.41,-0.633 1.41,-1.41 z" />
      <path
         inkscape:connector-curvature="0"
         id="path34"
         style="fill:#ff876c;fill-opacity:1;fill-rule:nonzero;stroke:none"
         d="m 11.742,30.691 c 0,-0.753 -0.609,-1.363 -1.359,-1.363 -0.754,0 -1.363,0.61 -1.363,1.363 0,0.75 0.609,1.36 1.363,1.36 0.75,0 1.359,-0.61 1.359,-1.36 z" />
      <path
         inkscape:connector-curvature="0"
         id="path36"
         style="fill:#ff876c;fill-opacity:1;fill-rule:nonzero;stroke:none"
         d="m 55.586,32.152 c 0,-0.64 -0.52,-1.16 -1.16,-1.16 -0.641,0 -1.16,0.52 -1.16,1.16 0,0.641 0.519,1.157 1.16,1.157 0.64,0 1.16,-0.516 1.16,-1.157 z" />
      <path
         inkscape:connector-curvature="0"
         id="path38"
         style="fill:#ff876c;fill-opacity:1;fill-rule:nonzero;stroke:none"
         d="m 50.746,23.887 c 0,-0.641 -0.519,-1.16 -1.16,-1.16 -0.637,0 -1.156,0.519 -1.156,1.16 0,0.64 0.519,1.16 1.156,1.16 0.641,0 1.16,-0.52 1.16,-1.16 z" />
      <path
         inkscape:connector-curvature="0"
         id="path40"
         style="fill:#ff876c;fill-opacity:1;fill-rule:nonzero;stroke:none"
         d="m 43.992,19.555 c 0,-0.668 -0.539,-1.211 -1.207,-1.211 -0.668,0 -1.211,0.543 -1.211,1.211 0,0.668 0.543,1.207 1.211,1.207 0.668,0 1.207,-0.539 1.207,-1.207 z" />
      <path
         inkscape:connector-curvature="0"
         id="path42"
         style="fill:#01b0c1;fill-opacity:1;fill-rule:nonzero;stroke:none"
         d="m 15.422,22.273 c 0,-0.351 0.25,-0.703 0.601,-0.855 0.254,-0.051 0.555,-0.102 0.606,-0.352 0,-0.101 0,-0.203 0,-0.304 0.051,-0.25 0.355,-0.301 0.555,-0.453 0.254,-0.204 0.254,-0.555 0.203,-0.856 -0.051,-0.305 -0.153,-0.656 0,-0.91 0.453,-0.047 0.754,-0.402 1.109,-0.652 0.352,-0.254 0.805,-0.504 1.207,-0.356 0.152,0.406 -0.25,0.86 -0.101,1.262 0.05,0.152 0.152,0.25 0.203,0.402 0.05,0.254 -0.203,0.403 -0.352,0.555 -0.758,0.504 -1.562,1.109 -1.715,2.016 -0.05,0.203 -0.05,0.402 -0.203,0.503 -0.047,0.051 -0.148,0.051 -0.25,0.051 -0.555,0.051 -1.058,0.102 -1.613,0.203" />
      <path
         inkscape:connector-curvature="0"
         id="path44"
         style="fill:#01b0c1;fill-opacity:1;fill-rule:nonzero;stroke:none"
         d="m 26.203,14.059 c -0.047,0.203 0.102,0.453 0.305,0.503 0.199,0.102 0.402,0.051 0.656,0.051 0.301,-0.051 0.602,-0.051 0.906,-0.101 0.102,0 0.2,0 0.301,0 0.305,0.101 0.402,0.504 0.606,0.758 0.3,0.3 0.753,0.25 1.16,0.203 0.703,-0.051 1.41,-0.051 2.117,0 0.047,0 0.148,0 0.199,0 0.152,-0.051 0.203,-0.153 0.305,-0.254 0.301,-0.453 0.551,-1.008 0.25,-1.41 -0.25,-0.352 -0.805,-0.352 -1.309,-0.352 -1.008,0 -1.969,-0.457 -2.976,-0.355 -0.301,0.05 -0.551,0.101 -0.856,0.152 -0.605,0.152 -1.258,0.351 -1.863,0.605" />
      <path
         inkscape:connector-curvature="0"
         id="path46"
         style="fill:#01b0c1;fill-opacity:1;fill-rule:nonzero;stroke:none"
         d="m 37.996,15.773 c -0.351,0.051 -0.605,0.403 -0.605,0.707 0,0.352 0.254,0.653 0.605,0.754 0.102,0 0.152,0.051 0.203,0.102 0.149,0.152 -0.101,0.352 -0.254,0.504 -0.148,0.199 0,0.504 0.102,0.754 0.254,0.406 0.453,0.859 0.707,1.261 0.25,0.454 0.605,0.957 1.156,0.907 0.051,0 0.152,-0.051 0.152,-0.102 0.051,-0.051 0.051,-0.098 0.051,-0.199 0.051,-0.606 0.856,-0.957 0.907,-1.563 0,-0.304 -0.2,-0.605 -0.403,-0.808 -0.25,-0.199 -0.504,-0.402 -0.707,-0.602 -0.199,-0.304 -0.351,-0.656 -0.453,-1.008 -0.098,-0.355 -0.199,-0.707 -0.301,-1.058 -0.101,-0.356 -0.203,-0.707 -0.504,-0.957 -0.152,-0.102 -0.351,-0.153 -0.504,-0.102 -0.351,0.25 0,0.957 -0.351,1.11" />
      <path
         inkscape:connector-curvature="0"
         id="path48"
         style="fill:#01b0c1;fill-opacity:1;fill-rule:nonzero;stroke:none"
         d="m 45,18.09 c -0.098,0.203 -0.199,0.453 -0.25,0.707 0,0.25 0.102,0.504 0.301,0.656 0.051,0.051 0.152,0.051 0.203,0.102 0.152,0.097 0.152,0.351 0.101,0.55 -0.101,0.102 -0.253,0.305 -0.253,0.457 -0.051,0.301 0.152,0.602 0.355,0.856 0.199,0.25 0.504,0.402 0.652,0.703 0.203,0.305 0.254,0.656 0.403,0.961 0.152,0.301 0.406,0.652 0.707,0.652 0.152,0 0.301,0 0.453,0 0.254,0.051 0.555,0.254 0.707,0.051 0.051,-0.101 0.051,-0.199 0,-0.351 -0.152,-0.657 -0.305,-1.313 -0.656,-1.864 -0.102,-0.203 -0.25,-0.406 -0.301,-0.656 0,-0.102 0,-0.254 0,-0.352 C 47.371,20.059 46.867,19.703 46.613,19.301 46.414,19 46.363,18.645 46.16,18.344 45.961,18.039 45.555,17.84 45.254,17.992" />
      <path
         inkscape:connector-curvature="0"
         id="path50"
         style="fill:#01b0c1;fill-opacity:1;fill-rule:nonzero;stroke:none"
         d="m 49.688,25.348 c 0.503,-0.102 1.007,0 1.46,0.254 0.153,0.097 0.254,0.199 0.454,0.199 0.101,0 0.203,0 0.304,0 0.606,0.101 0.703,0.906 1.16,1.261 0.25,0.2 0.602,0.25 0.754,0.555 0.051,0.098 0.102,0.25 0.203,0.352 0.051,0.051 0.149,0.101 0.2,0.101 0.304,0.149 0.453,0.453 0.605,0.703 0.102,0.254 0.254,0.504 0.102,0.758 -0.051,0.051 -0.102,0.102 -0.153,0.153 -0.25,0.199 -0.554,0.351 -0.855,0.25 -0.352,-0.102 -0.555,-0.403 -0.656,-0.707 -0.153,-0.301 -0.2,-0.653 -0.454,-0.907 -0.3,-0.351 -0.855,-0.453 -1.308,-0.652 -0.555,-0.254 -0.961,-0.707 -1.363,-1.109 -0.301,-0.305 -0.606,-0.657 -0.504,-1.11" />
      <path
         inkscape:connector-curvature="0"
         id="path52"
         style="fill:#ff876c;fill-opacity:1;fill-rule:nonzero;stroke:none"
         d="m 53.52,44.547 c -7.157,-1.813 -14.567,-2.82 -21.973,-2.922 -0.254,0 -0.504,0 -0.758,0.102 -0.25,0.152 -0.453,0.402 -0.555,0.703 -0.402,1.058 -0.148,2.269 0.102,3.379 0.555,2.168 1.461,4.433 3.328,5.695 1.258,0.855 2.82,1.156 4.281,1.359 3.328,0.504 6.805,0.707 9.93,-0.554 3.125,-1.262 5.996,-4.383 5.645,-7.762" />
      <path
         inkscape:connector-curvature="0"
         id="path54"
         style="fill:#e77961;fill-opacity:1;fill-rule:nonzero;stroke:none"
         d="M 49.941,45.457 C 49.234,45.305 48.48,45.152 47.773,45 47.52,44.953 47.27,44.902 47.066,45 c -0.199,0.102 -0.3,0.254 -0.402,0.406 -0.199,0.301 -0.402,0.653 -0.656,0.957 -0.25,0.352 -0.551,0.754 -1.008,0.754 -0.25,0 -0.453,-0.148 -0.652,-0.101 -0.305,0.05 -0.453,0.355 -0.657,0.504 -0.3,0.203 -0.656,0.203 -1.007,0.203 -1.262,-0.051 -2.52,-0.051 -3.731,-0.25 -1.258,-0.203 -2.668,-0.707 -3.223,-1.868 -0.253,-0.554 -0.304,-1.16 -0.453,-1.71 -0.203,-0.555 -0.605,-1.11 -1.211,-1.161 -0.656,-0.05 -1.16,0.606 -1.41,1.207 -0.808,2.067 0.25,4.688 2.266,5.645 0.605,0.254 1.211,0.406 1.867,0.555 2.016,0.453 4.082,0.757 6.145,1.007 0.406,0.051 0.757,0.102 1.16,0 0.402,-0.05 0.808,-0.25 1.211,-0.453 0.957,-0.504 1.914,-1.007 2.871,-1.511 0.758,-0.403 1.512,-0.805 2.015,-1.512 0.504,-0.703 0.606,-1.762 0,-2.317" />
      <path
         inkscape:connector-curvature="0"
         id="path56"
         style="fill:#f0c041;fill-opacity:1;fill-rule:nonzero;stroke:none"
         d="m 47.32,48.176 c 0,-0.5 -0.406,-0.906 -0.906,-0.906 -0.504,0 -0.91,0.406 -0.91,0.906 0,0.5 0.406,0.906 0.91,0.906 0.5,0 0.906,-0.406 0.906,-0.906 z" />
      <path
         inkscape:connector-curvature="0"
         id="path58"
         style="fill:#f0c041;fill-opacity:1;fill-rule:nonzero;stroke:none"
         d="m 43.641,49.285 c 0,-0.5 -0.407,-0.906 -0.907,-0.906 -0.5,0 -0.906,0.406 -0.906,0.906 0,0.5 0.406,0.906 0.906,0.906 0.5,0 0.907,-0.406 0.907,-0.906 z" />
      <path
         inkscape:connector-curvature="0"
         id="path60"
         style="fill:#f0c041;fill-opacity:1;fill-rule:nonzero;stroke:none"
         d="m 39.457,48.883 c 0,-0.5 -0.406,-0.906 -0.906,-0.906 -0.5,0 -0.906,0.406 -0.906,0.906 0,0.5 0.406,0.906 0.906,0.906 0.5,0 0.906,-0.406 0.906,-0.906 z" />
      <path
         inkscape:connector-curvature="0"
         id="path62"
         style="fill:#f0c041;fill-opacity:1;fill-rule:nonzero;stroke:none"
         d="m 35.477,46.715 c 0,-0.5 -0.407,-0.906 -0.907,-0.906 -0.5,0 -0.906,0.406 -0.906,0.906 0,0.5 0.406,0.906 0.906,0.906 0.5,0 0.907,-0.406 0.907,-0.906 z" />
      <path
         inkscape:connector-curvature="0"
         id="path64"
         style="fill:#ffad7b;fill-opacity:1;fill-rule:nonzero;stroke:none"
         d="m 49.688,44.195 c -5.29,-0.855 -10.633,-1.664 -15.973,-2.218 -1.059,-0.098 -2.168,-0.2 -3.125,0.253 1.008,0.2 2.015,0.051 3.023,0.102 1.008,0.051 2.117,0.301 2.719,1.106 0.254,0.355 0.406,0.757 0.707,1.058 0.504,0.457 1.359,0.504 1.863,0.051 0,0.305 0,0.656 0.102,0.957 0.152,0.305 0.453,0.555 0.758,0.457 0.05,-0.305 0.05,-0.656 0.101,-0.961 0.199,0.254 0.403,0.555 0.602,0.809 0,-0.305 0.152,-0.606 0.406,-0.758 0.199,0.656 0.703,1.16 1.359,1.414 0.102,-0.457 0.153,-0.91 0.25,-1.363 0.504,0.503 1.161,0.859 1.868,1.058 0.05,-0.351 0.504,-0.555 0.804,-0.301 0,-0.554 0.453,-1.007 1.008,-1.211 0.504,-0.203 1.11,-0.152 1.664,-0.152 1.207,0.051 2.469,0.152 3.68,0.203 0.25,0 0.504,0.051 0.703,0.153 0.707,0.351 0.656,1.308 0.504,2.066 0.203,-0.707 0.402,-1.461 0.555,-2.168 C 52.156,44.297 51,44.043 49.789,44.043" />
      <path
         inkscape:connector-curvature="0"
         id="path66"
         style="fill:#ff876c;fill-opacity:1;fill-rule:nonzero;stroke:none"
         d="M 31.496,50.344 C 27.465,44.145 22.676,38.398 17.285,33.309 17.082,33.16 16.934,32.957 16.68,32.906 c -0.301,-0.101 -0.606,0 -0.907,0.153 -1.007,0.503 -1.664,1.562 -2.168,2.57 -1.058,1.965 -1.914,4.234 -1.41,6.398 0.352,1.461 1.262,2.723 2.219,3.934 2.113,2.617 4.535,5.137 7.707,6.297 3.125,1.16 7.41,0.808 9.375,-1.914" />
      <path
         inkscape:connector-curvature="0"
         id="path68"
         style="fill:#e77961;fill-opacity:1;fill-rule:nonzero;stroke:none"
         d="m 28.27,48.578 c -0.454,-0.601 -0.856,-1.207 -1.309,-1.762 -0.152,-0.203 -0.301,-0.402 -0.555,-0.453 -0.203,-0.051 -0.402,0 -0.605,0.051 -0.352,0.098 -0.754,0.199 -1.11,0.301 -0.402,0.101 -0.957,0.203 -1.257,-0.102 C 23.281,46.465 23.18,46.211 23.031,46.059 22.777,45.91 22.477,46.008 22.172,45.961 21.82,45.91 21.57,45.656 21.316,45.406 c -0.906,-0.859 -1.812,-1.765 -2.57,-2.722 -0.805,-1.008 -1.461,-2.317 -1.109,-3.528 0.203,-0.554 0.554,-1.008 0.808,-1.562 0.25,-0.555 0.301,-1.211 -0.101,-1.664 -0.453,-0.504 -1.262,-0.352 -1.864,-0.051 -2.015,0.957 -3.023,3.629 -2.168,5.695 0.25,0.606 0.606,1.11 1.008,1.664 1.207,1.715 2.469,3.324 3.828,4.938 0.254,0.304 0.504,0.605 0.86,0.808 0.351,0.25 0.804,0.352 1.207,0.454 1.058,0.3 2.066,0.554 3.125,0.855 0.805,0.203 1.664,0.453 2.519,0.25 0.809,-0.148 1.614,-0.855 1.563,-1.711" />
      <path
         inkscape:connector-curvature="0"
         id="path70"
         style="fill:#f0c041;fill-opacity:1;fill-rule:nonzero;stroke:none"
         d="m 24.742,48.176 c 0,-0.5 -0.406,-0.906 -0.906,-0.906 -0.5,0 -0.906,0.406 -0.906,0.906 0,0.5 0.406,0.906 0.906,0.906 0.5,0 0.906,-0.406 0.906,-0.906 z" />
      <path
         inkscape:connector-curvature="0"
         id="path72"
         style="fill:#f0c041;fill-opacity:1;fill-rule:nonzero;stroke:none"
         d="m 21.266,46.512 c 0,-0.5 -0.407,-0.907 -0.907,-0.907 -0.5,0 -0.906,0.407 -0.906,0.907 0,0.504 0.406,0.91 0.906,0.91 0.5,0 0.907,-0.406 0.907,-0.91 z" />
      <path
         inkscape:connector-curvature="0"
         id="path74"
         style="fill:#f0c041;fill-opacity:1;fill-rule:nonzero;stroke:none"
         d="m 18.445,43.391 c 0,-0.504 -0.406,-0.911 -0.91,-0.911 -0.5,0 -0.906,0.407 -0.906,0.911 0,0.5 0.406,0.906 0.906,0.906 0.504,0 0.91,-0.406 0.91,-0.906 z" />
      <path
         inkscape:connector-curvature="0"
         id="path76"
         style="fill:#ffce31;fill-opacity:1;fill-rule:nonzero;stroke:none"
         d="m 17.031,39.105 c 0,-0.5 -0.402,-0.906 -0.906,-0.906 -0.5,0 -0.906,0.406 -0.906,0.906 0,0.5 0.406,0.907 0.906,0.907 0.504,0 0.906,-0.407 0.906,-0.907 z" />
      <path
         inkscape:connector-curvature="0"
         id="path78"
         style="fill:#ffad7b;fill-opacity:1;fill-rule:nonzero;stroke:none"
         d="m 28.977,47.473 c -3.325,-4.184 -6.704,-8.418 -10.282,-12.45 -0.703,-0.804 -1.461,-1.613 -2.468,-1.964 0.605,0.804 1.461,1.41 2.168,2.117 0.703,0.703 1.359,1.66 1.257,2.668 -0.05,0.406 -0.199,0.859 -0.199,1.261 0.051,0.707 0.652,1.262 1.359,1.262 -0.203,0.25 -0.453,0.504 -0.554,0.805 -0.102,0.301 0,0.707 0.254,0.855 0.25,-0.199 0.504,-0.402 0.703,-0.652 -0.051,0.352 -0.051,0.703 -0.102,1.008 0.203,-0.203 0.504,-0.356 0.809,-0.305 -0.305,0.606 -0.254,1.36 0.051,1.965 0.351,-0.25 0.754,-0.555 1.109,-0.805 0.047,0.703 0.25,1.41 0.652,2.067 0.254,-0.254 0.758,-0.051 0.809,0.3 0.402,-0.402 1.008,-0.453 1.562,-0.199 0.504,0.199 0.907,0.602 1.309,1.008 0.856,0.906 1.715,1.762 2.621,2.668 0.153,0.152 0.352,0.356 0.403,0.555 0.3,0.707 -0.454,1.41 -1.059,1.867 0.656,-0.406 1.262,-0.809 1.914,-1.211 -0.504,-1.109 -1.207,-2.066 -2.066,-2.871" />
      <path
         inkscape:connector-curvature="0"
         id="path80"
         style="fill:#f4da80;fill-opacity:1;fill-rule:nonzero;stroke:none"
         d="M 6.855,40.062 C 8.062,27.262 18.848,17.234 32,17.234 c 13.152,0 23.938,10.028 25.145,22.828 z" />
      <path
         inkscape:connector-curvature="0"
         id="path82"
         style="fill:#f0c041;fill-opacity:1;fill-rule:nonzero;stroke:none"
         d="m 9.523,38.301 c 0.403,-0.356 0.809,-0.707 0.907,-1.211 0.05,-0.254 0,-0.555 0,-0.805 0,-0.355 0.05,-0.758 0.101,-1.109 0.102,-0.504 0.153,-1.008 0.254,-1.461 0,-0.102 0.051,-0.203 0.102,-0.254 0.148,-0.152 0.402,0.051 0.601,0 0.356,-0.051 0.356,-0.504 0.254,-0.856 -0.203,-0.808 -0.351,-1.664 -0.554,-2.468 0.351,0.097 0.707,0.148 1.007,0.051 0.352,-0.102 0.657,-0.356 0.606,-0.708 0.199,-0.101 0.504,-0.05 0.754,0 0.254,0.051 0.504,0.102 0.707,-0.05 0.203,-0.102 0.3,-0.453 0.101,-0.606 0.25,-0.051 0.453,-0.148 0.653,-0.25 0.355,-0.203 0.406,-0.758 0.457,-1.16 0.047,-0.402 0.402,-0.855 0.754,-0.707 0,-0.301 -0.051,-0.602 -0.051,-0.906 0,-0.051 0,-0.149 0.051,-0.199 0.05,-0.102 0.253,-0.051 0.351,-0.102 0.406,-0.152 0,-0.957 0.406,-1.16 0.098,-0.051 0.149,-0.051 0.25,-0.051 0.403,0 0.758,-0.402 0.707,-0.805 0.454,0.051 0.957,0.102 1.36,-0.152 0.152,-0.102 0.254,-0.25 0.402,-0.352 0.453,-0.355 1.059,-0.152 1.613,-0.304 0.707,-0.199 1.262,-1.106 2.016,-1.008 -0.051,-0.402 0.504,-0.754 0.906,-0.856 0.403,-0.152 0.86,-0.05 1.262,0 0.402,0.051 0.855,0.153 1.258,0.051 0.203,-0.051 0.406,-0.152 0.605,-0.203 0.305,-0.051 0.606,-0.051 0.907,-0.051 0.304,-0.047 0.605,-0.148 0.707,-0.453 0.804,-0.301 1.714,-0.652 2.519,-0.504 0.606,0.102 1.109,0.453 1.715,0.606 0.601,0.152 1.309,0.101 1.609,-0.453 0.254,0.254 0.457,0.605 0.504,0.957 0.606,-1.008 2.473,-0.703 2.977,-1.762 -0.102,0.805 0.097,1.609 0.453,2.316 1.058,0.153 2.117,0.504 3.023,1.11 0.403,0.25 0.754,0.554 1.207,0.656 0.657,0.199 1.461,-0.051 1.918,-0.555 -0.05,0.25 -0.101,0.555 -0.152,0.805 0.707,0.656 1.211,1.563 1.359,2.469 0.86,0.758 1.965,1.211 3.125,1.16 -0.351,0.203 -0.656,0.453 -0.906,0.805 0.504,-0.098 0.957,0.254 1.258,0.656 0.305,0.402 0.504,0.855 0.859,1.211 0.301,0.097 0.602,0.148 0.907,0.25 -0.305,0.707 -0.102,1.613 0.453,2.117 0.203,0.203 0.453,0.352 0.656,0.555 0.199,0.25 0.25,0.554 0.351,0.906 0.204,0.855 0.352,1.715 0.454,2.621 0.101,0.957 0.203,2.168 1.109,2.469 -1.359,0 -3.074,0.101 -4.434,0.101 0.098,-0.757 0.25,-1.461 0.352,-2.218 -0.555,0.05 -1.109,0.05 -1.715,0.101 -0.402,-0.25 -0.453,-0.855 -0.148,-1.211 -0.606,-0.148 -1.364,-0.301 -1.817,-0.804 -0.504,-0.504 -0.504,-1.461 0.102,-1.762 -0.656,-0.051 -1.258,-0.153 -1.914,-0.203 -0.453,-0.657 0.152,-1.512 0.453,-2.27 0.555,-1.359 -0.051,-3.121 -1.313,-3.879 -0.503,0.758 -0.703,1.664 -0.503,2.52 -1.008,0.203 -2.063,0.101 -2.973,-0.352 0.254,-0.707 -0.957,-1.109 -1.059,-1.867 -0.047,-0.402 0.254,-0.805 0.305,-1.207 0.051,-0.555 -0.453,-1.059 -1.008,-1.211 -0.555,-0.152 -1.16,0 -1.715,0.102 -0.703,0.152 -1.511,0.3 -2.168,-0.051 -0.652,-0.301 -1.054,-1.258 -0.55,-1.813 -0.606,-0.453 -1.665,-0.152 -1.918,0.555 -0.25,0.703 0.304,1.609 1.109,1.66 -0.703,0.555 -1.512,1.059 -2.316,1.512 -0.305,0.152 -0.657,0.355 -1.008,0.254 -0.758,-0.153 -1.008,-1.262 -1.766,-1.41 0.051,-0.555 0.102,-1.16 0.102,-1.715 -0.102,0.203 -0.203,0.402 -0.301,0.605 -1.918,-0.656 -3.934,1.461 -5.899,0.957 0,0.352 0,0.754 0,1.11 0.352,-0.305 0.957,-0.356 1.36,-0.051 0.406,0.301 0.555,0.906 0.305,1.308 -0.305,0.657 -1.211,0.86 -1.915,0.758 -0.707,-0.05 -1.461,-0.304 -2.168,-0.101 -0.05,0.957 -0.855,1.863 -1.816,2.066 -0.504,0.856 -1.559,1.309 -2.519,1.11 0.304,1.511 0.304,3.074 -0.098,4.535 0.805,0.652 2.066,0.554 2.82,-0.153 0.758,-0.707 0.957,-1.914 0.555,-2.871 0.453,-0.152 0.957,0.051 1.16,0.504 0.148,0.453 -0.051,0.957 -0.504,1.156 1.512,0.254 3.074,0.204 4.535,-0.25 -0.402,-1.261 0.051,-2.722 1.11,-3.527 1.812,-1.359 4.683,-0.504 6.449,-1.965 0.301,0.856 0,1.914 -0.707,2.469 1.363,-0.254 2.672,-0.555 4.031,-0.809 -0.051,-0.703 -0.148,-1.41 -0.199,-2.062 0.555,-0.152 1.109,-0.203 1.66,-0.102 0.203,0.805 0,1.711 -0.453,2.418 1.16,-0.758 2.621,-1.109 3.984,-1.008 -0.051,0.504 -0.051,1.059 -0.101,1.563 0.652,0.102 1.359,0.152 2.066,0.102 0.098,0.855 -0.254,1.761 -0.91,2.316 0.555,0.203 1.211,0.254 1.816,0.203 0.102,0.606 0.153,1.258 0.102,1.863 0,0.254 -0.051,0.555 -0.305,0.657 -0.148,0.101 -0.351,0.101 -0.554,0.05 -2.418,-0.504 -3.122,-4.031 -5.493,-4.738 -0.453,-0.152 -1.007,-0.101 -1.257,0.25 -0.153,0.152 -0.204,0.406 -0.407,0.508 -0.199,0.25 -0.402,0.25 -0.601,0.25 -1.563,0 -3.379,-0.203 -4.082,-1.613 0.453,0.906 -0.305,2.015 -1.262,2.32 -0.957,0.301 -2.016,-0.051 -2.922,-0.504 -0.254,0.555 -0.203,1.207 0.102,1.711 -1.11,0.605 -2.27,1.16 -3.477,1.613 -0.504,-0.504 -1.363,-0.605 -1.969,-0.203 -0.3,0.203 -0.504,0.555 -0.804,0.809 -0.957,0.804 -2.367,0.504 -3.629,0.199 5.996,0.707 12.094,-1.207 18.043,-0.199 -1.414,-0.153 -2.824,-0.305 -4.184,-0.403 0.153,-0.707 0.352,-1.461 0.856,-2.015 0.504,-0.555 1.461,-0.707 1.964,-0.153 0.153,0.153 0.254,0.403 0.454,0.555 0.355,0.25 0.808,0.102 1.211,0.102 0.402,0 0.855,0.453 0.656,0.754 0.605,-0.301 1.41,-0.153 1.863,0.351 0.453,0.504 0.504,1.313 0.152,1.867 -0.203,-0.152 -0.304,-0.453 -0.203,-0.707 2.774,1.563 6.602,-0.804 9.274,0.907 -5.895,0 -11.793,-0.149 -17.688,-0.504 1.059,-0.301 2.117,-0.403 3.172,-0.352 -1.008,-0.152 -2.062,-0.203 -3.121,-0.051 0,0.254 0,0.555 -0.051,0.809 -0.758,0 -1.562,-0.051 -2.32,-0.051 0.051,0.199 0,0.504 -0.149,0.652 -1.007,-0.05 -2.066,0.102 -3.023,0.504 0.047,-0.601 -0.809,-0.804 -1.465,-0.804 -3.172,0.203 -6.297,0.402 -9.472,0.554 -0.102,-0.757 0.656,-1.511 1.41,-1.359 0.05,-0.555 -0.805,-0.859 -1.309,-0.555 -0.504,0.25 -0.808,0.805 -1.211,1.258 -0.351,0.352 -1.058,0.656 -1.512,0.305" />
      <path
         inkscape:connector-curvature="0"
         id="path84"
         style="fill:#ff876c;fill-opacity:1;fill-rule:nonzero;stroke:none"
         d="m 24.492,32.051 c 0,-0.75 -0.609,-1.36 -1.363,-1.36 -0.75,0 -1.359,0.61 -1.359,1.36 0,0.75 0.609,1.359 1.359,1.359 0.754,0 1.363,-0.609 1.363,-1.359 z" />
      <path
         inkscape:connector-curvature="0"
         id="path86"
         style="fill:#ff876c;fill-opacity:1;fill-rule:nonzero;stroke:none"
         d="m 34.117,29.633 c 0,-0.586 -0.472,-1.059 -1.058,-1.059 -0.586,0 -1.059,0.473 -1.059,1.059 0,0.582 0.473,1.058 1.059,1.058 0.586,0 1.058,-0.476 1.058,-1.058 z" />
      <path
         inkscape:connector-curvature="0"
         id="path88"
         style="fill:#ff876c;fill-opacity:1;fill-rule:nonzero;stroke:none"
         d="m 45,33.16 c 0,-0.613 -0.496,-1.109 -1.105,-1.109 -0.614,0 -1.11,0.496 -1.11,1.109 0,0.61 0.496,1.11 1.11,1.11 0.609,0 1.105,-0.5 1.105,-1.11 z" />
      <path
         inkscape:connector-curvature="0"
         id="path90"
         style="fill:#ff876c;fill-opacity:1;fill-rule:nonzero;stroke:none"
         d="m 27.113,26.609 c 0,-0.921 -0.746,-1.664 -1.664,-1.664 -0.918,0 -1.664,0.743 -1.664,1.664 0,0.918 0.746,1.661 1.664,1.661 0.918,0 1.664,-0.743 1.664,-1.661 z" />
      <path
         inkscape:connector-curvature="0"
         id="path92"
         style="fill:#ff876c;fill-opacity:1;fill-rule:nonzero;stroke:none"
         d="m 29.582,34.418 c 0,-0.613 -0.496,-1.109 -1.109,-1.109 -0.614,0 -1.11,0.496 -1.11,1.109 0,0.613 0.496,1.109 1.11,1.109 0.613,0 1.109,-0.496 1.109,-1.109 z" />
      <path
         inkscape:connector-curvature="0"
         id="path94"
         style="fill:#ff876c;fill-opacity:1;fill-rule:nonzero;stroke:none"
         d="m 18.039,34.418 c 0,-0.613 -0.496,-1.109 -1.105,-1.109 -0.614,0 -1.11,0.496 -1.11,1.109 0,0.613 0.496,1.109 1.11,1.109 0.609,0 1.105,-0.496 1.105,-1.109 z" />
      <path
         inkscape:connector-curvature="0"
         id="path96"
         style="fill:#ff876c;fill-opacity:1;fill-rule:nonzero;stroke:none"
         d="m 39.91,28.371 c 0,-0.527 -0.426,-0.957 -0.957,-0.957 -0.527,0 -0.957,0.43 -0.957,0.957 0,0.531 0.43,0.957 0.957,0.957 0.531,0 0.957,-0.426 0.957,-0.957 z" />
      <path
         inkscape:connector-curvature="0"
         id="path98"
         style="fill:#ff876c;fill-opacity:1;fill-rule:nonzero;stroke:none"
         d="m 40.113,36.184 c 0,-0.641 -0.519,-1.161 -1.16,-1.161 -0.641,0 -1.156,0.52 -1.156,1.161 0,0.64 0.515,1.156 1.156,1.156 0.641,0 1.16,-0.516 1.16,-1.156 z" />
      <path
         inkscape:connector-curvature="0"
         id="path100"
         style="fill:#ff876c;fill-opacity:1;fill-rule:nonzero;stroke:none"
         d="m 49.586,36.789 c 0,-0.477 -0.383,-0.859 -0.856,-0.859 -0.472,0 -0.855,0.382 -0.855,0.859 0,0.473 0.383,0.856 0.855,0.856 0.473,0 0.856,-0.383 0.856,-0.856 z" />
    </g>
  </g>
</svg>
