<?xml version="1.0" encoding="UTF-8" standalone="no"?>
<svg
   xmlns:dc="http://purl.org/dc/elements/1.1/"
   xmlns:cc="http://creativecommons.org/ns#"
   xmlns:rdf="http://www.w3.org/1999/02/22-rdf-syntax-ns#"
   xmlns:svg="http://www.w3.org/2000/svg"
   xmlns="http://www.w3.org/2000/svg"
   xmlns:sodipodi="http://sodipodi.sourceforge.net/DTD/sodipodi-0.dtd"
   xmlns:inkscape="http://www.inkscape.org/namespaces/inkscape"
   inkscape:version="1.0beta1 (32d4812, 2019-09-19)"
   sodipodi:docname="food-bread.svg"
   viewBox="0 0 85.333336 85.333336"
   height="85.333336"
   width="85.333336"
   xml:space="preserve"
   id="svg10"
   version="1.1">
  <metadata
     id="metadata16">
    <rdf:RDF>
      <cc:Work
         rdf:about="">
        <dc:format>image/svg+xml</dc:format>
        <dc:type
           rdf:resource="http://purl.org/dc/dcmitype/StillImage" />
        <dc:title></dc:title>
      </cc:Work>
    </rdf:RDF>
  </metadata>
  <defs
     id="defs14" />
  <sodipodi:namedview
     inkscape:current-layer="svg10"
     inkscape:window-maximized="0"
     inkscape:window-y="23"
     inkscape:window-x="0"
     inkscape:cy="560"
     inkscape:cx="400"
     inkscape:zoom="0.35"
     showgrid="false"
     id="namedview12"
     inkscape:window-height="799"
     inkscape:window-width="1440"
     inkscape:pageshadow="2"
     inkscape:pageopacity="0"
     guidetolerance="10"
     gridtolerance="10"
     objecttolerance="10"
     borderopacity="1"
     inkscape:document-rotation="0"
     bordercolor="#666666"
     pagecolor="#ffffff" />
  <g
     transform="matrix(1.3333333,0,0,-1.3333333,0,85.333333)"
     inkscape:label="food-bread"
     inkscape:groupmode="layer"
     id="g18">
    <g
       id="g20">
      <path
         inkscape:connector-curvature="0"
         id="path22"
         style="fill:#a1c658;fill-opacity:1;fill-rule:nonzero;stroke:none"
         d="M 62.828,32.109 C 62.828,15.141 49.074,1.387 32.109,1.387 15.141,1.387 1.387,15.141 1.387,32.109 c 0,16.965 13.754,30.719 30.722,30.719 16.965,0 30.719,-13.754 30.719,-30.719 z" />
      <path
         inkscape:connector-curvature="0"
         id="path24"
         style="fill:#8aa54a;fill-opacity:1;fill-rule:nonzero;stroke:none"
         d="M 34.645,1.5 C 48.066,2.602 59.039,12.32 62.02,25.117 L 53.566,33.574 35.125,25.016 9.984,26.164 Z" />
      <path
         inkscape:connector-curvature="0"
         id="path26"
         style="fill:#aa703c;fill-opacity:1;fill-rule:evenodd;stroke:none"
         d="M 9.957,26.379 C 13.805,19.566 53.297,21.723 55.844,25.531 58.395,29.34 54.508,37.555 38.953,39.492 28.758,40.758 21.426,40.336 14.098,36.953 9.09,34.641 9,28.07 9.957,26.379 Z" />
      <path
         inkscape:connector-curvature="0"
         id="path28"
         style="fill:#875e35;fill-opacity:1;fill-rule:evenodd;stroke:none"
         d="m 45.977,37.969 c 0.714,-3.489 -3.915,-9.16 -3.915,-9.16 0,0 8.231,6.125 7.887,7.457 -0.387,1.507 -3.972,1.703 -3.972,1.703 z" />
      <path
         inkscape:connector-curvature="0"
         id="path30"
         style="fill:#875e35;fill-opacity:1;fill-rule:evenodd;stroke:none"
         d="m 33.203,40.012 c 1.246,-3.215 -2.289,-10.285 -2.289,-10.285 0,0 7.086,8.773 6.441,9.89 -0.687,1.188 -4.152,0.395 -4.152,0.395 z" />
      <path
         inkscape:connector-curvature="0"
         id="path32"
         style="fill:#875e35;fill-opacity:1;fill-rule:evenodd;stroke:none"
         d="m 22.703,39.617 c 1.668,-2.863 -1.012,-10.558 -1.012,-10.558 0,0 5.84,9.836 5.141,10.89 -0.793,1.196 -4.129,-0.332 -4.129,-0.332 z" />
    </g>
  </g>
</svg>
