<?xml version="1.0" encoding="UTF-8" standalone="no"?>
<svg
   xmlns:dc="http://purl.org/dc/elements/1.1/"
   xmlns:cc="http://creativecommons.org/ns#"
   xmlns:rdf="http://www.w3.org/1999/02/22-rdf-syntax-ns#"
   xmlns:svg="http://www.w3.org/2000/svg"
   xmlns="http://www.w3.org/2000/svg"
   xmlns:sodipodi="http://sodipodi.sourceforge.net/DTD/sodipodi-0.dtd"
   xmlns:inkscape="http://www.inkscape.org/namespaces/inkscape"
   inkscape:version="1.0beta1 (32d4812, 2019-09-19)"
   sodipodi:docname="food-fruits.svg"
   viewBox="0 0 85.333336 85.333336"
   height="85.333336"
   width="85.333336"
   xml:space="preserve"
   id="svg10"
   version="1.1">
  <metadata
     id="metadata16">
    <rdf:RDF>
      <cc:Work
         rdf:about="">
        <dc:format>image/svg+xml</dc:format>
        <dc:type
           rdf:resource="http://purl.org/dc/dcmitype/StillImage" />
        <dc:title></dc:title>
      </cc:Work>
    </rdf:RDF>
  </metadata>
  <defs
     id="defs14">
    <clipPath
       id="clipPath34"
       clipPathUnits="userSpaceOnUse">
      <path
         inkscape:connector-curvature="0"
         id="path32"
         d="m 19,44 h 10 v 4 H 19 Z" />
    </clipPath>
    <mask
       id="mask36"
       height="1"
       width="1"
       y="0"
       x="0"
       maskUnits="userSpaceOnUse">
      <g
         id="g42">
        <g
           id="g40"
           clip-path="url(#clipPath34)">
          <path
             inkscape:connector-curvature="0"
             id="path38"
             style="fill:#000000;fill-opacity:0.3;fill-rule:nonzero;stroke:none"
             d="m 19,44 h 10 v 4 H 19 Z" />
        </g>
      </g>
    </mask>
    <clipPath
       id="clipPath50"
       clipPathUnits="userSpaceOnUse">
      <path
         inkscape:connector-curvature="0"
         id="path48"
         d="m 19,44 h 10 v 4 H 19 Z" />
    </clipPath>
    <clipPath
       id="clipPath54"
       clipPathUnits="userSpaceOnUse">
      <path
         inkscape:connector-curvature="0"
         id="path52"
         d="m 19,44 h 10 v 4 H 19 Z" />
    </clipPath>
  </defs>
  <sodipodi:namedview
     inkscape:current-layer="svg10"
     inkscape:window-maximized="0"
     inkscape:window-y="25"
     inkscape:window-x="0"
     inkscape:cy="560"
     inkscape:cx="400"
     inkscape:zoom="0.35"
     showgrid="false"
     id="namedview12"
     inkscape:window-height="787"
     inkscape:window-width="1440"
     inkscape:pageshadow="2"
     inkscape:pageopacity="0"
     guidetolerance="10"
     gridtolerance="10"
     objecttolerance="10"
     borderopacity="1"
     inkscape:document-rotation="0"
     bordercolor="#666666"
     pagecolor="#ffffff" />
  <g
     transform="matrix(1.3333333,0,0,-1.3333333,0,85.333333)"
     inkscape:label="food-fruits"
     inkscape:groupmode="layer"
     id="g18">
    <g
       id="g20">
      <path
         inkscape:connector-curvature="0"
         id="path22"
         style="fill:#f5ba3d;fill-opacity:1;fill-rule:nonzero;stroke:none"
         d="M 64,32 C 64,14.328 49.672,0 32,0 14.328,0 0,14.328 0,32 0,49.672 14.328,64 32,64 49.672,64 64,49.672 64,32 Z" />
      <path
         inkscape:connector-curvature="0"
         id="path24"
         style="fill:#ce3045;fill-opacity:1;fill-rule:nonzero;stroke:none"
         d="M 36.453,34.984 C 37.047,27.129 32.73,22.727 26.5,21.066 c -1.328,-0.351 -2.789,0.114 -4.258,0 -1.441,-0.109 -2.789,-0.796 -4.125,-0.664 -3.762,0.368 -7.015,1.746 -9.199,4.426 -1.559,1.914 -2.57,4.496 -2.824,7.856 -0.559,7.359 2.558,11.296 7.394,13.199 1.793,0.703 3.95,-0.535 6.145,-0.672 0.043,0 0.082,-0.004 0.125,-0.004 0.219,-0.012 0.433,-0.008 0.652,0.008 2.055,0.156 3.879,2.14 5.703,1.773 0.977,-0.199 1.907,-0.472 2.785,-0.836 0.747,-0.304 1.454,-0.668 2.114,-1.097 0.207,-0.133 0.414,-0.278 0.613,-0.426 2.691,-1.996 4.488,-5.149 4.828,-9.645 z" />
      <path
         inkscape:connector-curvature="0"
         id="path26"
         style="fill:#ea7e73;fill-opacity:1;fill-rule:nonzero;stroke:none"
         d="m 8.637,33.605 c 0,0 -0.102,0.219 -0.199,0.618 -0.098,0.398 -0.192,0.972 -0.196,1.668 0,0.343 0.016,0.722 0.07,1.117 0.047,0.394 0.133,0.808 0.247,1.234 0.066,0.211 0.125,0.426 0.207,0.637 0.043,0.109 0.082,0.215 0.125,0.324 0.047,0.106 0.093,0.211 0.14,0.32 0.047,0.106 0.098,0.211 0.153,0.317 0.054,0.105 0.113,0.211 0.171,0.316 0.118,0.207 0.247,0.414 0.383,0.614 0.145,0.195 0.282,0.398 0.446,0.582 0.078,0.089 0.156,0.183 0.238,0.273 0.086,0.09 0.172,0.176 0.258,0.262 0.34,0.343 0.726,0.636 1.117,0.89 0.09,0.067 0.195,0.118 0.297,0.176 0.097,0.055 0.199,0.109 0.297,0.16 0.199,0.098 0.402,0.18 0.597,0.258 0.2,0.074 0.399,0.129 0.586,0.184 0.094,0.027 0.188,0.047 0.281,0.062 0.094,0.016 0.184,0.035 0.274,0.047 0.18,0.035 0.351,0.047 0.516,0.055 0.167,0.004 0.316,0.019 0.464,0.011 0.145,-0.011 0.278,-0.019 0.403,-0.031 0.125,-0.015 0.238,-0.023 0.34,-0.051 0.41,-0.082 0.632,-0.164 0.632,-0.164 0,0 -0.203,-0.148 -0.535,-0.355 -0.164,-0.102 -0.355,-0.246 -0.57,-0.383 -0.106,-0.07 -0.215,-0.152 -0.332,-0.238 -0.055,-0.043 -0.113,-0.082 -0.172,-0.121 -0.059,-0.043 -0.117,-0.094 -0.176,-0.141 -0.117,-0.098 -0.242,-0.18 -0.363,-0.285 C 14.219,41.859 14.098,41.754 13.973,41.648 13.855,41.531 13.73,41.422 13.609,41.309 13.492,41.184 13.367,41.07 13.25,40.945 13.02,40.691 12.781,40.43 12.559,40.148 12.504,40.078 12.445,40.008 12.391,39.938 12.336,39.863 12.281,39.793 12.227,39.719 12.113,39.578 12.012,39.422 11.906,39.27 11.848,39.199 11.801,39.117 11.75,39.039 11.699,38.961 11.641,38.887 11.594,38.809 11.496,38.648 11.387,38.496 11.293,38.332 11.246,38.25 11.195,38.172 11.145,38.094 11.098,38.012 11.051,37.93 11.004,37.852 10.906,37.691 10.82,37.527 10.723,37.367 10.543,37.047 10.363,36.73 10.199,36.422 10.031,36.109 9.867,35.812 9.719,35.539 9.566,35.258 9.426,34.996 9.301,34.766 9.172,34.535 9.059,34.328 8.961,34.156 8.863,33.984 8.781,33.844 8.727,33.75 8.668,33.656 8.637,33.605 8.637,33.605 Z" />
      <g
         id="g28">
        <g
           id="g30" />
        <g
           mask="url(#mask36)"
           id="g44">
          <g
             id="g46" />
          <g
             id="g68">
            <g
               id="g66"
               clip-path="url(#clipPath50)">
              <g
                 id="g64">
                <g
                   id="g62">
                  <g
                     id="g60"
                     clip-path="url(#clipPath54)">
                    <g
                       id="g58">
                      <path
                         inkscape:connector-curvature="0"
                         id="path56"
                         style="fill:#00a651;fill-opacity:1;fill-rule:nonzero;stroke:none"
                         d="m 28.898,46.152 c -0.148,-0.113 -0.3,-0.218 -0.457,-0.324 -3.699,-2.433 -8.894,-1.07 -8.894,-1.07 0,0 0.023,0.168 0.086,0.453 0.043,0 0.082,-0.004 0.125,-0.004 0.219,-0.012 0.433,-0.008 0.652,0.008 2.055,0.156 3.879,2.14 5.703,1.773 0.977,-0.199 1.907,-0.472 2.785,-0.836 z" />
                    </g>
                  </g>
                </g>
              </g>
            </g>
          </g>
        </g>
      </g>
      <path
         inkscape:connector-curvature="0"
         id="path70"
         style="fill:#00a651;fill-opacity:1;fill-rule:nonzero;stroke:none"
         d="M 25.805,46.297 C 23.348,44.23 19.492,44.77 19.492,44.77 c 0,0 0.125,3.89 2.582,5.96 2.457,2.067 6.317,1.528 6.317,1.528 0,0 -0.129,-3.891 -2.586,-5.961 z" />
      <path
         inkscape:connector-curvature="0"
         id="path72"
         style="fill:#42210b;fill-opacity:1;fill-rule:nonzero;stroke:none"
         d="m 19.605,23.172 c 0,0 0.016,0.019 0.051,0.047 0.035,0.027 0.086,0.07 0.149,0.117 0.129,0.094 0.312,0.207 0.535,0.316 0.226,0.11 0.488,0.211 0.773,0.289 0.285,0.075 0.59,0.125 0.899,0.153 0.308,0.023 0.617,0.019 0.91,-0.016 0.293,-0.031 0.566,-0.094 0.805,-0.164 0.238,-0.074 0.437,-0.164 0.578,-0.238 0.07,-0.035 0.129,-0.071 0.168,-0.094 0.035,-0.023 0.054,-0.035 0.054,-0.035 0,0 -0.015,-0.02 -0.05,-0.047 -0.036,-0.027 -0.082,-0.074 -0.149,-0.117 -0.129,-0.094 -0.312,-0.211 -0.535,-0.321 -0.227,-0.109 -0.488,-0.21 -0.773,-0.289 -0.286,-0.074 -0.59,-0.125 -0.899,-0.148 -0.309,-0.023 -0.617,-0.02 -0.91,0.016 -0.293,0.031 -0.566,0.093 -0.805,0.164 -0.238,0.074 -0.437,0.164 -0.578,0.234 -0.07,0.035 -0.129,0.074 -0.164,0.094 -0.039,0.023 -0.059,0.039 -0.059,0.039 z" />
      <path
         inkscape:connector-curvature="0"
         id="path74"
         style="fill:#ce3045;fill-opacity:1;fill-rule:nonzero;stroke:none"
         d="m 36.453,34.984 c 0.594,-7.855 -3.723,-12.257 -9.957,-13.918 -1.324,-0.351 -2.785,0.114 -4.254,0 -1.441,-0.105 -2.789,-0.796 -4.125,-0.664 -3.762,0.368 -7.015,1.743 -9.199,4.426 23.543,3.012 22.707,19.805 22.707,19.805 v -0.004 c 2.691,-1.996 4.484,-5.149 4.828,-9.645 z" />
      <path
         inkscape:connector-curvature="0"
         id="path76"
         style="fill:#8eb936;fill-opacity:1;fill-rule:nonzero;stroke:none"
         d="m 58.227,31.477 c 0.492,-6.512 -4.383,-12.188 -10.895,-12.684 -3.16,-0.238 -6.121,0.789 -8.394,2.652 -2.407,1.977 -4.032,4.895 -4.286,8.243 -0.492,6.511 4.387,12.187 10.895,12.679 3.348,0.254 6.476,-0.914 8.793,-2.992 2.183,-1.965 3.644,-4.738 3.887,-7.898 z" />
      <path
         inkscape:connector-curvature="0"
         id="path78"
         style="fill:#8eb936;fill-opacity:1;fill-rule:nonzero;stroke:none"
         d="m 58.227,31.477 c 0.492,-6.512 -4.383,-12.188 -10.895,-12.684 -3.16,-0.238 -6.121,0.789 -8.394,2.652 l 15.402,17.93 c 2.183,-1.965 3.644,-4.738 3.887,-7.898 z" />
      <path
         inkscape:connector-curvature="0"
         id="path80"
         style="fill:#c2d952;fill-opacity:1;fill-rule:nonzero;stroke:none"
         d="m 56.691,30.582 c 0,-5.664 -4.589,-10.25 -10.25,-10.25 -5.664,0 -10.253,4.586 -10.253,10.25 0,5.66 4.589,10.25 10.253,10.25 5.661,0 10.25,-4.59 10.25,-10.25 z" />
      <path
         inkscape:connector-curvature="0"
         id="path82"
         style="fill:#a1cd43;fill-opacity:1;fill-rule:nonzero;stroke:none"
         d="m 50.949,38.684 c 0.715,-0.379 0.879,-1.196 0.363,-1.821 l -3.964,-4.797 c -0.512,-0.621 -1.071,-0.484 -1.235,0.305 l -1.261,6.004 c -0.168,0.789 0.046,1.496 0.476,1.57 0,0 0,0 0.399,0.032 2.441,0.183 5.222,-1.293 5.222,-1.293 z" />
      <path
         inkscape:connector-curvature="0"
         id="path84"
         style="fill:#a1cd43;fill-opacity:1;fill-rule:nonzero;stroke:none"
         d="m 55.441,32.707 c 0.215,-0.777 -0.265,-1.465 -1.07,-1.523 l -6.027,-0.457 c -0.805,-0.063 -1.024,0.382 -0.489,0.984 l 4.094,4.605 c 0.535,0.602 1.367,0.567 1.848,-0.086 z" />
      <path
         inkscape:connector-curvature="0"
         id="path86"
         style="fill:#a1cd43;fill-opacity:1;fill-rule:nonzero;stroke:none"
         d="m 54.387,30.152 c 0.804,0.02 1.324,-0.613 1.152,-1.398 l -1.18,-3.047 C 53.938,25.02 53.086,24.875 52.465,25.391 l -4.406,3.656 c -0.621,0.512 -0.469,0.949 0.336,0.969 z" />
      <path
         inkscape:connector-curvature="0"
         id="path88"
         style="fill:#a1cd43;fill-opacity:1;fill-rule:nonzero;stroke:none"
         d="m 45.551,32.297 c 0.258,-0.766 -0.102,-1.059 -0.797,-0.649 l -5.137,3.02 c -0.695,0.41 -0.836,1.246 -0.312,1.863 l 2.582,2.137 c 0.695,0.41 1.476,0.117 1.734,-0.648 z" />
      <path
         inkscape:connector-curvature="0"
         id="path90"
         style="fill:#a1cd43;fill-opacity:1;fill-rule:nonzero;stroke:none"
         d="m 44.203,31.09 c 0.742,-0.317 0.785,-0.922 0.098,-1.34 l -4.856,-2.965 c -0.687,-0.422 -1.511,-0.156 -1.828,0.586 0,0 -0.465,1.102 -0.57,2.496 -0.109,1.418 0.203,2.613 0.203,2.613 0.203,0.782 0.977,1.161 1.719,0.844 z" />
      <path
         inkscape:connector-curvature="0"
         id="path92"
         style="fill:#a1cd43;fill-opacity:1;fill-rule:nonzero;stroke:none"
         d="m 44.629,29.082 c 0.668,0.449 1.078,0.172 0.906,-0.617 L 44.328,22.91 c -0.172,-0.789 -0.91,-1.156 -1.64,-0.812 l -2.891,2 c -0.574,0.57 -0.496,1.402 0.176,1.851 z" />
      <path
         inkscape:connector-curvature="0"
         id="path94"
         style="fill:#a1cd43;fill-opacity:1;fill-rule:nonzero;stroke:none"
         d="m 51.645,24.562 c 0.582,-0.558 0.503,-1.374 -0.176,-1.812 0,0 -2.176,-1.398 -4.317,-1.562 -0.757,-0.059 -0.761,-0.059 -0.761,-0.059 -0.805,0.082 -1.336,0.801 -1.18,1.594 l 1.031,5.343 c 0.153,0.793 0.754,0.981 1.336,0.422 z" />
      <path
         inkscape:connector-curvature="0"
         id="path96"
         style="fill:#8eb936;fill-opacity:1;fill-rule:nonzero;stroke:none"
         d="m 24.141,25.945 c -1.274,-0.832 -2.411,-1.765 -3.957,-1.937 -1.375,-0.153 -2.809,0.148 -4.196,0.14 1.489,-0.3 1.614,-2.109 1.5,-3.394 -0.086,-0.981 -0.769,-3.234 -1.781,-3.547 1.512,-0.465 2.684,-0.73 2.813,-2.559 0.125,-1.843 -0.122,-3.781 -0.149,-5.621 0.691,0.785 1.016,1.805 2.098,2.188 0.734,0.258 2.191,0.199 2.98,-0.004 1.41,-0.359 2.086,-1.68 2.43,-2.953 0.594,2.168 2.226,3.793 4.723,3.394 0.707,-0.113 2.003,-0.996 2.472,-0.605 0.703,0.594 -0.465,4.601 -0.59,5.398 -0.121,0.754 -0.25,1.516 -0.332,2.243 -0.222,1.96 -0.922,3.632 -2.406,4.972 -1.551,1.402 -2.949,1.695 -5.023,1.817 z" />
      <path
         inkscape:connector-curvature="0"
         id="path98"
         style="fill:#80739c;fill-opacity:1;fill-rule:nonzero;stroke:none"
         d="m 32.766,26.48 c 2.359,-1.199 3.621,-3.457 2.812,-5.042 -0.805,-1.59 -3.371,-1.907 -5.73,-0.708 -2.36,1.196 -3.618,3.454 -2.813,5.043 0.805,1.586 3.371,1.903 5.731,0.707 z" />
      <path
         inkscape:connector-curvature="0"
         id="path100"
         style="fill:#80739c;fill-opacity:1;fill-rule:nonzero;stroke:none"
         d="m 32.766,26.477 c 2.359,-1.196 3.621,-3.454 2.816,-5.043 -0.602,-1.18 -2.176,-1.661 -3.914,-1.332 0.883,0.179 1.594,0.636 1.953,1.343 0.805,1.59 -0.453,3.848 -2.812,5.043 -0.606,0.305 -1.223,0.516 -1.821,0.625 1.098,0.227 2.469,0.028 3.778,-0.636 z" />
      <path
         inkscape:connector-curvature="0"
         id="path102"
         style="fill:#80739c;fill-opacity:1;fill-rule:nonzero;stroke:none"
         d="M 38.918,27.793 C 41.277,26.598 42.539,24.34 41.734,22.75 40.926,21.164 38.363,20.848 36,22.043 c -2.359,1.199 -3.617,3.457 -2.812,5.043 0.804,1.59 3.371,1.906 5.73,0.707 z" />
      <path
         inkscape:connector-curvature="0"
         id="path104"
         style="fill:#80739c;fill-opacity:1;fill-rule:nonzero;stroke:none"
         d="m 38.922,27.793 c 2.359,-1.199 3.617,-3.457 2.812,-5.043 -0.597,-1.184 -2.172,-1.66 -3.91,-1.336 0.883,0.184 1.594,0.641 1.949,1.348 0.809,1.586 -0.453,3.843 -2.812,5.043 -0.606,0.304 -1.223,0.511 -1.82,0.625 1.097,0.222 2.472,0.023 3.781,-0.637 z" />
      <path
         inkscape:connector-curvature="0"
         id="path106"
         style="fill:#80739c;fill-opacity:1;fill-rule:nonzero;stroke:none"
         d="m 28.043,25.258 c 2.363,-1.196 3.621,-3.453 2.816,-5.043 -0.804,-1.586 -3.371,-1.903 -5.73,-0.707 -2.363,1.199 -3.621,3.457 -2.817,5.043 0.805,1.59 3.372,1.906 5.731,0.707 z" />
      <path
         inkscape:connector-curvature="0"
         id="path108"
         style="fill:#80739c;fill-opacity:1;fill-rule:nonzero;stroke:none"
         d="m 28.047,25.258 c 2.359,-1.199 3.617,-3.457 2.812,-5.043 -0.597,-1.184 -2.171,-1.66 -3.91,-1.332 0.883,0.179 1.594,0.637 1.949,1.344 0.809,1.585 -0.453,3.843 -2.812,5.043 -0.606,0.304 -1.223,0.511 -1.82,0.625 1.097,0.226 2.472,0.027 3.781,-0.637 z" />
      <path
         inkscape:connector-curvature="0"
         id="path110"
         style="fill:#80739c;fill-opacity:1;fill-rule:nonzero;stroke:none"
         d="m 36.352,16.57 c 2.359,-1.195 3.621,-3.453 2.816,-5.043 -0.809,-1.586 -3.375,-1.906 -5.734,-0.707 -2.36,1.196 -3.618,3.453 -2.813,5.043 0.805,1.586 3.371,1.907 5.731,0.707 z" />
      <path
         inkscape:connector-curvature="0"
         id="path112"
         style="fill:#80739c;fill-opacity:1;fill-rule:nonzero;stroke:none"
         d="m 36.352,16.566 c 2.359,-1.195 3.621,-3.453 2.816,-5.043 -0.602,-1.179 -2.176,-1.66 -3.914,-1.332 0.887,0.18 1.594,0.637 1.953,1.344 0.805,1.59 -0.453,3.848 -2.812,5.043 -0.606,0.309 -1.223,0.516 -1.821,0.625 1.098,0.227 2.469,0.027 3.778,-0.637 z" />
      <path
         inkscape:connector-curvature="0"
         id="path114"
         style="fill:#80739c;fill-opacity:1;fill-rule:nonzero;stroke:none"
         d="m 30.719,21.191 c 2.359,-1.199 3.617,-3.457 2.812,-5.043 -0.804,-1.589 -3.371,-1.906 -5.73,-0.707 -2.36,1.196 -3.621,3.454 -2.817,5.043 0.809,1.586 3.375,1.903 5.735,0.707 z" />
      <path
         inkscape:connector-curvature="0"
         id="path116"
         style="fill:#80739c;fill-opacity:1;fill-rule:nonzero;stroke:none"
         d="m 30.719,21.188 c 2.359,-1.196 3.621,-3.454 2.812,-5.043 -0.597,-1.18 -2.172,-1.661 -3.91,-1.333 0.883,0.18 1.594,0.637 1.953,1.344 0.805,1.59 -0.457,3.848 -2.816,5.043 -0.602,0.305 -1.219,0.516 -1.82,0.625 1.101,0.227 2.472,0.028 3.781,-0.636 z" />
      <path
         inkscape:connector-curvature="0"
         id="path118"
         style="fill:#80739c;fill-opacity:1;fill-rule:nonzero;stroke:none"
         d="m 43.211,16.105 c 2.359,-1.195 3.621,-3.453 2.816,-5.043 -0.808,-1.585 -3.375,-1.902 -5.734,-0.707 -2.359,1.2 -3.617,3.457 -2.813,5.043 0.805,1.59 3.372,1.907 5.731,0.707 z" />
      <path
         inkscape:connector-curvature="0"
         id="path120"
         style="fill:#80739c;fill-opacity:1;fill-rule:nonzero;stroke:none"
         d="m 43.211,16.105 c 2.359,-1.199 3.621,-3.457 2.816,-5.043 -0.601,-1.183 -2.175,-1.66 -3.914,-1.335 0.887,0.183 1.594,0.64 1.953,1.347 0.805,1.586 -0.453,3.844 -2.812,5.043 -0.606,0.305 -1.223,0.512 -1.82,0.625 1.097,0.223 2.472,0.028 3.777,-0.637 z" />
      <path
         inkscape:connector-curvature="0"
         id="path122"
         style="fill:#80739c;fill-opacity:1;fill-rule:nonzero;stroke:none"
         d="m 43.281,21.582 c 2.36,-1.195 3.621,-3.453 2.817,-5.043 -0.809,-1.586 -3.375,-1.902 -5.735,-0.707 -2.359,1.199 -3.617,3.457 -2.812,5.043 0.804,1.59 3.371,1.906 5.73,0.707 z" />
      <path
         inkscape:connector-curvature="0"
         id="path124"
         style="fill:#80739c;fill-opacity:1;fill-rule:nonzero;stroke:none"
         d="m 43.285,21.582 c 2.36,-1.199 3.617,-3.457 2.813,-5.043 -0.598,-1.184 -2.172,-1.66 -3.91,-1.332 0.882,0.18 1.589,0.637 1.949,1.344 0.808,1.586 -0.453,3.844 -2.813,5.043 -0.605,0.304 -1.222,0.511 -1.82,0.625 1.098,0.222 2.473,0.027 3.781,-0.637 z" />
      <path
         inkscape:connector-curvature="0"
         id="path126"
         style="fill:#80739c;fill-opacity:1;fill-rule:nonzero;stroke:none"
         d="m 38.402,21.863 c 2.36,-1.195 3.621,-3.453 2.813,-5.043 -0.805,-1.586 -3.371,-1.902 -5.731,-0.707 -2.359,1.199 -3.621,3.457 -2.812,5.043 0.805,1.59 3.371,1.906 5.73,0.707 z" />
      <path
         inkscape:connector-curvature="0"
         id="path128"
         style="fill:#80739c;fill-opacity:1;fill-rule:nonzero;stroke:none"
         d="m 38.402,21.863 c 2.36,-1.199 3.621,-3.457 2.817,-5.043 -0.602,-1.183 -2.176,-1.66 -3.914,-1.336 0.886,0.184 1.593,0.641 1.953,1.348 0.804,1.586 -0.453,3.844 -2.813,5.043 -0.605,0.305 -1.222,0.512 -1.82,0.625 1.098,0.223 2.469,0.023 3.777,-0.637 z" />
      <path
         inkscape:connector-curvature="0"
         id="path130"
         style="fill:#80739c;fill-opacity:1;fill-rule:nonzero;stroke:none"
         d="m 49.59,18.094 c 2.359,-1.199 3.621,-3.457 2.816,-5.043 -0.808,-1.59 -3.371,-1.906 -5.734,-0.711 -2.36,1.199 -3.617,3.457 -2.813,5.043 0.805,1.59 3.371,1.906 5.731,0.711 z" />
      <path
         inkscape:connector-curvature="0"
         id="path132"
         style="fill:#80739c;fill-opacity:1;fill-rule:nonzero;stroke:none"
         d="m 49.594,18.09 c 2.359,-1.199 3.617,-3.457 2.812,-5.043 -0.597,-1.184 -2.172,-1.66 -3.91,-1.332 0.883,0.18 1.594,0.637 1.949,1.344 0.809,1.586 -0.453,3.843 -2.812,5.043 -0.606,0.304 -1.223,0.511 -1.821,0.625 1.098,0.226 2.473,0.027 3.782,-0.637 z" />
      <path
         inkscape:connector-curvature="0"
         id="path134"
         style="fill:#80739c;fill-opacity:1;fill-rule:nonzero;stroke:none"
         d="m 28.043,17.172 c 2.359,-1.199 3.621,-3.457 2.812,-5.043 -0.804,-1.59 -3.371,-1.906 -5.73,-0.707 -2.359,1.195 -3.617,3.453 -2.813,5.043 0.805,1.586 3.372,1.902 5.731,0.707 z" />
      <path
         inkscape:connector-curvature="0"
         id="path136"
         style="fill:#80739c;fill-opacity:1;fill-rule:nonzero;stroke:none"
         d="m 28.043,17.168 c 2.359,-1.195 3.621,-3.457 2.816,-5.043 -0.601,-1.18 -2.175,-1.66 -3.914,-1.332 0.883,0.18 1.594,0.637 1.953,1.344 0.805,1.586 -0.453,3.843 -2.812,5.043 -0.606,0.304 -1.223,0.511 -1.82,0.625 1.097,0.226 2.468,0.027 3.777,-0.637 z" />
    </g>
  </g>
</svg>
