<?xml version="1.0" encoding="UTF-8" standalone="no"?>
<svg
   xmlns:dc="http://purl.org/dc/elements/1.1/"
   xmlns:cc="http://creativecommons.org/ns#"
   xmlns:rdf="http://www.w3.org/1999/02/22-rdf-syntax-ns#"
   xmlns:svg="http://www.w3.org/2000/svg"
   xmlns="http://www.w3.org/2000/svg"
   xmlns:sodipodi="http://sodipodi.sourceforge.net/DTD/sodipodi-0.dtd"
   xmlns:inkscape="http://www.inkscape.org/namespaces/inkscape"
   inkscape:version="1.0beta1 (32d4812, 2019-09-19)"
   sodipodi:docname="food-fish.svg"
   viewBox="0 0 85.333336 85.333336"
   height="85.333336"
   width="85.333336"
   xml:space="preserve"
   id="svg10"
   version="1.1">
  <metadata
     id="metadata16">
    <rdf:RDF>
      <cc:Work
         rdf:about="">
        <dc:format>image/svg+xml</dc:format>
        <dc:type
           rdf:resource="http://purl.org/dc/dcmitype/StillImage" />
        <dc:title></dc:title>
      </cc:Work>
    </rdf:RDF>
  </metadata>
  <defs
     id="defs14" />
  <sodipodi:namedview
     inkscape:current-layer="svg10"
     inkscape:window-maximized="0"
     inkscape:window-y="23"
     inkscape:window-x="0"
     inkscape:cy="560"
     inkscape:cx="400"
     inkscape:zoom="0.35"
     showgrid="false"
     id="namedview12"
     inkscape:window-height="799"
     inkscape:window-width="1440"
     inkscape:pageshadow="2"
     inkscape:pageopacity="0"
     guidetolerance="10"
     gridtolerance="10"
     objecttolerance="10"
     borderopacity="1"
     inkscape:document-rotation="0"
     bordercolor="#666666"
     pagecolor="#ffffff" />
  <g
     transform="matrix(1.3333333,0,0,-1.3333333,0,85.333333)"
     inkscape:label="food-fish"
     inkscape:groupmode="layer"
     id="g18">
    <g
       id="g20">
      <path
         inkscape:connector-curvature="0"
         id="path22"
         style="fill:#f9d54b;fill-opacity:1;fill-rule:nonzero;stroke:none"
         d="M 62.719,32 C 62.719,15.035 48.965,1.281 32,1.281 15.035,1.281 1.281,15.035 1.281,32 1.281,48.965 15.035,62.719 32,62.719 48.965,62.719 62.719,48.965 62.719,32 Z" />
      <path
         inkscape:connector-curvature="0"
         id="path24"
         style="fill:#dbb446;fill-opacity:1;fill-rule:nonzero;stroke:none"
         d="M 9.742,29.297 37.297,1.742 c 13.305,2.317 23.668,13.18 25.215,26.735 l -7.246,7.246 -9.871,-4.051 z" />
      <path
         inkscape:connector-curvature="0"
         id="path26"
         style="fill:#445e72;fill-opacity:1;fill-rule:nonzero;stroke:none"
         d="m 21.75,37.23 c 1.078,0.567 6.078,1.418 7.895,1.477 1.816,0.055 3.804,-0.285 3.804,-0.285 l -0.054,-1.133 3.746,0.453 6.019,-3.75 -1.871,-1.078 c 0,0 -7.383,2.328 -10.734,3.18 -3.352,0.851 -8.805,1.136 -8.805,1.136 z" />
      <path
         inkscape:connector-curvature="0"
         id="path28"
         style="fill:#445e72;fill-opacity:1;fill-rule:nonzero;stroke:none"
         d="m 18.742,24.906 c 0.735,-0.398 7.723,-2.16 8.235,-2.273 0.511,-0.113 1.929,1.308 1.929,1.308 l -1.59,0.907 z" />
      <path
         inkscape:connector-curvature="0"
         id="path30"
         style="fill:#445e72;fill-opacity:1;fill-rule:nonzero;stroke:none"
         d="m 28.055,24.848 c 0.172,0 8.234,-2.496 8.234,-2.496 l 1.25,1.644 c 0,0 4.656,3.297 5.055,3.692 0.398,0.398 -1.418,1.136 -1.418,1.136 0,0 -3.238,-1.136 -5.793,-1.703 -2.559,-0.57 -7.328,-2.273 -7.328,-2.273 z" />
      <path
         inkscape:connector-curvature="0"
         id="path32"
         style="fill:#445e72;fill-opacity:1;fill-rule:nonzero;stroke:none"
         d="m 45.832,33.113 c 0.715,0.211 6.363,2.102 7.324,2.383 0.969,0.285 2.473,0.824 2.246,0.031 -0.226,-0.797 -0.086,-1.277 -0.851,-1.675 -0.766,-0.399 -1.809,-2.68 -1.883,-3.512 -0.047,-0.516 0.746,-3.133 1.027,-3.305 0.285,-0.172 1.508,-1.789 1.11,-2.043 -0.399,-0.258 -2.981,-0.543 -5.196,1.106 -2.214,1.648 -3.179,1.59 -3.664,1.617 -0.484,0.031 -1.816,0.738 -1.816,1.137 0,0.398 0.652,3.949 1.703,4.261 z" />
      <path
         inkscape:connector-curvature="0"
         id="path34"
         style="fill:#7c96ad;fill-opacity:1;fill-rule:nonzero;stroke:none"
         d="m 22.754,37.531 c -2.887,-0.183 -5.906,-2.347 -5.906,-2.347 0,0 3.027,-2.649 3.293,-4.731 0.148,-1.176 -3.938,-5.226 -2.422,-5.68 2.476,-0.742 8.519,-1.023 10.261,-0.339 1.743,0.679 9.618,2.953 10.754,3.48 1.133,0.531 4.313,0.91 5.149,0.606 0.832,-0.301 2.269,-0.227 2.269,0.531 0,0.758 -0.605,1.668 -0.605,1.668 0,0 1.969,2.043 1.515,2.422 -0.453,0.379 -2.648,-0.301 -3.71,-0.301 -1.059,0 -6.059,1.816 -8.481,2.722 -2.426,0.911 -8.559,2.2 -12.117,1.969 z" />
      <path
         inkscape:connector-curvature="0"
         id="path36"
         style="fill:#445e72;fill-opacity:1;fill-rule:nonzero;stroke:none"
         d="m 9.844,31.172 c -0.297,-0.508 0.527,-0.797 0.527,-0.797 0,0 -0.851,0.211 -0.867,-0.262 -0.02,-0.433 1.59,-2.386 2.574,-3.066 0.984,-0.684 6.246,-3.524 7.649,-1.742 1.398,1.777 2.421,5.148 1.816,6.586 -0.605,1.441 -2.613,4.015 -4.051,3.711 -1.234,-0.258 -7.195,-3.653 -7.648,-4.43 z" />
      <path
         inkscape:connector-curvature="0"
         id="path38"
         style="fill:#cccccc;fill-opacity:1;fill-rule:nonzero;stroke:none"
         d="m 18.133,30.301 c 0,-1.192 -0.965,-2.156 -2.156,-2.156 -1.192,0 -2.161,0.964 -2.161,2.156 0,1.191 0.969,2.16 2.161,2.16 1.191,0 2.156,-0.969 2.156,-2.16 z" />
      <path
         inkscape:connector-curvature="0"
         id="path40"
         style="fill:#1a1a1a;fill-opacity:1;fill-rule:nonzero;stroke:none"
         d="m 17.035,30.055 c 0,-0.594 -0.48,-1.078 -1.078,-1.078 -0.594,0 -1.078,0.484 -1.078,1.078 0,0.597 0.484,1.078 1.078,1.078 0.598,0 1.078,-0.481 1.078,-1.078 z" />
      <path
         inkscape:connector-curvature="0"
         id="path42"
         style="fill:#445e72;fill-opacity:1;fill-rule:nonzero;stroke:none"
         d="m 22.602,27.574 c 0.289,-0.668 1.933,-1.476 3.691,-0.965 1.762,0.512 2.102,1.817 1.816,3.18 -0.281,1.363 -1.246,2.613 -1.703,1.762 -0.453,-0.852 -0.851,-2.215 -1.703,-2.613 -0.851,-0.399 -2.269,-0.965 -2.101,-1.364 z" />
    </g>
  </g>
</svg>
