<?xml version="1.0" encoding="UTF-8" standalone="no"?>
<svg
   xmlns:dc="http://purl.org/dc/elements/1.1/"
   xmlns:cc="http://creativecommons.org/ns#"
   xmlns:rdf="http://www.w3.org/1999/02/22-rdf-syntax-ns#"
   xmlns:svg="http://www.w3.org/2000/svg"
   xmlns="http://www.w3.org/2000/svg"
   xmlns:sodipodi="http://sodipodi.sourceforge.net/DTD/sodipodi-0.dtd"
   xmlns:inkscape="http://www.inkscape.org/namespaces/inkscape"
   inkscape:version="1.0beta1 (32d4812, 2019-09-19)"
   sodipodi:docname="food-nuts.svg"
   viewBox="0 0 85.333336 85.333336"
   height="85.333336"
   width="85.333336"
   xml:space="preserve"
   id="svg10"
   version="1.1">
  <metadata
     id="metadata16">
    <rdf:RDF>
      <cc:Work
         rdf:about="">
        <dc:format>image/svg+xml</dc:format>
        <dc:type
           rdf:resource="http://purl.org/dc/dcmitype/StillImage" />
        <dc:title></dc:title>
      </cc:Work>
    </rdf:RDF>
  </metadata>
  <defs
     id="defs14" />
  <sodipodi:namedview
     inkscape:current-layer="svg10"
     inkscape:window-maximized="0"
     inkscape:window-y="23"
     inkscape:window-x="0"
     inkscape:cy="560"
     inkscape:cx="400"
     inkscape:zoom="0.35"
     showgrid="false"
     id="namedview12"
     inkscape:window-height="799"
     inkscape:window-width="1440"
     inkscape:pageshadow="2"
     inkscape:pageopacity="0"
     guidetolerance="10"
     gridtolerance="10"
     objecttolerance="10"
     borderopacity="1"
     inkscape:document-rotation="0"
     bordercolor="#666666"
     pagecolor="#ffffff" />
  <g
     transform="matrix(1.3333333,0,0,-1.3333333,0,85.333333)"
     inkscape:label="food-nuts"
     inkscape:groupmode="layer"
     id="g18">
    <g
       id="g20">
      <path
         inkscape:connector-curvature="0"
         id="path22"
         style="fill:#6ebec5;fill-opacity:1;fill-rule:nonzero;stroke:none"
         d="M 62.828,32.109 C 62.828,15.141 49.074,1.387 32.109,1.387 15.141,1.387 1.387,15.141 1.387,32.109 c 0,16.965 13.754,30.719 30.722,30.719 16.965,0 30.719,-13.754 30.719,-30.719 z" />
      <path
         inkscape:connector-curvature="0"
         id="path24"
         style="fill:#5ea3a5;fill-opacity:1;fill-rule:nonzero;stroke:none"
         d="M 62.797,30.914 47.508,46.203 43.984,44.078 21.812,19.91 18.957,15.055 32.609,1.402 c 16.336,0.262 29.567,13.266 30.188,29.512 z" />
      <path
         inkscape:connector-curvature="0"
         id="path26"
         style="fill:#f5d9b2;fill-opacity:1;fill-rule:nonzero;stroke:none"
         d="m 19.441,29.062 c -2.234,-4.343 -2.062,-6.906 -2.316,-9.265 -0.254,-2.359 1.652,-7.383 6.566,-6.293 5.332,1.187 8.489,7.125 10.532,8.988 2.043,1.863 6.687,4.203 8.976,6.961 2.293,2.754 5.09,10.067 5.09,10.067 0,0 1.004,0.617 1.176,2.406 0.168,1.789 -1.875,6.465 -5.535,5.586 C 40.262,46.629 37.738,46.07 35.691,42.746 33.641,39.418 32.41,36.25 30.613,35.281 28.82,34.312 21.656,33.363 19.441,29.062 Z" />
      <path
         inkscape:connector-curvature="0"
         id="path28"
         style="fill:#dda873;fill-opacity:1;fill-rule:nonzero;stroke:none"
         d="m 46.57,47.172 c 0.832,-0.106 2.649,-2.586 3.008,-3.727 0.363,-1.14 0.211,-2.007 -0.172,-2.765 -0.472,-0.93 -0.883,-1.293 -1.066,-1.188 -0.18,0.102 -0.313,0.891 0.023,1.559 0.532,1.07 0.246,3.004 -0.258,3.758 -0.503,0.753 -2.156,2.445 -1.535,2.363 z" />
      <path
         inkscape:connector-curvature="0"
         id="path30"
         style="fill:#efc595;fill-opacity:1;fill-rule:nonzero;stroke:none"
         d="m 24.055,29.801 c -0.035,-0.656 0.972,-1.524 1.379,-1.715 0.402,-0.191 1.082,0.215 1.41,0.594 0.328,0.379 0.98,0.918 1.011,1.379 0.028,0.461 -0.179,2.414 -0.617,2.359 -0.433,-0.051 -1.304,-0.699 -1.984,-1.211 -0.68,-0.512 -1.168,-0.891 -1.199,-1.406 z" />
      <path
         inkscape:connector-curvature="0"
         id="path32"
         style="fill:#efc595;fill-opacity:1;fill-rule:nonzero;stroke:none"
         d="m 21.387,26.828 c -0.039,-0.551 0.992,-2.144 1.32,-1.82 0.328,0.324 1.332,1.105 1.688,1.402 0.351,0.297 0.25,1.219 -0.266,1.793 -0.512,0.57 -1.024,0.926 -1.488,0.465 -0.461,-0.457 -1.227,-1.43 -1.254,-1.84 z" />
      <path
         inkscape:connector-curvature="0"
         id="path34"
         style="fill:#efc595;fill-opacity:1;fill-rule:nonzero;stroke:none"
         d="m 19.723,24.422 c -0.004,-0.617 0.129,-1.383 0.644,-1.141 0.516,0.242 1.278,0.457 1.442,0.891 0.164,0.433 -0.293,1.113 -0.563,1.601 -0.269,0.489 -0.379,0.434 -0.867,-0.105 -0.492,-0.539 -0.656,-0.918 -0.656,-1.246 z" />
      <path
         inkscape:connector-curvature="0"
         id="path36"
         style="fill:#efc595;fill-opacity:1;fill-rule:nonzero;stroke:none"
         d="m 17.945,21.312 c 0.688,0.133 1.578,0.86 1.633,1.188 0.055,0.324 -0.156,1.789 -0.512,1.438 -0.351,-0.352 -1.062,-1.54 -1.199,-1.895 -0.137,-0.352 -0.195,-0.785 0.078,-0.731 z" />
      <path
         inkscape:connector-curvature="0"
         id="path38"
         style="fill:#efc595;fill-opacity:1;fill-rule:nonzero;stroke:none"
         d="m 28.84,32.711 c -0.824,-0.313 -0.82,-2.273 -0.223,-2.059 0.598,0.211 1.871,0.614 1.93,1.102 0.055,0.488 -1.352,1.09 -1.707,0.957 z" />
      <path
         inkscape:connector-curvature="0"
         id="path40"
         style="fill:#efc595;fill-opacity:1;fill-rule:nonzero;stroke:none"
         d="m 30.363,33.52 c 0.594,-0.692 2.223,-0.606 2.953,-0.204 0.735,0.403 1.719,1.754 1.883,2.407 0.168,0.648 0.336,2.382 -0.207,1.843 -0.547,-0.539 -1.5,-1.484 -2.371,-2.187 C 31.75,34.68 30.012,33.926 30.363,33.52 Z" />
      <path
         inkscape:connector-curvature="0"
         id="path42"
         style="fill:#efc595;fill-opacity:1;fill-rule:nonzero;stroke:none"
         d="m 36.125,36.262 c -0.383,-0.653 -1.367,-2.274 -0.957,-2.196 0.406,0.082 2.227,1.184 2.5,1.618 0.273,0.433 0.906,2.628 0.555,2.765 -0.352,0.137 -1.008,-0.836 -1.282,-1.215 -0.273,-0.379 -0.816,-0.972 -0.816,-0.972 z" />
      <path
         inkscape:connector-curvature="0"
         id="path44"
         style="fill:#efc595;fill-opacity:1;fill-rule:nonzero;stroke:none"
         d="m 35.426,38.105 c -0.047,-0.511 0.211,-1.625 0.512,-1.273 0.3,0.352 0.656,1.352 0.984,1.566 0.324,0.215 1.168,1.055 1.223,1.379 0.058,0.325 -0.235,1.817 -0.59,1.414 -0.356,-0.406 -1.012,-1.597 -1.364,-2.003 -0.355,-0.403 -0.738,-0.782 -0.765,-1.083 z" />
      <path
         inkscape:connector-curvature="0"
         id="path46"
         style="fill:#efc595;fill-opacity:1;fill-rule:nonzero;stroke:none"
         d="m 38.102,41.895 c -0.192,-0.481 0.347,-0.899 0.781,-0.844 0.437,0.051 0.894,-0.031 1.031,0.32 0.137,0.352 0.035,1.274 0.305,1.492 0.273,0.215 0.875,0.864 0.765,1.133 -0.105,0.274 -0.621,0.52 -1.086,0.004 -0.464,-0.512 -1.55,-1.484 -1.796,-2.105 z" />
      <path
         inkscape:connector-curvature="0"
         id="path48"
         style="fill:#efc595;fill-opacity:1;fill-rule:nonzero;stroke:none"
         d="m 41.254,43.129 c -0.438,-0.559 -1.098,-2.223 -0.637,-2.141 0.465,0.078 0.789,0.782 1.145,0.809 0.351,0.023 1.058,0.512 1.332,0.891 0.273,0.378 0.41,1.109 -0.129,1.058 -0.547,-0.055 -1.332,-0.133 -1.711,-0.617 z" />
      <path
         inkscape:connector-curvature="0"
         id="path50"
         style="fill:#efc595;fill-opacity:1;fill-rule:nonzero;stroke:none"
         d="m 41.395,45.105 c -0.207,-0.382 0.023,-0.949 0.457,-0.839 0.437,0.105 1.058,0.293 1.168,0.507 0.109,0.219 0.359,0.95 -0.051,0.872 -0.407,-0.083 -1.383,-0.184 -1.574,-0.54 z" />
      <path
         inkscape:connector-curvature="0"
         id="path52"
         style="fill:#efc595;fill-opacity:1;fill-rule:nonzero;stroke:none"
         d="m 43.516,45.91 c -0.157,-0.531 0.425,-1.629 0.48,-1.953 0.051,-0.324 0.813,-0.059 0.949,0.238 0.137,0.301 0.739,1.274 0.711,1.68 -0.023,0.406 -0.347,0.844 -0.918,0.602 -0.57,-0.243 -1.113,-0.188 -1.222,-0.567 z" />
      <path
         inkscape:connector-curvature="0"
         id="path54"
         style="fill:#efc595;fill-opacity:1;fill-rule:nonzero;stroke:none"
         d="m 40.723,39.902 c -0.43,-0.476 -0.547,-1.515 -0.114,-1.3 0.434,0.214 1.496,1.05 1.797,1.347 0.297,0.297 0.844,1 0.68,1.219 -0.16,0.219 -1.898,-0.754 -2.363,-1.266 z" />
      <path
         inkscape:connector-curvature="0"
         id="path56"
         style="fill:#efc595;fill-opacity:1;fill-rule:nonzero;stroke:none"
         d="m 45.84,44.602 c -0.301,-0.641 -0.301,-0.95 -0.004,-0.872 0.301,0.082 1.332,0.676 1.418,0.973 0.082,0.297 -0.215,1.141 -0.543,0.871 -0.324,-0.269 -0.68,-0.57 -0.871,-0.972 z" />
      <path
         inkscape:connector-curvature="0"
         id="path58"
         style="fill:#efc595;fill-opacity:1;fill-rule:nonzero;stroke:none"
         d="m 17.586,19.277 c 0.082,-0.597 2.031,-0.359 2.004,0.102 -0.024,0.461 -0.586,1.683 -0.914,1.414 -0.328,-0.27 -1.145,-1.133 -1.09,-1.516 z" />
      <path
         inkscape:connector-curvature="0"
         id="path60"
         style="fill:#efc595;fill-opacity:1;fill-rule:nonzero;stroke:none"
         d="m 19.438,21.168 c -0.043,-0.441 0.398,-1.816 0.886,-1.766 0.488,0.055 2.336,0.641 2.309,1.211 -0.024,0.571 -0.695,1.633 -1.02,1.907 -0.324,0.269 -2.148,-1.051 -2.175,-1.352 z" />
      <path
         inkscape:connector-curvature="0"
         id="path62"
         style="fill:#efc595;fill-opacity:1;fill-rule:nonzero;stroke:none"
         d="m 22.293,23.137 c -0.059,-0.403 0.773,-2.524 1.211,-2.418 0.434,0.105 1.82,0.672 1.793,1.187 -0.024,0.512 -1.402,1.469 -1.891,1.742 -0.488,0.274 -1.058,-0.132 -1.113,-0.511 z" />
      <path
         inkscape:connector-curvature="0"
         id="path64"
         style="fill:#efc595;fill-opacity:1;fill-rule:nonzero;stroke:none"
         d="m 24.113,24.352 c -0.129,-0.594 1.864,-2.098 2.164,-2.016 0.297,0.078 0.785,0.457 0.868,0.699 0.085,0.246 -0.883,2.309 -1.262,2.582 -0.379,0.274 -1.629,-0.644 -1.77,-1.265 z" />
      <path
         inkscape:connector-curvature="0"
         id="path66"
         style="fill:#efc595;fill-opacity:1;fill-rule:nonzero;stroke:none"
         d="m 26.805,26.102 c -0.18,-0.305 0.644,-2.387 1.16,-2.254 0.515,0.132 1.086,0.535 1.058,0.945 -0.023,0.406 -0.617,1.004 -0.886,1.332 -0.27,0.324 -1.168,0.246 -1.332,-0.023 z" />
      <path
         inkscape:connector-curvature="0"
         id="path68"
         style="fill:#efc595;fill-opacity:1;fill-rule:nonzero;stroke:none"
         d="m 27.98,27.645 c -0.035,-0.5 1.262,-2.528 1.645,-2.313 0.379,0.215 2.066,1.563 1.879,2.078 -0.188,0.516 -1.539,1.664 -1.672,2.07 -0.137,0.407 -1.223,-0.187 -1.523,-0.699 -0.301,-0.515 -0.301,-0.73 -0.329,-1.136 z" />
      <path
         inkscape:connector-curvature="0"
         id="path70"
         style="fill:#efc595;fill-opacity:1;fill-rule:nonzero;stroke:none"
         d="m 31.602,30.91 c -0.661,-0.215 -1.063,-1 -0.848,-1.543 0.215,-0.543 0.832,-1.711 1.242,-1.469 0.406,0.243 1.438,1.051 1.629,1.403 0.195,0.351 -1.047,1.929 -2.023,1.609 z" />
      <path
         inkscape:connector-curvature="0"
         id="path72"
         style="fill:#efc595;fill-opacity:1;fill-rule:nonzero;stroke:none"
         d="m 33.148,31.961 c -0.296,-0.465 0.914,-2.281 1.485,-1.934 0.574,0.352 1.469,0.973 1.879,1.27 0.406,0.297 0.328,0.973 0.304,1.598 -0.027,0.625 -0.511,0.789 -1.136,0.382 -0.625,-0.402 -2.336,-1.019 -2.532,-1.316 z" />
      <path
         inkscape:connector-curvature="0"
         id="path74"
         style="fill:#efc595;fill-opacity:1;fill-rule:nonzero;stroke:none"
         d="m 37.062,33.953 c -0.093,-0.426 0.7,-1.469 1.106,-1.445 0.406,0.027 1.277,0.89 1.605,1.215 0.329,0.324 1.364,1.132 0.743,1.867 -0.621,0.734 -1.629,0.117 -2.227,-0.367 -0.598,-0.489 -1.113,-0.785 -1.227,-1.27 z" />
      <path
         inkscape:connector-curvature="0"
         id="path76"
         style="fill:#efc595;fill-opacity:1;fill-rule:nonzero;stroke:none"
         d="m 40.52,37 c -0.137,-0.445 0.863,-1.25 1.351,-1.09 0.492,0.16 1.469,1.028 1.633,1.457 0.168,0.434 -0.043,1.574 -0.535,1.684 C 42.484,39.164 40.715,37.625 40.52,37 Z" />
      <path
         inkscape:connector-curvature="0"
         id="path78"
         style="fill:#efc595;fill-opacity:1;fill-rule:nonzero;stroke:none"
         d="m 43.57,39.809 c -0.113,-0.414 0.317,-1.899 0.618,-1.821 0.296,0.082 1.14,0.539 1.25,0.918 0.109,0.379 0.035,1.817 -0.29,2.09 -0.324,0.274 -1.496,-0.891 -1.578,-1.187 z" />
      <path
         inkscape:connector-curvature="0"
         id="path80"
         style="fill:#efc595;fill-opacity:1;fill-rule:nonzero;stroke:none"
         d="m 46.43,42.484 c -0.336,-0.582 -0.422,-2.957 -0.149,-2.851 0.274,0.109 1.278,0.785 1.36,1.082 0.086,0.297 0.636,2.301 0.308,2.465 -0.324,0.164 -1.301,-0.321 -1.519,-0.696 z" />
      <path
         inkscape:connector-curvature="0"
         id="path82"
         style="fill:#efc595;fill-opacity:1;fill-rule:nonzero;stroke:none"
         d="m 17.688,17.922 c 0,-0.328 1.921,-0.738 2.437,-0.77 0.516,-0.027 1.301,-0.113 1.086,0.539 -0.215,0.653 -1.082,0.817 -1.758,0.629 -0.68,-0.183 -1.765,-0.074 -1.765,-0.398 z" />
      <path
         inkscape:connector-curvature="0"
         id="path84"
         style="fill:#efc595;fill-opacity:1;fill-rule:nonzero;stroke:none"
         d="m 21.406,18.422 c -0.113,-0.336 0.371,-1.356 0.809,-1.25 0.433,0.105 1.707,0.238 1.762,0.562 0.058,0.325 0.035,1.004 -0.266,1.246 -0.297,0.247 -2.195,-0.234 -2.305,-0.558 z" />
      <path
         inkscape:connector-curvature="0"
         id="path86"
         style="fill:#efc595;fill-opacity:1;fill-rule:nonzero;stroke:none"
         d="m 24.477,19.738 c -0.141,-0.359 -0.008,-1.679 0.316,-1.793 0.324,-0.109 1.547,0.567 1.684,0.918 0.14,0.352 -0.047,1.137 -0.563,1.278 -0.516,0.136 -1.301,-0.051 -1.437,-0.403 z" />
      <path
         inkscape:connector-curvature="0"
         id="path88"
         style="fill:#efc595;fill-opacity:1;fill-rule:nonzero;stroke:none"
         d="m 26.188,20.52 c -0.055,-0.422 1.05,-1.118 1.351,-0.875 0.301,0.242 1.008,1.324 0.606,1.625 -0.407,0.3 -1.903,-0.317 -1.957,-0.75 z" />
      <path
         inkscape:connector-curvature="0"
         id="path90"
         style="fill:#efc595;fill-opacity:1;fill-rule:nonzero;stroke:none"
         d="m 28.254,22.191 c -0.203,-0.441 0.43,-1.035 0.894,-0.683 0.461,0.351 1.907,1.89 1.852,2.215 -0.051,0.328 -0.32,0.707 -0.621,0.683 -0.297,-0.027 -1.988,-1.918 -2.125,-2.215 z" />
      <path
         inkscape:connector-curvature="0"
         id="path92"
         style="fill:#efc595;fill-opacity:1;fill-rule:nonzero;stroke:none"
         d="m 31.086,24.945 c -0.082,-0.371 0.297,-0.679 0.512,-0.574 0.218,0.109 2.449,1.457 2.207,1.918 -0.243,0.461 -0.43,1.031 -0.836,0.734 -0.41,-0.293 -1.774,-1.589 -1.883,-2.078 z" />
      <path
         inkscape:connector-curvature="0"
         id="path94"
         style="fill:#efc595;fill-opacity:1;fill-rule:nonzero;stroke:none"
         d="m 33.594,27.43 c -0.067,-0.239 0.105,-0.653 0.429,-0.598 0.329,0.051 1.715,0.941 2.176,1.402 0.465,0.457 0.223,1.407 -0.047,1.465 -0.273,0.055 -2.422,-1.754 -2.558,-2.269 z" />
      <path
         inkscape:connector-curvature="0"
         id="path96"
         style="fill:#efc595;fill-opacity:1;fill-rule:nonzero;stroke:none"
         d="m 36.887,30.047 c -0.117,-0.344 -0.278,-1.356 0.511,-0.899 0.786,0.457 2.364,1.157 2.176,1.567 -0.191,0.406 -0.566,1.058 -1,0.844 -0.437,-0.215 -1.578,-1.188 -1.687,-1.512 z" />
      <path
         inkscape:connector-curvature="0"
         id="path98"
         style="fill:#efc595;fill-opacity:1;fill-rule:nonzero;stroke:none"
         d="m 39.414,32.07 c -0.164,-0.57 0.512,-0.898 0.895,-0.629 0.379,0.27 1.304,0.918 1.277,1.27 -0.024,0.355 -0.211,1.195 -0.645,0.871 -0.437,-0.324 -1.414,-1.133 -1.527,-1.512 z" />
      <path
         inkscape:connector-curvature="0"
         id="path100"
         style="fill:#efc595;fill-opacity:1;fill-rule:nonzero;stroke:none"
         d="m 41.648,34.012 c -0.148,-0.492 0.239,-0.95 0.649,-0.707 0.406,0.242 1.656,1.16 1.683,1.511 0.032,0.352 -0.292,0.844 -0.699,0.762 -0.406,-0.078 -1.496,-1.105 -1.633,-1.566 z" />
      <path
         inkscape:connector-curvature="0"
         id="path102"
         style="fill:#efc595;fill-opacity:1;fill-rule:nonzero;stroke:none"
         d="m 43.961,35.984 c 0.051,-0.41 0.242,-0.625 0.703,-0.328 0.465,0.297 0.789,0.672 0.711,1.028 -0.082,0.351 -0.215,0.707 -0.566,0.461 -0.356,-0.243 -0.899,-0.727 -0.848,-1.161 z" />
      <path
         inkscape:connector-curvature="0"
         id="path104"
         style="fill:#efc595;fill-opacity:1;fill-rule:nonzero;stroke:none"
         d="m 45.594,37.66 c -0.164,-0.441 0.133,-0.734 0.57,-0.41 0.434,0.324 1.25,0.809 1.332,1.215 0.086,0.406 0.41,0.945 0.004,0.867 -0.406,-0.078 -1.711,-1.16 -1.906,-1.672 z" />
      <path
         inkscape:connector-curvature="0"
         id="path106"
         style="fill:#e2b180;fill-opacity:1;fill-rule:nonzero;stroke:none"
         d="m 44.523,34.219 c -0.425,-0.664 -0.304,-1.492 0.215,-0.871 0.516,0.625 1.582,2.109 1.418,2.328 -0.16,0.219 -1.441,-1.16 -1.633,-1.457 z" />
      <path
         inkscape:connector-curvature="0"
         id="path108"
         style="fill:#e2b180;fill-opacity:1;fill-rule:nonzero;stroke:none"
         d="m 42.996,32.488 c 0.328,0.215 0.84,-0.41 0.457,-0.894 -0.379,-0.489 -1.172,-1.434 -1.633,-1.676 -0.461,-0.242 -0.785,0.465 -0.785,0.734 0.004,0.274 1.418,1.567 1.774,1.813 z" />
      <path
         inkscape:connector-curvature="0"
         id="path110"
         style="fill:#e2b180;fill-opacity:1;fill-rule:nonzero;stroke:none"
         d="m 39.812,29.656 c 0.626,0.074 0.786,-0.41 0.786,-0.738 -0.004,-0.324 -1.282,-1.32 -1.797,-1.672 -0.52,-0.351 -0.867,0.109 -1.004,0.625 -0.133,0.52 1.582,1.731 2.015,1.785 z" />
      <path
         inkscape:connector-curvature="0"
         id="path112"
         style="fill:#e2b180;fill-opacity:1;fill-rule:nonzero;stroke:none"
         d="m 36.52,27.254 c 0.402,0.199 0.488,-0.543 0.457,-0.844 -0.028,-0.297 -1.305,-1.078 -1.875,-1.535 -0.575,-0.461 -1.278,-0.242 -1.329,0.141 -0.054,0.379 2.422,2.078 2.747,2.238 z" />
      <path
         inkscape:connector-curvature="0"
         id="path114"
         style="fill:#e2b180;fill-opacity:1;fill-rule:nonzero;stroke:none"
         d="m 32.711,24.18 c 0.41,0.054 0.785,-0.301 0.566,-0.735 -0.218,-0.433 -1.554,-1.757 -1.824,-2.027 -0.273,-0.27 -0.598,0.328 -0.703,0.492 -0.109,0.16 1.77,2.242 1.961,2.27 z" />
      <path
         inkscape:connector-curvature="0"
         id="path116"
         style="fill:#e2b180;fill-opacity:1;fill-rule:nonzero;stroke:none"
         d="m 30.148,21.316 c 0.375,0.122 0.707,-0.222 0.54,-0.546 -0.161,-0.325 -1.196,-1.458 -1.415,-1.731 -0.218,-0.269 -0.757,0.223 -0.839,0.465 -0.082,0.246 1.308,1.676 1.714,1.812 z" />
      <path
         inkscape:connector-curvature="0"
         id="path118"
         style="fill:#e2b180;fill-opacity:1;fill-rule:nonzero;stroke:none"
         d="m 27.781,18.965 c 0.379,0.105 0.676,-0.137 0.731,-0.356 0.05,-0.218 -1.364,-1.73 -1.879,-1.808 -0.516,-0.078 -0.676,0.41 -0.43,0.761 0.242,0.352 1.063,1.106 1.469,1.293 z" />
      <path
         inkscape:connector-curvature="0"
         id="path120"
         style="fill:#e2b180;fill-opacity:1;fill-rule:nonzero;stroke:none"
         d="m 22.625,16.273 c -0.047,-0.375 1.035,-0.472 1.645,-0.371 0.609,0.098 1.414,0.453 1.335,0.86 -0.082,0.406 -0.957,0.125 -1.585,-0.016 -0.633,-0.141 -1.356,-0.125 -1.395,-0.473 z" />
      <path
         inkscape:connector-curvature="0"
         id="path122"
         style="fill:#e2b180;fill-opacity:1;fill-rule:nonzero;stroke:none"
         d="m 19.93,16.395 c -0.035,-0.188 0.406,-0.489 0.91,-0.532 0.5,-0.047 1.406,-0.172 1.476,0.196 0.071,0.367 -0.691,0.343 -1.07,0.343 -0.379,0.004 -1.258,0.262 -1.316,-0.007 z" />
      <path
         inkscape:connector-curvature="0"
         id="path124"
         style="fill:#e2b180;fill-opacity:1;fill-rule:nonzero;stroke:none"
         d="m 18.062,16.754 c -0.042,-0.199 0.813,-0.438 1,-0.465 0.192,-0.027 0.477,0.149 0.356,0.242 -0.121,0.098 -0.652,0.196 -0.856,0.207 -0.203,0.016 -0.472,0.153 -0.5,0.016 z" />
      <path
         inkscape:connector-curvature="0"
         id="path126"
         style="fill:#dda873;fill-opacity:1;fill-rule:nonzero;stroke:none"
         d="m 19.121,15.457 c -0.101,-0.687 1.723,-1.738 2.574,-1.699 0.856,0.035 1.465,0.074 1.305,0.601 -0.16,0.532 -0.891,0.86 -1.621,0.946 -0.734,0.082 -2.215,0.433 -2.258,0.152 z" />
      <path
         inkscape:connector-curvature="0"
         id="path128"
         style="fill:#dda873;fill-opacity:1;fill-rule:nonzero;stroke:none"
         d="m 23.633,14.828 c -0.043,-0.398 0.344,-0.918 0.648,-0.816 0.305,0.097 2.219,0.66 2.203,1.047 -0.019,0.386 -0.082,0.773 -0.406,0.652 -0.324,-0.121 -2.402,-0.52 -2.445,-0.883 z" />
      <path
         inkscape:connector-curvature="0"
         id="path130"
         style="fill:#dda873;fill-opacity:1;fill-rule:nonzero;stroke:none"
         d="m 26.977,16.113 c -0.075,-0.301 0.3,-0.672 0.464,-0.551 0.164,0.122 2.102,1.641 2.121,1.864 0.024,0.222 -0.261,0.551 -0.546,0.429 -0.286,-0.121 -1.977,-1.476 -2.039,-1.742 z" />
      <path
         inkscape:connector-curvature="0"
         id="path132"
         style="fill:#dda873;fill-opacity:1;fill-rule:nonzero;stroke:none"
         d="m 30.098,19.012 c -0.094,-0.25 0.468,-0.352 0.632,-0.188 0.165,0.164 1.348,1.215 1.305,1.5 -0.039,0.285 -0.422,0.672 -0.566,0.492 -0.141,-0.183 -1.266,-1.543 -1.371,-1.804 z" />
      <path
         inkscape:connector-curvature="0"
         id="path134"
         style="fill:#dda873;fill-opacity:1;fill-rule:nonzero;stroke:none"
         d="m 32.633,21.93 c -0.215,-0.356 0.101,-0.512 0.305,-0.348 0.203,0.16 1.468,1.375 1.675,1.578 0.203,0.203 -0.183,0.43 -0.406,0.207 -0.227,-0.222 -1.449,-1.234 -1.574,-1.437 z" />
      <path
         inkscape:connector-curvature="0"
         id="path136"
         style="fill:#dda873;fill-opacity:1;fill-rule:nonzero;stroke:none"
         d="m 35.348,24.215 c -0.039,-0.149 0.265,-0.43 0.406,-0.285 0.144,0.14 2.101,1.312 2.141,1.515 0.043,0.203 -0.079,0.45 -0.446,0.203 -0.367,-0.242 -2.039,-1.21 -2.101,-1.433 z" />
      <path
         inkscape:connector-curvature="0"
         id="path138"
         style="fill:#dda873;fill-opacity:1;fill-rule:nonzero;stroke:none"
         d="m 38.777,26.562 c -0.074,-0.214 0.121,-0.285 0.325,-0.246 0.199,0.039 1.425,0.805 1.527,1.032 0.101,0.222 0.269,0.711 -0.016,0.59 -0.285,-0.122 -1.777,-1.196 -1.836,-1.376 z" />
      <path
         inkscape:connector-curvature="0"
         id="path140"
         style="fill:#dda873;fill-opacity:1;fill-rule:nonzero;stroke:none"
         d="m 41.285,28.562 c -0.101,-0.179 0.121,-0.445 0.367,-0.324 0.243,0.121 1.344,1.172 1.387,1.418 0.043,0.242 -0.016,0.465 -0.223,0.305 -0.203,-0.16 -1.429,-1.215 -1.531,-1.399 z" />
      <path
         inkscape:connector-curvature="0"
         id="path142"
         style="fill:#e2b180;fill-opacity:1;fill-rule:nonzero;stroke:none"
         d="m 40.586,46.141 c -0.227,-0.387 0.203,-0.489 0.508,-0.348 0.304,0.141 2.136,0.824 1.933,0.988 -0.199,0.164 -2.215,-0.254 -2.441,-0.64 z" />
      <path
         inkscape:connector-curvature="0"
         id="path144"
         style="fill:#e2b180;fill-opacity:1;fill-rule:nonzero;stroke:none"
         d="m 39.324,45.699 c 0.328,0.11 0.711,-0.39 0.446,-0.734 -0.27,-0.344 -1.227,-1.379 -1.84,-1.621 -0.61,-0.242 -1.567,-0.621 -1.282,0.027 0.29,0.649 2.309,2.207 2.676,2.328 z" />
      <path
         inkscape:connector-curvature="0"
         id="path146"
         style="fill:#e2b180;fill-opacity:1;fill-rule:nonzero;stroke:none"
         d="m 36.441,42.559 c 0.36,0.226 1.082,0.339 0.977,0.035 -0.102,-0.305 -0.512,-1.399 -0.984,-1.5 -0.465,-0.102 -0.34,1.242 0.007,1.465 z" />
      <path
         inkscape:connector-curvature="0"
         id="path148"
         style="fill:#e2b180;fill-opacity:1;fill-rule:nonzero;stroke:none"
         d="m 35.359,41.484 c 0.329,0.25 0.813,-0.777 0.383,-1.406 -0.433,-0.629 -1.41,-1.273 -1.656,-1.152 -0.242,0.125 0.926,2.297 1.273,2.558 z" />
      <path
         inkscape:connector-curvature="0"
         id="path150"
         style="fill:#e2b180;fill-opacity:1;fill-rule:nonzero;stroke:none"
         d="m 33.699,38.461 c 0.297,0.23 0.852,-0.207 0.567,-0.492 -0.286,-0.281 -1.961,-1.985 -2.02,-1.84 -0.062,0.141 1.066,2.027 1.453,2.332 z" />
      <path
         inkscape:connector-curvature="0"
         id="path152"
         style="fill:#e2b180;fill-opacity:1;fill-rule:nonzero;stroke:none"
         d="m 18.164,24.672 c -0.027,-0.344 0.793,0.383 1.223,1.137 0.429,0.75 0.476,1.886 0.133,2.074 -0.348,0.183 -1.313,-2.598 -1.356,-3.211 z" />
      <path
         inkscape:connector-curvature="0"
         id="path154"
         style="fill:#e2b180;fill-opacity:1;fill-rule:nonzero;stroke:none"
         d="m 19.949,29.039 c -0.094,-0.332 0.301,-1.484 0.75,-1.164 0.449,0.324 1.633,1.746 1.492,2.051 -0.14,0.304 -0.586,0.918 -0.91,0.797 -0.328,-0.121 -1.25,-1.399 -1.332,-1.684 z" />
      <path
         inkscape:connector-curvature="0"
         id="path156"
         style="fill:#e2b180;fill-opacity:1;fill-rule:nonzero;stroke:none"
         d="m 22.543,31.57 c -0.125,-0.269 0.465,-0.875 0.832,-0.715 0.367,0.161 1.836,1.172 1.879,1.418 0.039,0.243 -0.527,0.532 -0.856,0.411 -0.324,-0.122 -1.71,-0.809 -1.855,-1.114 z" />
      <path
         inkscape:connector-curvature="0"
         id="path158"
         style="fill:#e2b180;fill-opacity:1;fill-rule:nonzero;stroke:none"
         d="m 25.906,33.246 c -0.281,-0.121 0.223,-0.633 0.465,-0.512 0.246,0.121 2.285,1.09 2.121,1.254 -0.16,0.16 -2.156,-0.562 -2.586,-0.742 z" />
    </g>
  </g>
</svg>
