<?xml version="1.0" encoding="UTF-8" standalone="no"?>
<svg
   xmlns:dc="http://purl.org/dc/elements/1.1/"
   xmlns:cc="http://creativecommons.org/ns#"
   xmlns:rdf="http://www.w3.org/1999/02/22-rdf-syntax-ns#"
   xmlns:svg="http://www.w3.org/2000/svg"
   xmlns="http://www.w3.org/2000/svg"
   xmlns:sodipodi="http://sodipodi.sourceforge.net/DTD/sodipodi-0.dtd"
   xmlns:inkscape="http://www.inkscape.org/namespaces/inkscape"
   inkscape:version="1.0beta1 (32d4812, 2019-09-19)"
   sodipodi:docname="food-cheese.svg"
   viewBox="0 0 85.333336 85.333336"
   height="85.333336"
   width="85.333336"
   xml:space="preserve"
   id="svg10"
   version="1.1">
  <metadata
     id="metadata16">
    <rdf:RDF>
      <cc:Work
         rdf:about="">
        <dc:format>image/svg+xml</dc:format>
        <dc:type
           rdf:resource="http://purl.org/dc/dcmitype/StillImage" />
        <dc:title></dc:title>
      </cc:Work>
    </rdf:RDF>
  </metadata>
  <defs
     id="defs14" />
  <sodipodi:namedview
     inkscape:current-layer="svg10"
     inkscape:window-maximized="0"
     inkscape:window-y="23"
     inkscape:window-x="0"
     inkscape:cy="560"
     inkscape:cx="400"
     inkscape:zoom="0.35"
     showgrid="false"
     id="namedview12"
     inkscape:window-height="799"
     inkscape:window-width="1440"
     inkscape:pageshadow="2"
     inkscape:pageopacity="0"
     guidetolerance="10"
     gridtolerance="10"
     objecttolerance="10"
     borderopacity="1"
     inkscape:document-rotation="0"
     bordercolor="#666666"
     pagecolor="#ffffff" />
  <g
     transform="matrix(1.3333333,0,0,-1.3333333,0,85.333333)"
     inkscape:label="food-cheese"
     inkscape:groupmode="layer"
     id="g18">
    <g
       id="g20">
      <path
         inkscape:connector-curvature="0"
         id="path22"
         style="fill:#4d7893;fill-opacity:1;fill-rule:nonzero;stroke:none"
         d="M 62.828,32.109 C 62.828,15.141 49.074,1.387 32.109,1.387 15.141,1.387 1.387,15.141 1.387,32.109 c 0,16.965 13.754,30.719 30.722,30.719 16.965,0 30.719,-13.754 30.719,-30.719 z" />
      <path
         inkscape:connector-curvature="0"
         id="path24"
         style="fill:#3e6375;fill-opacity:1;fill-rule:nonzero;stroke:none"
         d="m 34.371,1.48 c 12.703,0.926 23.262,9.571 27.004,21.274 L 50.008,34.117 38.398,33.586 18.062,17.785 Z" />
      <path
         inkscape:connector-curvature="0"
         id="path26"
         style="fill:#ead478;fill-opacity:1;fill-rule:nonzero;stroke:none"
         d="m 18.422,35.387 c -0.809,-1.239 -1.684,-16.621 -0.645,-17.539 1.047,-0.922 30.278,0.687 31.711,1.343 1.434,0.657 1.844,14.008 0.539,14.926 -1.304,0.922 -30.629,2.758 -31.605,1.27 z" />
      <path
         inkscape:connector-curvature="0"
         id="path28"
         style="fill:#ddc45b;fill-opacity:1;fill-rule:nonzero;stroke:none"
         d="m 28.184,44.406 c -4.164,-1.754 -7.743,-5.605 -8.84,-7.004 -0.66,-0.84 -1.086,-1.605 -0.985,-2.23 0.172,-1.106 31.407,-1.711 31.801,-1.098 0.395,0.614 -10.769,5.867 -13.308,7.09 -2.54,1.227 -7.004,3.941 -8.668,3.242 z" />
      <path
         inkscape:connector-curvature="0"
         id="path30"
         style="fill:#fcedb1;fill-opacity:1;fill-rule:nonzero;stroke:none"
         d="m 36.273,30.855 c 1.165,0.008 2.106,-0.667 2.11,-1.5 0.004,-0.835 -0.934,-1.515 -2.094,-1.519 -1.16,-0.004 -2.105,0.668 -2.109,1.504 -0.004,0.832 0.933,1.512 2.093,1.515 z" />
      <path
         inkscape:connector-curvature="0"
         id="path32"
         style="fill:#fcedb1;fill-opacity:1;fill-rule:nonzero;stroke:none"
         d="m 26.301,22.293 c 0.004,-0.992 -0.817,-1.805 -1.832,-1.809 -1.012,-0.004 -1.84,0.801 -1.844,1.797 -0.004,0.996 0.816,1.809 1.832,1.809 1.016,0.008 1.84,-0.797 1.844,-1.797 z" />
      <path
         inkscape:connector-curvature="0"
         id="path34"
         style="fill:#fcedb1;fill-opacity:1;fill-rule:nonzero;stroke:none"
         d="m 27.242,29.789 c -0.219,-1.156 -1.523,-1.883 -2.914,-1.621 -1.387,0.266 -2.336,1.414 -2.113,2.574 0.219,1.16 1.519,1.887 2.91,1.621 1.387,-0.261 2.336,-1.414 2.117,-2.574 z" />
      <path
         inkscape:connector-curvature="0"
         id="path36"
         style="fill:#fcedb1;fill-opacity:1;fill-rule:nonzero;stroke:none"
         d="m 31.555,26.523 c 0,-0.398 -0.383,-0.722 -0.852,-0.722 -0.473,0 -0.855,0.324 -0.855,0.722 0,0.399 0.382,0.723 0.855,0.723 0.469,0 0.852,-0.324 0.852,-0.723 z" />
      <path
         inkscape:connector-curvature="0"
         id="path38"
         style="fill:#fcedb1;fill-opacity:1;fill-rule:nonzero;stroke:none"
         d="m 46.789,21.535 c 0,-0.617 -0.5,-1.117 -1.117,-1.117 -0.617,0 -1.117,0.5 -1.117,1.117 0,0.613 0.5,1.113 1.117,1.113 0.617,0 1.117,-0.5 1.117,-1.113 z" />
      <path
         inkscape:connector-curvature="0"
         id="path40"
         style="fill:#fcedb1;fill-opacity:1;fill-rule:nonzero;stroke:none"
         d="m 37.07,22.781 c 0,-0.433 -0.41,-0.789 -0.918,-0.789 -0.507,0 -0.918,0.356 -0.918,0.789 0,0.434 0.411,0.789 0.918,0.789 0.508,0 0.918,-0.355 0.918,-0.789 z" />
      <path
         inkscape:connector-curvature="0"
         id="path42"
         style="fill:#fcedb1;fill-opacity:1;fill-rule:nonzero;stroke:none"
         d="m 44.426,26.59 c 0,-0.918 -0.824,-1.664 -1.84,-1.664 -1.016,0 -1.84,0.746 -1.84,1.664 0,0.918 0.824,1.664 1.84,1.664 1.016,0 1.84,-0.746 1.84,-1.664 z" />
    </g>
  </g>
</svg>
