<?xml version="1.0" encoding="UTF-8" standalone="no"?>
<svg
   xmlns:dc="http://purl.org/dc/elements/1.1/"
   xmlns:cc="http://creativecommons.org/ns#"
   xmlns:rdf="http://www.w3.org/1999/02/22-rdf-syntax-ns#"
   xmlns:svg="http://www.w3.org/2000/svg"
   xmlns="http://www.w3.org/2000/svg"
   xmlns:sodipodi="http://sodipodi.sourceforge.net/DTD/sodipodi-0.dtd"
   xmlns:inkscape="http://www.inkscape.org/namespaces/inkscape"
   inkscape:version="1.0beta1 (32d4812, 2019-09-19)"
   sodipodi:docname="food-vegetables.svg"
   viewBox="0 0 85.333336 85.333336"
   height="85.333336"
   width="85.333336"
   xml:space="preserve"
   id="svg10"
   version="1.1">
  <metadata
     id="metadata16">
    <rdf:RDF>
      <cc:Work
         rdf:about="">
        <dc:format>image/svg+xml</dc:format>
        <dc:type
           rdf:resource="http://purl.org/dc/dcmitype/StillImage" />
        <dc:title></dc:title>
      </cc:Work>
    </rdf:RDF>
  </metadata>
  <defs
     id="defs14" />
  <sodipodi:namedview
     inkscape:current-layer="svg10"
     inkscape:window-maximized="0"
     inkscape:window-y="23"
     inkscape:window-x="0"
     inkscape:cy="560"
     inkscape:cx="400"
     inkscape:zoom="0.35"
     showgrid="false"
     id="namedview12"
     inkscape:window-height="799"
     inkscape:window-width="1440"
     inkscape:pageshadow="2"
     inkscape:pageopacity="0"
     guidetolerance="10"
     gridtolerance="10"
     objecttolerance="10"
     borderopacity="1"
     inkscape:document-rotation="0"
     bordercolor="#666666"
     pagecolor="#ffffff" />
  <g
     transform="matrix(1.3333333,0,0,-1.3333333,0,85.333333)"
     inkscape:label="food-vegetables"
     inkscape:groupmode="layer"
     id="g18">
    <g
       id="g20">
      <path
         inkscape:connector-curvature="0"
         id="path22"
         style="fill:#a1c658;fill-opacity:1;fill-rule:nonzero;stroke:none"
         d="M 62.828,31.242 C 62.828,14.273 49.074,0.52 32.109,0.52 15.141,0.52 1.387,14.273 1.387,31.242 c 0,16.965 13.754,30.719 30.722,30.719 16.965,0 30.719,-13.754 30.719,-30.719 z" />
      <path
         inkscape:connector-curvature="0"
         id="path24"
         style="fill:#8aa54a;fill-opacity:1;fill-rule:nonzero;stroke:none"
         d="M 62.211,25.094 53.152,34.156 42.332,29.707 16.547,27.293 12.113,25.488 36.734,0.867 c 12.75,1.926 22.93,11.692 25.477,24.227 z" />
      <path
         inkscape:connector-curvature="0"
         id="path26"
         style="fill:#e6e6e6;fill-opacity:1;fill-rule:nonzero;stroke:none"
         d="m 55.102,30.199 c 0,-5.902 -10.231,-10.683 -22.852,-10.683 -12.621,0 -22.852,4.781 -22.852,10.683 0,5.903 10.231,10.688 22.852,10.688 12.621,0 22.852,-4.785 22.852,-10.688 z" />
      <path
         inkscape:connector-curvature="0"
         id="path28"
         style="fill:#adc423;fill-opacity:1;fill-rule:nonzero;stroke:none"
         d="M 33.875,41.324 C 33.039,42.16 32.316,41.867 31,41.207 c -1.316,-0.66 -4.793,-0.957 -4.074,-2.035 0.722,-1.078 0.722,-1.86 1.679,-2.219 0.957,-0.359 2.993,0.18 4.133,0.781 1.137,0.598 1.676,0.539 2.274,1.555 0.597,1.02 -0.84,1.738 -1.137,2.035 z" />
      <path
         inkscape:connector-curvature="0"
         id="path30"
         style="fill:#afbe00;fill-opacity:1;fill-rule:nonzero;stroke:none"
         d="m 34.277,37.82 c -1.472,-0.347 -3.433,1.836 -3.668,0.746 -0.23,-1.093 0.219,-2.574 -0.66,-3.882 -0.879,-1.309 -2.101,-2.418 -0.734,-3.204 1.367,-0.781 1.883,-2.054 3,-0.546 1.117,1.507 2.57,3.355 3.078,4.039 0.508,0.687 0.109,3.109 -1.016,2.847 z" />
      <path
         inkscape:connector-curvature="0"
         id="path32"
         style="fill:#586900;fill-opacity:1;fill-rule:nonzero;stroke:none"
         d="m 16.117,38.422 c -1.156,-1.617 -1.976,-2.606 -1.074,-3.414 0.895,-0.809 3.769,-3.324 3.769,-3.324 0,0 2.426,0.421 2.696,1.796 0.269,1.379 -2.696,4.133 -3.594,4.852 -0.898,0.719 -1.348,0.719 -1.797,0.09 z" />
      <path
         inkscape:connector-curvature="0"
         id="path34"
         style="fill:#7c9900;fill-opacity:1;fill-rule:nonzero;stroke:none"
         d="m 13.695,33.121 c -0.078,-1.348 1.524,-3.234 3.321,-3.953 1.796,-0.715 2.964,0.719 3.054,1.617 0.09,0.899 -1.347,2.156 -2.066,3.324 -0.719,1.168 -4.223,0.629 -4.309,-0.988 z" />
      <path
         inkscape:connector-curvature="0"
         id="path36"
         style="fill:#95a500;fill-opacity:1;fill-rule:nonzero;stroke:none"
         d="m 18.801,26.355 c 1.207,-1.246 3.941,-1.812 3.941,-1.812 l 0.746,1.648 c 0,0 1.067,-0.054 2.879,0.387 1.809,0.438 2.692,0.875 1.52,2.414 -1.172,1.535 -3.973,3.738 -5.356,2.309 -1.386,-1.43 -4.797,-3.844 -3.73,-4.946 z" />
      <path
         inkscape:connector-curvature="0"
         id="path38"
         style="fill:#7c9900;fill-opacity:1;fill-rule:nonzero;stroke:none"
         d="m 29.414,26.863 c 0.156,2.133 3.266,3.543 5.035,3.649 1.774,0.105 4.387,0 4.574,-0.731 0.188,-0.73 -0.558,-1.98 -2.054,-2.293 -1.492,-0.312 -4.106,-1.254 -5.129,-1.879 -1.028,-0.625 -2.52,0 -2.426,1.254 z" />
      <path
         inkscape:connector-curvature="0"
         id="path40"
         style="fill:#586900;fill-opacity:1;fill-rule:nonzero;stroke:none"
         d="m 42.527,28.359 c 1.078,-1.347 1.258,-2.332 3.055,-1.793 1.797,0.536 3.684,0.989 1.977,2.243 -1.707,1.257 -3.055,1.527 -4.223,1.347 -1.168,-0.179 -0.809,-1.797 -0.809,-1.797 z" />
      <path
         inkscape:connector-curvature="0"
         id="path42"
         style="fill:#7c9900;fill-opacity:1;fill-rule:nonzero;stroke:none"
         d="m 49.266,29.258 c 1.078,0.629 2.332,1.707 0.894,2.965 -1.433,1.257 -2.691,0.539 -4.039,-0.09 -1.348,-0.629 -2.066,-1.977 -1.168,-2.695 0.899,-0.719 4.313,-0.18 4.313,-0.18 z" />
      <path
         inkscape:connector-curvature="0"
         id="path44"
         style="fill:#95a500;fill-opacity:1;fill-rule:nonzero;stroke:none"
         d="m 47.453,36.582 c 0.723,1.074 1.859,1.563 0.207,2.344 -1.656,0.781 -3.101,0.586 -3.824,-0.781 -0.727,-1.368 -1.137,-1.661 -0.106,-3.418 1.036,-1.758 1.551,-3.122 2.895,-3.223 1.344,-0.094 3.102,0.879 2.996,2.148 -0.101,1.27 -2.168,2.93 -2.168,2.93 z" />
      <path
         inkscape:connector-curvature="0"
         id="path46"
         style="fill:#7c9900;fill-opacity:1;fill-rule:nonzero;stroke:none"
         d="m 32.977,38.812 c -1.309,0.129 -1.618,-0.691 -2.754,-1.289 -1.141,-0.597 -1.797,-1.289 -1.68,-2.187 0.121,-0.898 0.719,-2.094 0.719,-2.094 0,0 0.961,1.196 2.097,1.438 1.137,0.238 2.633,1.015 3.293,1.855 0.66,0.84 -1.078,2.215 -1.675,2.277 z" />
      <path
         inkscape:connector-curvature="0"
         id="path48"
         style="fill:#adc423;fill-opacity:1;fill-rule:nonzero;stroke:none"
         d="m 26,35.457 c -0.227,-1.129 -0.777,-2.184 -0.898,-2.965 -0.122,-0.777 -1.227,-2.246 -1.946,-1.586 -0.718,0.66 -1.859,1.496 -1.797,2.278 0.059,0.777 0.477,2.691 1.196,3.351 0.718,0.66 0.554,1.633 1.152,1.93 0.602,0.301 3.281,0.168 2.981,-0.551 C 26.387,37.195 26.117,36.055 26,35.457 Z" />
      <path
         inkscape:connector-curvature="0"
         id="path50"
         style="fill:#adc423;fill-opacity:1;fill-rule:nonzero;stroke:none"
         d="m 39.844,31.598 c 1.468,1.011 3.273,2.312 2.148,3.082 -1.125,0.769 -2.926,3.191 -4.972,1.136 -2.047,-2.054 -1.68,-3.961 -1.168,-4.816 0.511,-0.859 2.25,-0.602 3.992,0.598 z" />
      <path
         inkscape:connector-curvature="0"
         id="path52"
         style="fill:#95a500;fill-opacity:1;fill-rule:nonzero;stroke:none"
         d="m 32.527,40.801 c 0.36,1.32 0.778,2.457 -0.718,1.797 -1.497,-0.657 -1.137,-1.078 -3.055,-1.375 -1.918,-0.301 -3.895,-1.02 -3.176,-1.618 0.723,-0.601 1.977,-0.781 2.336,-1.378 0.359,-0.598 0.813,-0.383 2.008,0.035 1.199,0.422 2.164,1.117 2.164,1.117 z" />
      <path
         inkscape:connector-curvature="0"
         id="path54"
         style="fill:#7c9900;fill-opacity:1;fill-rule:nonzero;stroke:none"
         d="m 25.184,40.938 c -1.262,-0.122 -1.723,1.601 -2.758,0.437 -1.035,-1.168 -1.106,-2.406 -0.141,-2.918 0.969,-0.508 2.899,-1.457 3.52,-1.602 0.621,-0.144 1.726,-0.656 2.277,-0.144 0.551,0.508 -0.07,3.277 -0.894,3.789 -0.833,0.508 -1.247,0.508 -2.004,0.438 z" />
      <path
         inkscape:connector-curvature="0"
         id="path56"
         style="fill:#95a500;fill-opacity:1;fill-rule:nonzero;stroke:none"
         d="m 36.508,38.812 c -0.86,-0.957 -1.258,-1.617 0,-2.578 1.258,-0.957 2.515,-1.375 3.414,-1.136 0.898,0.238 2.156,0.539 2.816,0.898 0.657,0.359 0.477,0.359 0.18,1.617 -0.301,1.258 -1.141,2.395 -2.457,2.637 -1.316,0.238 -3.414,-0.84 -3.953,-1.438 z" />
      <path
         inkscape:connector-curvature="0"
         id="path58"
         style="fill:#afbe00;fill-opacity:1;fill-rule:nonzero;stroke:none"
         d="m 40.121,39.516 c 1.078,0.074 2.094,0.422 1.555,1.199 -0.539,0.777 -0.539,1.019 -2.332,0.84 -1.797,-0.18 -3.176,-0.539 -3.715,-1.2 -0.539,-0.66 -0.359,-1.976 0.48,-2.035 0.836,-0.058 3.114,1.137 4.012,1.196 z" />
      <path
         inkscape:connector-curvature="0"
         id="path60"
         style="fill:#95a500;fill-opacity:1;fill-rule:nonzero;stroke:none"
         d="m 29.234,35.547 c 1.457,0.617 0.903,2.437 -1.496,2.055 -2.402,-0.379 -4.953,-1.372 -3.527,-2.817 1.426,-1.445 2.398,-3.73 3.375,-2.816 0.976,0.914 0.75,3.195 1.648,3.578 z" />
      <path
         inkscape:connector-curvature="0"
         id="path62"
         style="fill:#586900;fill-opacity:1;fill-rule:nonzero;stroke:none"
         d="m 40.043,30.246 c -0.742,-2.117 2.395,-1.973 3.531,-1.316 1.141,0.66 2.817,1.078 2.336,2.156 -0.48,1.078 -0.18,2.094 -2.035,1.559 -1.855,-0.54 -3.414,-1.2 -3.832,-2.399 z" />
      <path
         inkscape:connector-curvature="0"
         id="path64"
         style="fill:#7c9900;fill-opacity:1;fill-rule:nonzero;stroke:none"
         d="m 40.539,36.359 c -0.75,-1.312 -0.055,-4.668 1.051,-4.734 1.105,-0.063 3.738,0.512 3.84,2.305 0.109,1.793 -2.368,3.84 -3.629,3.136 -1.262,-0.707 -0.789,0.125 -1.262,-0.707 z" />
      <path
         inkscape:connector-curvature="0"
         id="path66"
         style="fill:#586900;fill-opacity:1;fill-rule:nonzero;stroke:none"
         d="m 35.133,41.324 c -1.02,-1.074 -2.516,-4.308 -0.899,-4.551 1.618,-0.238 3.114,0.063 3.891,1.618 0.781,1.558 -0.895,1.679 -0.539,2.695 0.359,1.019 -0.117,2.394 -1.555,1.918 -1.437,-0.481 -0.898,-1.68 -0.898,-1.68 z" />
      <path
         inkscape:connector-curvature="0"
         id="path68"
         style="fill:#586900;fill-opacity:1;fill-rule:nonzero;stroke:none"
         d="m 23.891,26.656 c -0.481,-0.32 -1.707,-1.215 -0.45,-1.527 1.254,-0.317 4.668,-1.168 5.387,-1.168 0.719,0 1.977,0.18 1.754,1.121 -0.227,0.945 -0.27,2.875 -1.348,2.652 -1.078,-0.226 -3.324,0.493 -3.953,-0.089 -0.629,-0.586 -1.125,-0.809 -1.39,-0.989 z" />
      <path
         inkscape:connector-curvature="0"
         id="path70"
         style="fill:#afbe00;fill-opacity:1;fill-rule:nonzero;stroke:none"
         d="m 29.727,24.812 c 0.257,-0.742 0.988,-1.078 2.605,-0.808 1.617,0.269 5.164,0.406 5.973,0.539 0.808,0.137 2.019,0.227 1.976,0.988 -0.043,0.766 -0.449,1.258 -1.57,1.617 -1.125,0.36 -0.856,1.707 -2.113,1.305 -1.258,-0.406 -2.426,-0.496 -3.41,-0.855 -0.989,-0.36 -3.821,-1.754 -3.461,-2.786 z" />
      <path
         inkscape:connector-curvature="0"
         id="path72"
         style="fill:#7c9900;fill-opacity:1;fill-rule:nonzero;stroke:none"
         d="m 40.594,29.977 c -1.289,0.089 -4.668,-2.188 -3.649,-3.344 1.02,-1.156 2.95,-2.121 4.399,-1.801 1.449,0.32 3.543,1.543 3.058,2.574 -0.484,1.028 -2.898,2.508 -3.808,2.571 z" />
      <path
         inkscape:connector-curvature="0"
         id="path74"
         style="fill:#586900;fill-opacity:1;fill-rule:nonzero;stroke:none"
         d="m 22.883,31.027 c 0.238,-0.691 -0.051,-2.078 0.769,-2.648 0.817,-0.574 2.508,0.984 3.121,1.453 0.614,0.469 0.922,2.234 0.309,3.223 -0.617,0.988 -5.531,1.82 -4.199,-2.028 z" />
      <path
         inkscape:connector-curvature="0"
         id="path76"
         style="fill:#586900;fill-opacity:1;fill-rule:nonzero;stroke:none"
         d="m 16.523,30.066 c -0.726,-0.855 0.403,-2.421 1.481,-2.695 1.078,-0.269 2.558,-0.445 3.012,0.09 0.449,0.543 0.402,2.785 0.269,3.324 -0.137,0.539 -4.269,-0.133 -4.762,-0.719 z" />
      <path
         inkscape:connector-curvature="0"
         id="path78"
         style="fill:#95a500;fill-opacity:1;fill-rule:nonzero;stroke:none"
         d="m 18.949,38.129 c 0.184,-1.434 -0.316,-3.777 0.899,-4.125 1.211,-0.348 2.695,0.058 3.097,0.699 0.407,0.637 0.852,3.485 0.27,4.473 -0.582,0.988 -1.887,1.105 -3.008,0.988 -1.125,-0.113 -1.395,-0.988 -1.258,-2.035 z" />
      <path
         inkscape:connector-curvature="0"
         id="path80"
         style="fill:#afbe00;fill-opacity:1;fill-rule:nonzero;stroke:none"
         d="m 22.676,30.965 c 0.789,0.644 1.136,2.219 0.179,2.816 -0.957,0.598 -1.675,0.539 -2.636,-0.121 -0.957,-0.66 -2.574,-2.035 -1.856,-2.992 0.719,-0.961 1.258,-2.277 2.278,-1.738 1.019,0.539 1.375,1.496 2.035,2.035 z" />
      <path
         inkscape:connector-curvature="0"
         id="path82"
         style="fill:#7c9900;fill-opacity:1;fill-rule:nonzero;stroke:none"
         d="m 25.91,30.875 c 0.106,-1.426 1.84,-1.57 2.246,-1.254 0.403,0.313 2.379,2.738 2.649,3.32 0.269,0.586 -0.18,2.024 -1.032,2.024 -0.855,0 -2.605,0.223 -3.011,-0.496 C 26.359,33.75 25.82,32.09 25.91,30.875 Z" />
      <path
         inkscape:connector-curvature="0"
         id="path84"
         style="fill:#afbe00;fill-opacity:1;fill-rule:nonzero;stroke:none"
         d="m 36.809,37.133 c -1.016,-0.145 -2.696,1.379 -2.813,-0.059 -0.121,-1.437 -0.121,-3.773 1.074,-3.894 1.2,-0.118 2.219,0.722 2.696,1.14 0.48,0.418 -0.118,2.934 -0.957,2.813 z" />
      <path
         inkscape:connector-curvature="0"
         id="path86"
         style="fill:#586900;fill-opacity:1;fill-rule:nonzero;stroke:none"
         d="m 34.957,34.539 c -1.129,-0.746 -3.766,-0.898 -2.32,-2.277 1.441,-1.383 1.945,-3.106 3.265,-2.555 1.317,0.555 2.508,0.898 2.071,2.484 -0.442,1.59 -2.071,2.969 -3.016,2.348 z" />
      <path
         inkscape:connector-curvature="0"
         id="path88"
         style="fill:#afbe00;fill-opacity:1;fill-rule:nonzero;stroke:none"
         d="m 30.066,29.293 c -0.55,-1.402 1.204,-1.922 2.258,-1.102 1.051,0.821 2.563,3.118 2.438,3.786 -0.125,0.668 -3.008,0.375 -3.551,-0.274 -0.543,-0.652 -1.016,-2.086 -1.145,-2.41 z" />
      <path
         inkscape:connector-curvature="0"
         id="path90"
         style="fill:#7c9900;fill-opacity:1;fill-rule:nonzero;stroke:none"
         d="m 26.691,28.852 c -0.507,-0.817 0.629,-2.52 1.473,-2.465 0.84,0.051 2.524,1.929 3.102,2.57 0.578,0.645 0.05,3.219 -0.895,2.949 -0.945,-0.269 -3.312,-2.465 -3.68,-3.054 z" />
      <path
         inkscape:connector-curvature="0"
         id="path92"
         style="fill:#95a500;fill-opacity:1;fill-rule:nonzero;stroke:none"
         d="m 37.539,31.047 c -1.613,-0.699 0.672,-3.699 1.449,-3.649 0.778,0.051 2.227,1.696 2.742,2.313 0.52,0.617 1.036,3.391 -0.101,3.184 -1.137,-0.204 -3.262,-1.489 -4.09,-1.848 z" />
    </g>
  </g>
</svg>
