<?xml version="1.0" encoding="UTF-8" standalone="no"?>
<svg
   xmlns:dc="http://purl.org/dc/elements/1.1/"
   xmlns:cc="http://creativecommons.org/ns#"
   xmlns:rdf="http://www.w3.org/1999/02/22-rdf-syntax-ns#"
   xmlns:svg="http://www.w3.org/2000/svg"
   xmlns="http://www.w3.org/2000/svg"
   xmlns:sodipodi="http://sodipodi.sourceforge.net/DTD/sodipodi-0.dtd"
   xmlns:inkscape="http://www.inkscape.org/namespaces/inkscape"
   inkscape:version="1.0beta1 (32d4812, 2019-09-19)"
   sodipodi:docname="food-pancake.svg"
   viewBox="0 0 85.333336 85.333336"
   height="85.333336"
   width="85.333336"
   xml:space="preserve"
   id="svg10"
   version="1.1">
  <metadata
     id="metadata16">
    <rdf:RDF>
      <cc:Work
         rdf:about="">
        <dc:format>image/svg+xml</dc:format>
        <dc:type
           rdf:resource="http://purl.org/dc/dcmitype/StillImage" />
        <dc:title></dc:title>
      </cc:Work>
    </rdf:RDF>
  </metadata>
  <defs
     id="defs14" />
  <sodipodi:namedview
     inkscape:current-layer="svg10"
     inkscape:window-maximized="0"
     inkscape:window-y="23"
     inkscape:window-x="0"
     inkscape:cy="560"
     inkscape:cx="400"
     inkscape:zoom="0.35"
     showgrid="false"
     id="namedview12"
     inkscape:window-height="799"
     inkscape:window-width="1440"
     inkscape:pageshadow="2"
     inkscape:pageopacity="0"
     guidetolerance="10"
     gridtolerance="10"
     objecttolerance="10"
     borderopacity="1"
     inkscape:document-rotation="0"
     bordercolor="#666666"
     pagecolor="#ffffff" />
  <g
     transform="matrix(1.3333333,0,0,-1.3333333,0,85.333333)"
     inkscape:label="food-pancake"
     inkscape:groupmode="layer"
     id="g18">
    <g
       id="g20">
      <path
         inkscape:connector-curvature="0"
         id="path22"
         style="fill:#cbd5de;fill-opacity:1;fill-rule:nonzero;stroke:none"
         d="m 23.004,54.254 c -0.203,0 -0.41,0 -0.606,-0.016" />
      <path
         inkscape:connector-curvature="0"
         id="path24"
         style="fill:#cbd5de;fill-opacity:1;fill-rule:nonzero;stroke:none"
         d="m 15.852,45.465 c 0.617,-0.352 1.613,-0.649 3.191,-0.649 1.336,0 2.684,0.215 3.578,0.368" />
      <path
         inkscape:connector-curvature="0"
         id="path26"
         style="fill:#cbd5de;fill-opacity:1;fill-rule:nonzero;stroke:none"
         d="m 27.68,45.516 c 0.746,0 1.238,-0.016 1.269,-0.016 0.211,-0.016 0.426,-0.023 0.637,-0.023 0.023,0 0.051,0 0.074,0" />
      <path
         inkscape:connector-curvature="0"
         id="path28"
         style="fill:#cbd5de;fill-opacity:1;fill-rule:nonzero;stroke:none"
         d="m 28.703,53.348 c 0.578,-0.313 1.356,-0.965 1.813,-1.68" />
      <path
         inkscape:connector-curvature="0"
         id="path30"
         style="fill:#cbd5de;fill-opacity:1;fill-rule:nonzero;stroke:none"
         d="M 64,33.129 63.996,29.641 C 63.98,22.066 60.883,14.508 54.703,8.738 42.234,-2.902 21.977,-2.91 9.445,8.715 3.137,14.562 -0.016,22.234 0,29.898 l 0.004,3.438 c 0,6.965 2.605,13.922 7.832,19.496 0.652,2.516 2.039,4.895 4.144,6.863 4.598,4.297 11.36,5.379 17.063,3.235 9.105,0.758 18.516,-2.102 25.523,-8.602 2.664,-2.476 4.762,-5.269 6.293,-8.258 0.707,0.793 1.364,1.235 1.625,0.547 0,0 0.325,-0.75 -0.773,-2.355 C 63.246,40.695 64.008,36.91 64,33.129 Z" />
      <path
         inkscape:connector-curvature="0"
         id="path32"
         style="fill:#cbd5de;fill-opacity:1;fill-rule:nonzero;stroke:none"
         d="M 64,33.129 63.996,29.637 C 63.98,22.066 60.887,14.508 54.707,8.734 42.238,-2.906 21.973,-2.91 9.445,8.711 3.137,14.562 -0.012,22.238 0,29.902 l 0.004,3.493 C -0.008,25.73 3.141,18.059 9.449,12.203 21.977,0.582 42.242,0.586 54.711,12.227 60.891,18 63.988,25.559 64,33.129 Z" />
      <path
         inkscape:connector-curvature="0"
         id="path34"
         style="fill:#ebeff2;fill-opacity:1;fill-rule:nonzero;stroke:none"
         d="M 54.562,54.324 C 67.09,42.703 67.152,23.844 54.711,12.227 42.242,0.586 21.977,0.582 9.449,12.203 -3.098,23.844 -3.145,42.688 9.324,54.328 21.766,65.945 42.012,65.965 54.562,54.324 Z" />
      <path
         inkscape:connector-curvature="0"
         id="path36"
         style="fill:#bac5ce;fill-opacity:1;fill-rule:nonzero;stroke:none"
         d="m 12.242,48.203 c 10.84,10.121 28.485,10.141 39.418,-0.004 5.012,-4.648 7.727,-10.625 8.156,-16.711 0.508,7.223 -2.207,14.61 -8.156,20.129 -10.933,10.145 -28.578,10.125 -39.418,0.004 -5.883,-5.492 -8.562,-12.824 -8.054,-20 0.425,6.035 3.105,11.961 8.054,16.582 z" />
      <path
         inkscape:connector-curvature="0"
         id="path38"
         style="fill:#cbd5de;fill-opacity:1;fill-rule:nonzero;stroke:none"
         d="M 12.352,14.914 C 23.266,4.789 40.926,4.789 51.789,14.934 56.723,19.543 59.395,25.457 59.816,31.488 59.387,37.574 56.672,43.551 51.66,48.199 40.727,58.344 23.082,58.324 12.242,48.203 7.293,43.582 4.613,37.656 4.188,31.621 4.621,25.539 7.336,19.566 12.352,14.914 Z" />
      <path
         inkscape:connector-curvature="0"
         id="path40"
         style="fill:#efc252;fill-opacity:1;fill-rule:nonzero;stroke:none"
         d="M 38.953,32.367 38.949,30.691 C 38.945,26.957 37.418,23.23 34.367,20.383 28.219,14.641 18.223,14.637 12.043,20.371 8.93,23.258 7.375,27.043 7.383,30.824 v 1.672 c -0.004,-3.777 1.547,-7.562 4.66,-10.453 6.18,-5.731 16.176,-5.731 22.328,0.016 3.047,2.843 4.574,6.574 4.582,10.308 z" />
      <path
         inkscape:connector-curvature="0"
         id="path42"
         style="fill:#e2b34b;fill-opacity:1;fill-rule:nonzero;stroke:none"
         d="M 34.297,42.824 C 40.477,37.09 40.508,27.789 34.371,22.059 28.219,16.312 18.223,16.312 12.043,22.043 5.852,27.789 5.832,37.082 11.98,42.824 c 6.137,5.731 16.125,5.742 22.317,0 z" />
      <path
         inkscape:connector-curvature="0"
         id="path44"
         style="fill:#c6974b;fill-opacity:1;fill-rule:nonzero;stroke:none"
         d="m 36.949,33.512 c -0.406,-0.379 -1.058,-0.387 -1.472,0 -0.09,0.082 -0.165,0.187 -0.215,0.289 -0.168,0.351 -0.098,0.789 0.211,1.082 0.41,0.371 1.066,0.379 1.472,0 0.141,-0.129 0.235,-0.285 0.278,-0.442 0.089,-0.328 0,-0.683 -0.274,-0.929 z" />
      <path
         inkscape:connector-curvature="0"
         id="path46"
         style="fill:#d3a548;fill-opacity:1;fill-rule:nonzero;stroke:none"
         d="m 36.949,33.512 c -0.406,-0.379 -1.058,-0.387 -1.472,0 -0.09,0.082 -0.165,0.187 -0.215,0.289 -0.098,0.328 -0.012,0.687 0.265,0.945 0.407,0.379 1.063,0.379 1.469,0.008 0.102,-0.09 0.176,-0.199 0.227,-0.313 0.089,-0.328 0,-0.683 -0.274,-0.929 z" />
      <path
         inkscape:connector-curvature="0"
         id="path48"
         style="fill:#c6974b;fill-opacity:1;fill-rule:nonzero;stroke:none"
         d="m 30.746,23.742 c -0.348,-0.32 -0.902,-0.328 -1.254,0 -0.078,0.07 -0.144,0.16 -0.187,0.246 -0.141,0.301 -0.082,0.672 0.183,0.918 0.348,0.321 0.907,0.324 1.254,0 0.117,-0.105 0.196,-0.238 0.235,-0.371 0.074,-0.277 0,-0.582 -0.231,-0.793 z" />
      <path
         inkscape:connector-curvature="0"
         id="path50"
         style="fill:#d3a548;fill-opacity:1;fill-rule:nonzero;stroke:none"
         d="m 30.746,23.742 c -0.348,-0.32 -0.902,-0.328 -1.254,0 -0.078,0.07 -0.144,0.16 -0.187,0.246 -0.082,0.282 -0.008,0.586 0.23,0.805 0.344,0.324 0.903,0.324 1.25,0.008 0.086,-0.078 0.149,-0.172 0.192,-0.266 0.074,-0.277 0,-0.582 -0.231,-0.793 z" />
      <path
         inkscape:connector-curvature="0"
         id="path52"
         style="fill:#c6974b;fill-opacity:1;fill-rule:nonzero;stroke:none"
         d="m 30.691,32.879 c -0.304,-0.281 -0.793,-0.289 -1.101,0 -0.07,0.062 -0.125,0.141 -0.164,0.219 -0.125,0.261 -0.074,0.59 0.16,0.808 0.305,0.278 0.797,0.282 1.102,0 0.101,-0.097 0.171,-0.215 0.207,-0.332 0.066,-0.242 0,-0.512 -0.204,-0.695 z" />
      <path
         inkscape:connector-curvature="0"
         id="path54"
         style="fill:#d3a548;fill-opacity:1;fill-rule:nonzero;stroke:none"
         d="m 30.691,32.879 c -0.304,-0.281 -0.793,-0.289 -1.101,0 -0.07,0.062 -0.125,0.141 -0.164,0.219 -0.074,0.246 -0.008,0.511 0.199,0.707 0.305,0.285 0.793,0.285 1.098,0.004 0.078,-0.067 0.132,-0.149 0.172,-0.235 0.066,-0.242 0,-0.512 -0.204,-0.695 z" />
      <path
         inkscape:connector-curvature="0"
         id="path56"
         style="fill:#c6974b;fill-opacity:1;fill-rule:nonzero;stroke:none"
         d="m 27.625,41.969 c -0.375,-0.348 -0.973,-0.356 -1.352,0 -0.085,0.074 -0.152,0.172 -0.199,0.265 -0.156,0.321 -0.09,0.723 0.196,0.993 0.371,0.339 0.976,0.347 1.351,0 0.125,-0.118 0.211,-0.262 0.254,-0.407 0.082,-0.297 0,-0.625 -0.25,-0.851 z" />
      <path
         inkscape:connector-curvature="0"
         id="path58"
         style="fill:#d3a548;fill-opacity:1;fill-rule:nonzero;stroke:none"
         d="m 27.625,41.969 c -0.375,-0.348 -0.973,-0.356 -1.352,0 -0.085,0.074 -0.152,0.172 -0.199,0.265 -0.09,0.301 -0.012,0.629 0.246,0.868 0.368,0.347 0.973,0.347 1.348,0.007 0.09,-0.082 0.16,-0.183 0.207,-0.289 0.082,-0.297 0,-0.625 -0.25,-0.851 z" />
      <path
         inkscape:connector-curvature="0"
         id="path60"
         style="fill:#c6974b;fill-opacity:1;fill-rule:nonzero;stroke:none"
         d="m 31.992,38.594 c -0.344,-0.317 -0.89,-0.324 -1.238,0 -0.078,0.07 -0.141,0.16 -0.184,0.246 -0.14,0.293 -0.082,0.664 0.18,0.906 0.344,0.313 0.895,0.32 1.238,0 0.117,-0.105 0.196,-0.238 0.235,-0.367 0.074,-0.277 0,-0.578 -0.231,-0.785 z" />
      <path
         inkscape:connector-curvature="0"
         id="path62"
         style="fill:#d3a548;fill-opacity:1;fill-rule:nonzero;stroke:none"
         d="m 31.992,38.594 c -0.344,-0.317 -0.89,-0.324 -1.238,0 -0.078,0.07 -0.141,0.16 -0.184,0.246 -0.082,0.273 -0.008,0.574 0.227,0.793 0.34,0.32 0.891,0.32 1.234,0.008 0.086,-0.075 0.149,-0.168 0.192,-0.262 0.074,-0.277 0,-0.578 -0.231,-0.785 z" />
      <path
         inkscape:connector-curvature="0"
         id="path64"
         style="fill:#c6974b;fill-opacity:1;fill-rule:nonzero;stroke:none"
         d="m 23.34,37.555 c -0.352,-0.328 -0.918,-0.332 -1.274,0 -0.078,0.07 -0.144,0.16 -0.187,0.25 -0.145,0.304 -0.082,0.683 0.183,0.933 0.352,0.321 0.922,0.328 1.274,0 0.117,-0.109 0.199,-0.246 0.238,-0.379 0.078,-0.281 0,-0.589 -0.234,-0.804 z" />
      <path
         inkscape:connector-curvature="0"
         id="path66"
         style="fill:#d3a548;fill-opacity:1;fill-rule:nonzero;stroke:none"
         d="m 23.34,37.555 c -0.352,-0.328 -0.918,-0.332 -1.274,0 -0.078,0.07 -0.144,0.16 -0.187,0.25 -0.082,0.285 -0.008,0.593 0.234,0.816 0.348,0.328 0.914,0.328 1.266,0.008 0.09,-0.078 0.152,-0.172 0.195,-0.27 0.078,-0.281 0,-0.589 -0.234,-0.804 z" />
      <path
         inkscape:connector-curvature="0"
         id="path68"
         style="fill:#c6974b;fill-opacity:1;fill-rule:nonzero;stroke:none"
         d="m 17.652,23.441 c -0.41,-0.379 -1.062,-0.386 -1.472,0 -0.094,0.082 -0.168,0.188 -0.219,0.293 -0.168,0.348 -0.098,0.789 0.211,1.078 0.41,0.372 1.066,0.379 1.473,0 0.14,-0.128 0.234,-0.285 0.281,-0.441 0.086,-0.324 0,-0.683 -0.274,-0.93 z" />
      <path
         inkscape:connector-curvature="0"
         id="path70"
         style="fill:#d3a548;fill-opacity:1;fill-rule:nonzero;stroke:none"
         d="m 17.652,23.441 c -0.41,-0.379 -1.062,-0.386 -1.472,0 -0.094,0.082 -0.168,0.188 -0.219,0.293 -0.098,0.325 -0.012,0.684 0.269,0.946 0.403,0.379 1.059,0.379 1.469,0.004 0.102,-0.086 0.176,-0.2 0.227,-0.313 0.086,-0.324 0,-0.683 -0.274,-0.93 z" />
      <path
         inkscape:connector-curvature="0"
         id="path72"
         style="fill:#c6974b;fill-opacity:1;fill-rule:nonzero;stroke:none"
         d="m 19.914,43.18 c -0.316,-0.293 -0.82,-0.297 -1.137,0 -0.07,0.062 -0.129,0.144 -0.168,0.222 -0.129,0.27 -0.074,0.61 0.164,0.832 0.313,0.289 0.821,0.293 1.137,0 0.106,-0.097 0.176,-0.218 0.215,-0.336 0.066,-0.253 0,-0.531 -0.211,-0.718 z" />
      <path
         inkscape:connector-curvature="0"
         id="path74"
         style="fill:#d3a548;fill-opacity:1;fill-rule:nonzero;stroke:none"
         d="m 19.914,43.18 c -0.316,-0.293 -0.82,-0.297 -1.137,0 -0.07,0.062 -0.129,0.144 -0.168,0.222 -0.074,0.254 -0.007,0.528 0.207,0.731 0.309,0.293 0.817,0.293 1.133,0.004 0.078,-0.067 0.133,-0.153 0.176,-0.239 0.066,-0.253 0,-0.531 -0.211,-0.718 z" />
      <path
         inkscape:connector-curvature="0"
         id="path76"
         style="fill:#c6974b;fill-opacity:1;fill-rule:nonzero;stroke:none"
         d="m 11.621,29.938 c -0.406,-0.379 -1.062,-0.387 -1.473,0 -0.093,0.082 -0.168,0.187 -0.218,0.289 -0.168,0.351 -0.098,0.789 0.215,1.082 0.406,0.371 1.062,0.379 1.472,0 0.137,-0.129 0.231,-0.286 0.278,-0.442 0.085,-0.328 0,-0.683 -0.274,-0.929 z" />
      <path
         inkscape:connector-curvature="0"
         id="path78"
         style="fill:#d3a548;fill-opacity:1;fill-rule:nonzero;stroke:none"
         d="m 11.621,29.938 c -0.406,-0.379 -1.062,-0.387 -1.473,0 -0.093,0.082 -0.168,0.187 -0.218,0.289 -0.098,0.328 -0.008,0.687 0.269,0.945 0.403,0.379 1.059,0.379 1.469,0.008 0.102,-0.09 0.176,-0.2 0.227,-0.313 0.085,-0.328 0,-0.683 -0.274,-0.929 z" />
      <path
         inkscape:connector-curvature="0"
         id="path80"
         style="fill:#c6974b;fill-opacity:1;fill-rule:nonzero;stroke:none"
         d="m 15.328,36.977 c -0.351,-0.329 -0.918,-0.336 -1.273,0 -0.082,0.07 -0.145,0.16 -0.188,0.25 -0.144,0.304 -0.086,0.683 0.184,0.933 0.351,0.324 0.922,0.328 1.273,0 0.121,-0.109 0.203,-0.242 0.242,-0.379 0.075,-0.285 0,-0.593 -0.238,-0.804 z" />
      <path
         inkscape:connector-curvature="0"
         id="path82"
         style="fill:#d3a548;fill-opacity:1;fill-rule:nonzero;stroke:none"
         d="m 15.328,36.977 c -0.351,-0.329 -0.918,-0.336 -1.273,0 -0.082,0.07 -0.145,0.16 -0.188,0.25 -0.086,0.285 -0.008,0.593 0.231,0.82 0.347,0.328 0.918,0.328 1.273,0.004 0.086,-0.078 0.152,-0.172 0.195,-0.27 0.075,-0.285 0,-0.593 -0.238,-0.804 z" />
      <path
         inkscape:connector-curvature="0"
         id="path84"
         style="fill:#c6974b;fill-opacity:1;fill-rule:nonzero;stroke:none"
         d="m 18.574,30.797 c -0.344,-0.32 -0.886,-0.324 -1.234,0 -0.078,0.066 -0.137,0.152 -0.18,0.242 -0.14,0.293 -0.082,0.66 0.176,0.902 0.344,0.309 0.891,0.317 1.234,0 0.114,-0.105 0.192,-0.238 0.231,-0.367 0.074,-0.273 0,-0.574 -0.227,-0.777 z" />
      <path
         inkscape:connector-curvature="0"
         id="path86"
         style="fill:#d3a548;fill-opacity:1;fill-rule:nonzero;stroke:none"
         d="m 18.574,30.797 c -0.344,-0.32 -0.886,-0.324 -1.234,0 -0.078,0.066 -0.137,0.152 -0.18,0.242 -0.082,0.273 -0.008,0.57 0.223,0.789 0.336,0.317 0.887,0.317 1.23,0.008 0.082,-0.074 0.145,-0.168 0.188,-0.262 0.074,-0.273 0,-0.574 -0.227,-0.777 z" />
      <path
         inkscape:connector-curvature="0"
         id="path88"
         style="fill:#c6974b;fill-opacity:1;fill-rule:nonzero;stroke:none"
         d="m 25.598,29.871 c -0.407,-0.379 -1.059,-0.387 -1.473,0 -0.09,0.082 -0.164,0.188 -0.215,0.293 -0.168,0.348 -0.098,0.789 0.211,1.078 0.41,0.371 1.067,0.379 1.473,0 0.14,-0.125 0.234,-0.281 0.277,-0.437 0.09,-0.328 0,-0.688 -0.273,-0.934 z" />
      <path
         inkscape:connector-curvature="0"
         id="path90"
         style="fill:#d3a548;fill-opacity:1;fill-rule:nonzero;stroke:none"
         d="m 25.598,29.871 c -0.407,-0.379 -1.059,-0.387 -1.473,0 -0.09,0.082 -0.164,0.188 -0.215,0.293 -0.098,0.328 -0.012,0.684 0.266,0.945 0.406,0.379 1.062,0.379 1.469,0.008 0.101,-0.09 0.175,-0.203 0.226,-0.312 0.09,-0.328 0,-0.688 -0.273,-0.934 z" />
      <path
         inkscape:connector-curvature="0"
         id="path92"
         style="fill:#c6974b;fill-opacity:1;fill-rule:nonzero;stroke:none"
         d="m 35.629,27.707 c -0.328,-0.305 -0.856,-0.312 -1.188,0 -0.074,0.066 -0.136,0.152 -0.175,0.234 -0.133,0.282 -0.078,0.637 0.172,0.871 0.328,0.301 0.859,0.305 1.187,0 0.109,-0.101 0.187,-0.23 0.223,-0.355 0.07,-0.262 0,-0.551 -0.219,-0.75 z" />
      <path
         inkscape:connector-curvature="0"
         id="path94"
         style="fill:#d3a548;fill-opacity:1;fill-rule:nonzero;stroke:none"
         d="m 35.629,27.707 c -0.328,-0.305 -0.856,-0.312 -1.188,0 -0.074,0.066 -0.136,0.152 -0.175,0.234 -0.078,0.266 -0.008,0.551 0.214,0.762 0.329,0.309 0.856,0.309 1.184,0.008 0.082,-0.074 0.145,-0.164 0.184,-0.254 0.07,-0.262 0,-0.551 -0.219,-0.75 z" />
      <path
         inkscape:connector-curvature="0"
         id="path96"
         style="fill:#c6974b;fill-opacity:1;fill-rule:nonzero;stroke:none"
         d="m 24.375,21.594 c -0.32,-0.297 -0.836,-0.305 -1.16,0 -0.07,0.066 -0.129,0.148 -0.172,0.23 -0.129,0.274 -0.074,0.621 0.168,0.848 0.32,0.293 0.84,0.301 1.16,0 0.109,-0.098 0.184,-0.223 0.219,-0.344 0.07,-0.258 0,-0.539 -0.215,-0.734 z" />
      <path
         inkscape:connector-curvature="0"
         id="path98"
         style="fill:#d3a548;fill-opacity:1;fill-rule:nonzero;stroke:none"
         d="m 24.375,21.594 c -0.32,-0.297 -0.836,-0.305 -1.16,0 -0.07,0.066 -0.129,0.148 -0.172,0.23 -0.074,0.258 -0.008,0.539 0.215,0.742 0.316,0.301 0.832,0.301 1.152,0.008 0.082,-0.07 0.141,-0.16 0.18,-0.246 0.07,-0.258 0,-0.539 -0.215,-0.734 z" />
      <path
         inkscape:connector-curvature="0"
         id="path100"
         style="fill:#efc252;fill-opacity:1;fill-rule:nonzero;stroke:none"
         d="M 38.953,36.586 38.949,34.91 C 38.945,31.176 37.418,27.445 34.367,24.602 28.219,18.859 18.223,18.855 12.043,24.59 8.93,27.477 7.375,31.262 7.383,35.039 v 1.676 c -0.004,-3.781 1.547,-7.567 4.66,-10.453 6.18,-5.731 16.176,-5.731 22.328,0.011 3.047,2.848 4.574,6.579 4.582,10.313 z" />
      <path
         inkscape:connector-curvature="0"
         id="path102"
         style="fill:#e2b34b;fill-opacity:1;fill-rule:nonzero;stroke:none"
         d="m 34.297,47.043 c 6.18,-5.734 6.211,-15.039 0.074,-20.77 -6.152,-5.742 -16.148,-5.742 -22.328,-0.011 -6.191,5.742 -6.211,15.039 -0.063,20.781 6.137,5.73 16.125,5.742 22.317,0 z" />
      <path
         inkscape:connector-curvature="0"
         id="path104"
         style="fill:#c6974b;fill-opacity:1;fill-rule:nonzero;stroke:none"
         d="m 36.949,37.73 c -0.406,-0.378 -1.058,-0.386 -1.472,0 -0.09,0.082 -0.165,0.184 -0.215,0.29 -0.168,0.351 -0.098,0.789 0.211,1.078 0.41,0.375 1.066,0.382 1.472,0 0.141,-0.125 0.235,-0.282 0.278,-0.438 0.089,-0.328 0,-0.683 -0.274,-0.93 z" />
      <path
         inkscape:connector-curvature="0"
         id="path106"
         style="fill:#d3a548;fill-opacity:1;fill-rule:nonzero;stroke:none"
         d="m 36.949,37.73 c -0.406,-0.378 -1.058,-0.386 -1.472,0 -0.09,0.082 -0.165,0.184 -0.215,0.29 -0.098,0.328 -0.012,0.683 0.265,0.945 0.407,0.379 1.063,0.379 1.469,0.008 0.102,-0.09 0.176,-0.2 0.227,-0.313 0.089,-0.328 0,-0.683 -0.274,-0.93 z" />
      <path
         inkscape:connector-curvature="0"
         id="path108"
         style="fill:#c6974b;fill-opacity:1;fill-rule:nonzero;stroke:none"
         d="m 30.746,27.961 c -0.348,-0.324 -0.902,-0.328 -1.254,0 -0.078,0.07 -0.144,0.16 -0.187,0.246 -0.141,0.297 -0.082,0.672 0.183,0.918 0.348,0.316 0.907,0.324 1.254,0 0.117,-0.105 0.196,-0.238 0.235,-0.371 0.074,-0.281 0,-0.582 -0.231,-0.793 z" />
      <path
         inkscape:connector-curvature="0"
         id="path110"
         style="fill:#d3a548;fill-opacity:1;fill-rule:nonzero;stroke:none"
         d="m 30.746,27.961 c -0.348,-0.324 -0.902,-0.328 -1.254,0 -0.078,0.07 -0.144,0.16 -0.187,0.246 -0.082,0.281 -0.008,0.582 0.23,0.805 0.344,0.324 0.903,0.324 1.25,0.008 0.086,-0.079 0.149,-0.172 0.192,-0.266 0.074,-0.281 0,-0.582 -0.231,-0.793 z" />
      <path
         inkscape:connector-curvature="0"
         id="path112"
         style="fill:#c6974b;fill-opacity:1;fill-rule:nonzero;stroke:none"
         d="m 30.691,37.098 c -0.304,-0.282 -0.793,-0.289 -1.101,0 -0.07,0.062 -0.125,0.14 -0.164,0.218 -0.125,0.262 -0.074,0.59 0.16,0.805 0.305,0.281 0.797,0.285 1.102,0 0.101,-0.094 0.171,-0.211 0.207,-0.328 0.066,-0.242 0,-0.512 -0.204,-0.695 z" />
      <path
         inkscape:connector-curvature="0"
         id="path114"
         style="fill:#d3a548;fill-opacity:1;fill-rule:nonzero;stroke:none"
         d="m 30.691,37.098 c -0.304,-0.282 -0.793,-0.289 -1.101,0 -0.07,0.062 -0.125,0.14 -0.164,0.218 -0.074,0.243 -0.008,0.512 0.199,0.707 0.305,0.282 0.793,0.282 1.098,0.004 0.078,-0.066 0.132,-0.148 0.172,-0.234 0.066,-0.242 0,-0.512 -0.204,-0.695 z" />
      <path
         inkscape:connector-curvature="0"
         id="path116"
         style="fill:#c6974b;fill-opacity:1;fill-rule:nonzero;stroke:none"
         d="m 27.625,46.188 c -0.375,-0.348 -0.973,-0.356 -1.352,0 -0.085,0.074 -0.152,0.171 -0.199,0.265 -0.156,0.32 -0.09,0.723 0.196,0.988 0.371,0.344 0.976,0.352 1.351,0 0.125,-0.113 0.211,-0.257 0.254,-0.402 0.082,-0.301 0,-0.625 -0.25,-0.851 z" />
      <path
         inkscape:connector-curvature="0"
         id="path118"
         style="fill:#d3a548;fill-opacity:1;fill-rule:nonzero;stroke:none"
         d="m 27.625,46.188 c -0.375,-0.348 -0.973,-0.356 -1.352,0 -0.085,0.074 -0.152,0.171 -0.199,0.265 -0.09,0.301 -0.012,0.629 0.246,0.867 0.368,0.348 0.973,0.348 1.348,0.008 0.09,-0.082 0.16,-0.183 0.207,-0.289 0.082,-0.301 0,-0.625 -0.25,-0.851 z" />
      <path
         inkscape:connector-curvature="0"
         id="path120"
         style="fill:#c6974b;fill-opacity:1;fill-rule:nonzero;stroke:none"
         d="m 31.992,42.812 c -0.344,-0.316 -0.89,-0.324 -1.238,0 -0.078,0.071 -0.141,0.157 -0.184,0.247 -0.14,0.293 -0.082,0.664 0.18,0.906 0.344,0.312 0.895,0.32 1.238,0 0.117,-0.106 0.196,-0.238 0.235,-0.367 0.074,-0.278 0,-0.578 -0.231,-0.786 z" />
      <path
         inkscape:connector-curvature="0"
         id="path122"
         style="fill:#d3a548;fill-opacity:1;fill-rule:nonzero;stroke:none"
         d="m 31.992,42.812 c -0.344,-0.316 -0.89,-0.324 -1.238,0 -0.078,0.071 -0.141,0.157 -0.184,0.247 -0.082,0.273 -0.008,0.574 0.227,0.793 0.34,0.32 0.891,0.32 1.234,0.007 0.086,-0.074 0.149,-0.168 0.192,-0.261 0.074,-0.278 0,-0.578 -0.231,-0.786 z" />
      <path
         inkscape:connector-curvature="0"
         id="path124"
         style="fill:#c6974b;fill-opacity:1;fill-rule:nonzero;stroke:none"
         d="m 23.34,41.773 c -0.352,-0.328 -0.918,-0.332 -1.274,0 -0.078,0.071 -0.144,0.161 -0.187,0.25 -0.145,0.305 -0.082,0.684 0.183,0.934 0.352,0.32 0.922,0.328 1.274,0 0.117,-0.109 0.199,-0.246 0.238,-0.379 0.078,-0.285 0,-0.594 -0.234,-0.805 z" />
      <path
         inkscape:connector-curvature="0"
         id="path126"
         style="fill:#d3a548;fill-opacity:1;fill-rule:nonzero;stroke:none"
         d="m 23.34,41.773 c -0.352,-0.328 -0.918,-0.332 -1.274,0 -0.078,0.071 -0.144,0.161 -0.187,0.25 -0.082,0.286 -0.008,0.594 0.234,0.817 0.348,0.328 0.914,0.328 1.266,0.008 0.09,-0.078 0.152,-0.176 0.195,-0.27 0.078,-0.285 0,-0.594 -0.234,-0.805 z" />
      <path
         inkscape:connector-curvature="0"
         id="path128"
         style="fill:#c6974b;fill-opacity:1;fill-rule:nonzero;stroke:none"
         d="m 17.652,27.66 c -0.41,-0.379 -1.062,-0.387 -1.472,0 -0.094,0.082 -0.168,0.188 -0.219,0.289 -0.168,0.352 -0.098,0.789 0.211,1.082 0.41,0.371 1.066,0.379 1.473,0 0.14,-0.129 0.234,-0.285 0.281,-0.441 0.086,-0.328 0,-0.684 -0.274,-0.93 z" />
      <path
         inkscape:connector-curvature="0"
         id="path130"
         style="fill:#d3a548;fill-opacity:1;fill-rule:nonzero;stroke:none"
         d="m 17.652,27.66 c -0.41,-0.379 -1.062,-0.387 -1.472,0 -0.094,0.082 -0.168,0.188 -0.219,0.289 -0.098,0.328 -0.012,0.688 0.269,0.946 0.403,0.382 1.059,0.382 1.469,0.007 0.102,-0.09 0.176,-0.199 0.227,-0.312 0.086,-0.328 0,-0.684 -0.274,-0.93 z" />
      <path
         inkscape:connector-curvature="0"
         id="path132"
         style="fill:#c6974b;fill-opacity:1;fill-rule:nonzero;stroke:none"
         d="m 19.914,47.398 c -0.316,-0.293 -0.82,-0.3 -1.137,0 -0.07,0.063 -0.129,0.145 -0.168,0.223 -0.129,0.27 -0.074,0.609 0.164,0.832 0.313,0.289 0.821,0.293 1.137,0 0.106,-0.098 0.176,-0.219 0.215,-0.34 0.066,-0.25 0,-0.527 -0.211,-0.715 z" />
      <path
         inkscape:connector-curvature="0"
         id="path134"
         style="fill:#d3a548;fill-opacity:1;fill-rule:nonzero;stroke:none"
         d="m 19.914,47.398 c -0.316,-0.293 -0.82,-0.3 -1.137,0 -0.07,0.063 -0.129,0.145 -0.168,0.223 -0.074,0.254 -0.007,0.527 0.207,0.731 0.309,0.293 0.817,0.293 1.133,0.003 0.078,-0.066 0.133,-0.152 0.176,-0.242 0.066,-0.25 0,-0.527 -0.211,-0.715 z" />
      <path
         inkscape:connector-curvature="0"
         id="path136"
         style="fill:#c6974b;fill-opacity:1;fill-rule:nonzero;stroke:none"
         d="m 11.621,34.156 c -0.406,-0.379 -1.062,-0.386 -1.473,0 -0.093,0.082 -0.168,0.188 -0.218,0.289 -0.168,0.352 -0.098,0.789 0.215,1.078 0.406,0.375 1.062,0.383 1.472,0 0.137,-0.125 0.231,-0.281 0.278,-0.437 0.085,-0.328 0,-0.684 -0.274,-0.93 z" />
      <path
         inkscape:connector-curvature="0"
         id="path138"
         style="fill:#d3a548;fill-opacity:1;fill-rule:nonzero;stroke:none"
         d="m 11.621,34.156 c -0.406,-0.379 -1.062,-0.386 -1.473,0 -0.093,0.082 -0.168,0.188 -0.218,0.289 -0.098,0.328 -0.008,0.684 0.269,0.946 0.403,0.379 1.059,0.379 1.469,0.007 0.102,-0.089 0.176,-0.199 0.227,-0.312 0.085,-0.328 0,-0.684 -0.274,-0.93 z" />
      <path
         inkscape:connector-curvature="0"
         id="path140"
         style="fill:#c6974b;fill-opacity:1;fill-rule:nonzero;stroke:none"
         d="m 15.328,41.195 c -0.351,-0.328 -0.918,-0.336 -1.273,0 -0.082,0.071 -0.145,0.16 -0.188,0.25 -0.144,0.301 -0.086,0.684 0.184,0.934 0.351,0.324 0.922,0.328 1.273,0 0.121,-0.109 0.203,-0.246 0.242,-0.379 0.075,-0.285 0,-0.594 -0.238,-0.805 z" />
      <path
         inkscape:connector-curvature="0"
         id="path142"
         style="fill:#d3a548;fill-opacity:1;fill-rule:nonzero;stroke:none"
         d="m 15.328,41.195 c -0.351,-0.328 -0.918,-0.336 -1.273,0 -0.082,0.071 -0.145,0.16 -0.188,0.25 -0.086,0.285 -0.008,0.594 0.231,0.817 0.347,0.332 0.918,0.332 1.273,0.008 0.086,-0.079 0.152,-0.172 0.195,-0.27 0.075,-0.285 0,-0.594 -0.238,-0.805 z" />
      <path
         inkscape:connector-curvature="0"
         id="path144"
         style="fill:#c6974b;fill-opacity:1;fill-rule:nonzero;stroke:none"
         d="m 18.574,35.012 c -0.344,-0.317 -0.886,-0.324 -1.234,0 -0.078,0.07 -0.137,0.156 -0.18,0.246 -0.14,0.289 -0.082,0.656 0.176,0.902 0.344,0.309 0.891,0.317 1.234,0 0.114,-0.105 0.192,-0.238 0.231,-0.367 0.074,-0.277 0,-0.574 -0.227,-0.781 z" />
      <path
         inkscape:connector-curvature="0"
         id="path146"
         style="fill:#d3a548;fill-opacity:1;fill-rule:nonzero;stroke:none"
         d="m 18.574,35.012 c -0.344,-0.317 -0.886,-0.324 -1.234,0 -0.078,0.07 -0.137,0.156 -0.18,0.246 -0.082,0.273 -0.008,0.57 0.223,0.789 0.336,0.316 0.887,0.316 1.23,0.008 0.082,-0.078 0.145,-0.172 0.188,-0.262 0.074,-0.277 0,-0.574 -0.227,-0.781 z" />
      <path
         inkscape:connector-curvature="0"
         id="path148"
         style="fill:#c6974b;fill-opacity:1;fill-rule:nonzero;stroke:none"
         d="m 25.598,34.09 c -0.407,-0.379 -1.059,-0.387 -1.473,0 -0.09,0.082 -0.164,0.187 -0.215,0.293 -0.168,0.347 -0.098,0.785 0.211,1.078 0.41,0.371 1.067,0.379 1.473,0 0.14,-0.129 0.234,-0.285 0.277,-0.441 0.09,-0.325 0,-0.684 -0.273,-0.93 z" />
      <path
         inkscape:connector-curvature="0"
         id="path150"
         style="fill:#d3a548;fill-opacity:1;fill-rule:nonzero;stroke:none"
         d="m 25.598,34.09 c -0.407,-0.379 -1.059,-0.387 -1.473,0 -0.09,0.082 -0.164,0.187 -0.215,0.293 -0.098,0.324 -0.012,0.683 0.266,0.941 0.406,0.383 1.062,0.383 1.469,0.008 0.101,-0.086 0.175,-0.199 0.226,-0.312 0.09,-0.325 0,-0.684 -0.273,-0.93 z" />
      <path
         inkscape:connector-curvature="0"
         id="path152"
         style="fill:#c6974b;fill-opacity:1;fill-rule:nonzero;stroke:none"
         d="m 35.629,31.926 c -0.328,-0.305 -0.856,-0.313 -1.188,0 -0.074,0.066 -0.136,0.152 -0.175,0.234 -0.133,0.281 -0.078,0.637 0.172,0.871 0.328,0.297 0.859,0.305 1.187,0 0.109,-0.101 0.187,-0.23 0.223,-0.355 0.07,-0.262 0,-0.551 -0.219,-0.75 z" />
      <path
         inkscape:connector-curvature="0"
         id="path154"
         style="fill:#d3a548;fill-opacity:1;fill-rule:nonzero;stroke:none"
         d="m 35.629,31.926 c -0.328,-0.305 -0.856,-0.313 -1.188,0 -0.074,0.066 -0.136,0.152 -0.175,0.234 -0.078,0.266 -0.008,0.551 0.214,0.762 0.329,0.305 0.856,0.305 1.184,0.008 0.082,-0.075 0.145,-0.164 0.184,-0.254 0.07,-0.262 0,-0.551 -0.219,-0.75 z" />
      <path
         inkscape:connector-curvature="0"
         id="path156"
         style="fill:#c6974b;fill-opacity:1;fill-rule:nonzero;stroke:none"
         d="m 24.375,25.812 c -0.32,-0.3 -0.836,-0.304 -1.16,0 -0.07,0.063 -0.129,0.145 -0.172,0.227 -0.129,0.277 -0.074,0.621 0.168,0.852 0.32,0.293 0.84,0.297 1.16,0 0.109,-0.102 0.184,-0.223 0.219,-0.348 0.07,-0.258 0,-0.539 -0.215,-0.731 z" />
      <path
         inkscape:connector-curvature="0"
         id="path158"
         style="fill:#d3a548;fill-opacity:1;fill-rule:nonzero;stroke:none"
         d="m 24.375,25.812 c -0.32,-0.3 -0.836,-0.304 -1.16,0 -0.07,0.063 -0.129,0.145 -0.172,0.227 -0.074,0.258 -0.008,0.539 0.215,0.746 0.316,0.297 0.832,0.297 1.152,0.004 0.082,-0.07 0.141,-0.156 0.18,-0.246 0.07,-0.258 0,-0.539 -0.215,-0.731 z" />
      <path
         inkscape:connector-curvature="0"
         id="path160"
         style="fill:#efc252;fill-opacity:1;fill-rule:nonzero;stroke:none"
         d="M 38.953,40.805 38.949,39.129 C 38.945,35.395 37.418,31.664 34.367,28.816 28.219,23.074 18.223,23.074 12.043,28.805 8.93,31.691 7.375,35.477 7.383,39.258 v 1.676 c -0.004,-3.782 1.547,-7.567 4.66,-10.454 6.18,-5.73 16.176,-5.73 22.328,0.012 3.047,2.848 4.574,6.578 4.582,10.313 z" />
      <path
         inkscape:connector-curvature="0"
         id="path162"
         style="fill:#e2b34b;fill-opacity:1;fill-rule:nonzero;stroke:none"
         d="M 34.297,51.258 C 40.477,45.527 40.508,36.223 34.371,30.492 28.219,24.75 18.223,24.75 12.043,30.48 5.852,36.223 5.832,45.52 11.98,51.262 18.117,56.992 28.105,57 34.297,51.258 Z" />
      <path
         inkscape:connector-curvature="0"
         id="path164"
         style="fill:#c6974b;fill-opacity:1;fill-rule:nonzero;stroke:none"
         d="m 36.949,41.949 c -0.406,-0.383 -1.058,-0.387 -1.472,0 -0.09,0.082 -0.165,0.184 -0.215,0.289 -0.168,0.348 -0.098,0.789 0.211,1.078 0.41,0.372 1.066,0.379 1.472,0 0.141,-0.125 0.235,-0.281 0.278,-0.437 0.089,-0.328 0,-0.684 -0.274,-0.93 z" />
      <path
         inkscape:connector-curvature="0"
         id="path166"
         style="fill:#d3a548;fill-opacity:1;fill-rule:nonzero;stroke:none"
         d="m 36.949,41.949 c -0.406,-0.383 -1.058,-0.387 -1.472,0 -0.09,0.082 -0.165,0.184 -0.215,0.289 -0.098,0.328 -0.012,0.684 0.265,0.946 0.407,0.378 1.063,0.378 1.469,0.007 0.102,-0.089 0.176,-0.203 0.227,-0.312 0.089,-0.328 0,-0.684 -0.274,-0.93 z" />
      <path
         inkscape:connector-curvature="0"
         id="path168"
         style="fill:#c6974b;fill-opacity:1;fill-rule:nonzero;stroke:none"
         d="m 30.746,32.18 c -0.348,-0.325 -0.902,-0.328 -1.254,0 -0.078,0.07 -0.144,0.156 -0.187,0.246 -0.141,0.297 -0.082,0.672 0.183,0.918 0.348,0.316 0.907,0.324 1.254,0 0.117,-0.106 0.196,-0.239 0.235,-0.371 0.074,-0.282 0,-0.586 -0.231,-0.793 z" />
      <path
         inkscape:connector-curvature="0"
         id="path170"
         style="fill:#d3a548;fill-opacity:1;fill-rule:nonzero;stroke:none"
         d="m 30.746,32.18 c -0.348,-0.325 -0.902,-0.328 -1.254,0 -0.078,0.07 -0.144,0.156 -0.187,0.246 -0.082,0.277 -0.008,0.582 0.23,0.804 0.344,0.325 0.903,0.325 1.25,0.008 0.086,-0.078 0.149,-0.172 0.192,-0.265 0.074,-0.282 0,-0.586 -0.231,-0.793 z" />
      <path
         inkscape:connector-curvature="0"
         id="path172"
         style="fill:#c6974b;fill-opacity:1;fill-rule:nonzero;stroke:none"
         d="m 30.691,41.316 c -0.304,-0.285 -0.793,-0.289 -1.101,0 -0.07,0.063 -0.125,0.141 -0.164,0.219 -0.125,0.262 -0.074,0.59 0.16,0.805 0.305,0.277 0.797,0.285 1.102,0 0.101,-0.094 0.171,-0.211 0.207,-0.328 0.066,-0.246 0,-0.512 -0.204,-0.696 z" />
      <path
         inkscape:connector-curvature="0"
         id="path174"
         style="fill:#d3a548;fill-opacity:1;fill-rule:nonzero;stroke:none"
         d="m 30.691,41.316 c -0.304,-0.285 -0.793,-0.289 -1.101,0 -0.07,0.063 -0.125,0.141 -0.164,0.219 -0.074,0.242 -0.008,0.512 0.199,0.707 0.305,0.281 0.793,0.281 1.098,0.004 0.078,-0.066 0.132,-0.152 0.172,-0.234 0.066,-0.246 0,-0.512 -0.204,-0.696 z" />
      <path
         inkscape:connector-curvature="0"
         id="path176"
         style="fill:#c6974b;fill-opacity:1;fill-rule:nonzero;stroke:none"
         d="m 27.625,50.406 c -0.375,-0.347 -0.973,-0.355 -1.352,0 -0.085,0.074 -0.152,0.168 -0.199,0.266 -0.156,0.32 -0.09,0.723 0.196,0.988 0.371,0.344 0.976,0.348 1.351,0 0.125,-0.113 0.211,-0.258 0.254,-0.402 0.082,-0.301 0,-0.629 -0.25,-0.852 z" />
      <path
         inkscape:connector-curvature="0"
         id="path178"
         style="fill:#d3a548;fill-opacity:1;fill-rule:nonzero;stroke:none"
         d="m 27.625,50.406 c -0.375,-0.347 -0.973,-0.355 -1.352,0 -0.085,0.074 -0.152,0.168 -0.199,0.266 -0.09,0.301 -0.012,0.629 0.246,0.867 0.368,0.348 0.973,0.348 1.348,0.008 0.09,-0.082 0.16,-0.188 0.207,-0.289 0.082,-0.301 0,-0.629 -0.25,-0.852 z" />
      <path
         inkscape:connector-curvature="0"
         id="path180"
         style="fill:#c6974b;fill-opacity:1;fill-rule:nonzero;stroke:none"
         d="m 31.992,47.031 c -0.344,-0.32 -0.89,-0.324 -1.238,0 -0.078,0.071 -0.141,0.157 -0.184,0.246 -0.14,0.293 -0.082,0.661 0.18,0.907 0.344,0.312 0.895,0.32 1.238,0 0.117,-0.106 0.196,-0.239 0.235,-0.372 0.074,-0.273 0,-0.574 -0.231,-0.781 z" />
      <path
         inkscape:connector-curvature="0"
         id="path182"
         style="fill:#d3a548;fill-opacity:1;fill-rule:nonzero;stroke:none"
         d="m 31.992,47.031 c -0.344,-0.32 -0.89,-0.324 -1.238,0 -0.078,0.071 -0.141,0.157 -0.184,0.246 -0.082,0.274 -0.008,0.575 0.227,0.793 0.34,0.321 0.891,0.321 1.234,0.008 0.086,-0.078 0.149,-0.172 0.192,-0.266 0.074,-0.273 0,-0.574 -0.231,-0.781 z" />
      <path
         inkscape:connector-curvature="0"
         id="path184"
         style="fill:#c6974b;fill-opacity:1;fill-rule:nonzero;stroke:none"
         d="m 23.34,45.992 c -0.352,-0.328 -0.918,-0.332 -1.274,0 -0.078,0.07 -0.144,0.16 -0.187,0.25 -0.145,0.301 -0.082,0.68 0.183,0.934 0.352,0.32 0.922,0.324 1.274,0 0.117,-0.11 0.199,-0.246 0.238,-0.379 0.078,-0.285 0,-0.594 -0.234,-0.805 z" />
      <path
         inkscape:connector-curvature="0"
         id="path186"
         style="fill:#d3a548;fill-opacity:1;fill-rule:nonzero;stroke:none"
         d="m 23.34,45.992 c -0.352,-0.328 -0.918,-0.332 -1.274,0 -0.078,0.07 -0.144,0.16 -0.187,0.25 -0.082,0.285 -0.008,0.59 0.234,0.817 0.348,0.328 0.914,0.328 1.266,0.007 0.09,-0.078 0.152,-0.175 0.195,-0.269 0.078,-0.285 0,-0.594 -0.234,-0.805 z" />
      <path
         inkscape:connector-curvature="0"
         id="path188"
         style="fill:#c6974b;fill-opacity:1;fill-rule:nonzero;stroke:none"
         d="m 17.652,31.879 c -0.41,-0.379 -1.062,-0.387 -1.472,0 -0.094,0.082 -0.168,0.187 -0.219,0.289 -0.168,0.352 -0.098,0.789 0.211,1.082 0.41,0.371 1.066,0.379 1.473,0 0.14,-0.129 0.234,-0.285 0.281,-0.441 0.086,-0.329 0,-0.684 -0.274,-0.93 z" />
      <path
         inkscape:connector-curvature="0"
         id="path190"
         style="fill:#d3a548;fill-opacity:1;fill-rule:nonzero;stroke:none"
         d="m 17.652,31.879 c -0.41,-0.379 -1.062,-0.387 -1.472,0 -0.094,0.082 -0.168,0.187 -0.219,0.289 -0.098,0.328 -0.012,0.687 0.269,0.945 0.403,0.379 1.059,0.379 1.469,0.008 0.102,-0.09 0.176,-0.199 0.227,-0.312 0.086,-0.329 0,-0.684 -0.274,-0.93 z" />
      <path
         inkscape:connector-curvature="0"
         id="path192"
         style="fill:#c6974b;fill-opacity:1;fill-rule:nonzero;stroke:none"
         d="m 19.914,51.617 c -0.316,-0.293 -0.82,-0.301 -1.137,0 -0.07,0.063 -0.129,0.141 -0.168,0.223 -0.129,0.269 -0.074,0.609 0.164,0.832 0.313,0.285 0.821,0.293 1.137,0 0.106,-0.098 0.176,-0.219 0.215,-0.34 0.066,-0.25 0,-0.527 -0.211,-0.715 z" />
      <path
         inkscape:connector-curvature="0"
         id="path194"
         style="fill:#d3a548;fill-opacity:1;fill-rule:nonzero;stroke:none"
         d="m 19.914,51.617 c -0.316,-0.293 -0.82,-0.301 -1.137,0 -0.07,0.063 -0.129,0.141 -0.168,0.223 -0.074,0.254 -0.007,0.527 0.207,0.73 0.309,0.289 0.817,0.289 1.133,0.004 0.078,-0.07 0.133,-0.156 0.176,-0.242 0.066,-0.25 0,-0.527 -0.211,-0.715 z" />
      <path
         inkscape:connector-curvature="0"
         id="path196"
         style="fill:#c6974b;fill-opacity:1;fill-rule:nonzero;stroke:none"
         d="m 11.621,38.375 c -0.406,-0.379 -1.062,-0.387 -1.473,0 -0.093,0.082 -0.168,0.184 -0.218,0.289 -0.168,0.352 -0.098,0.789 0.215,1.078 0.406,0.375 1.062,0.379 1.472,0 0.137,-0.125 0.231,-0.281 0.278,-0.437 0.085,-0.328 0,-0.684 -0.274,-0.93 z" />
      <path
         inkscape:connector-curvature="0"
         id="path198"
         style="fill:#d3a548;fill-opacity:1;fill-rule:nonzero;stroke:none"
         d="m 11.621,38.375 c -0.406,-0.379 -1.062,-0.387 -1.473,0 -0.093,0.082 -0.168,0.184 -0.218,0.289 -0.098,0.328 -0.008,0.684 0.269,0.945 0.403,0.379 1.059,0.379 1.469,0.008 0.102,-0.09 0.176,-0.203 0.227,-0.312 0.085,-0.328 0,-0.684 -0.274,-0.93 z" />
      <path
         inkscape:connector-curvature="0"
         id="path200"
         style="fill:#c6974b;fill-opacity:1;fill-rule:nonzero;stroke:none"
         d="m 15.328,45.41 c -0.351,-0.328 -0.918,-0.332 -1.273,0 -0.082,0.074 -0.145,0.164 -0.188,0.254 -0.144,0.301 -0.086,0.684 0.184,0.934 0.351,0.32 0.922,0.328 1.273,0 0.121,-0.11 0.203,-0.246 0.242,-0.379 0.075,-0.285 0,-0.594 -0.238,-0.809 z" />
      <path
         inkscape:connector-curvature="0"
         id="path202"
         style="fill:#d3a548;fill-opacity:1;fill-rule:nonzero;stroke:none"
         d="m 15.328,45.41 c -0.351,-0.328 -0.918,-0.332 -1.273,0 -0.082,0.074 -0.145,0.164 -0.188,0.254 -0.086,0.281 -0.008,0.594 0.231,0.816 0.347,0.329 0.918,0.329 1.273,0.008 0.086,-0.078 0.152,-0.176 0.195,-0.269 0.075,-0.285 0,-0.594 -0.238,-0.809 z" />
      <path
         inkscape:connector-curvature="0"
         id="path204"
         style="fill:#c6974b;fill-opacity:1;fill-rule:nonzero;stroke:none"
         d="m 18.574,39.23 c -0.344,-0.316 -0.886,-0.324 -1.234,0 -0.078,0.071 -0.137,0.157 -0.18,0.243 -0.14,0.293 -0.082,0.66 0.176,0.902 0.344,0.313 0.891,0.32 1.234,0 0.114,-0.105 0.192,-0.234 0.231,-0.367 0.074,-0.274 0,-0.57 -0.227,-0.778 z" />
      <path
         inkscape:connector-curvature="0"
         id="path206"
         style="fill:#d3a548;fill-opacity:1;fill-rule:nonzero;stroke:none"
         d="m 18.574,39.23 c -0.344,-0.316 -0.886,-0.324 -1.234,0 -0.078,0.071 -0.137,0.157 -0.18,0.243 -0.082,0.273 -0.008,0.574 0.223,0.793 0.336,0.316 0.887,0.316 1.23,0.004 0.082,-0.075 0.145,-0.168 0.188,-0.262 0.074,-0.274 0,-0.57 -0.227,-0.778 z" />
      <path
         inkscape:connector-curvature="0"
         id="path208"
         style="fill:#c6974b;fill-opacity:1;fill-rule:nonzero;stroke:none"
         d="m 25.598,38.309 c -0.407,-0.379 -1.059,-0.387 -1.473,0 -0.09,0.082 -0.164,0.187 -0.215,0.289 -0.168,0.351 -0.098,0.789 0.211,1.082 0.41,0.371 1.067,0.379 1.473,0 0.14,-0.129 0.234,-0.285 0.277,-0.442 0.09,-0.328 0,-0.683 -0.273,-0.929 z" />
      <path
         inkscape:connector-curvature="0"
         id="path210"
         style="fill:#d3a548;fill-opacity:1;fill-rule:nonzero;stroke:none"
         d="m 25.598,38.309 c -0.407,-0.379 -1.059,-0.387 -1.473,0 -0.09,0.082 -0.164,0.187 -0.215,0.289 -0.098,0.328 -0.012,0.687 0.266,0.945 0.406,0.379 1.062,0.379 1.469,0.008 0.101,-0.09 0.175,-0.199 0.226,-0.313 0.09,-0.328 0,-0.683 -0.273,-0.929 z" />
      <path
         inkscape:connector-curvature="0"
         id="path212"
         style="fill:#c6974b;fill-opacity:1;fill-rule:nonzero;stroke:none"
         d="m 35.629,36.145 c -0.328,-0.305 -0.856,-0.313 -1.188,0 -0.074,0.066 -0.136,0.148 -0.175,0.234 -0.133,0.281 -0.078,0.637 0.172,0.867 0.328,0.301 0.859,0.309 1.187,0 0.109,-0.101 0.187,-0.226 0.223,-0.351 0.07,-0.266 0,-0.551 -0.219,-0.75 z" />
      <path
         inkscape:connector-curvature="0"
         id="path214"
         style="fill:#d3a548;fill-opacity:1;fill-rule:nonzero;stroke:none"
         d="m 35.629,36.145 c -0.328,-0.305 -0.856,-0.313 -1.188,0 -0.074,0.066 -0.136,0.148 -0.175,0.234 -0.078,0.262 -0.008,0.551 0.214,0.762 0.329,0.304 0.856,0.304 1.184,0.004 0.082,-0.071 0.145,-0.161 0.184,-0.25 0.07,-0.266 0,-0.551 -0.219,-0.75 z" />
      <path
         inkscape:connector-curvature="0"
         id="path216"
         style="fill:#c6974b;fill-opacity:1;fill-rule:nonzero;stroke:none"
         d="m 24.375,30.031 c -0.32,-0.301 -0.836,-0.304 -1.16,0 -0.07,0.063 -0.129,0.145 -0.172,0.227 -0.129,0.277 -0.074,0.621 0.168,0.851 0.32,0.293 0.84,0.297 1.16,0 0.109,-0.101 0.184,-0.222 0.219,-0.347 0.07,-0.258 0,-0.539 -0.215,-0.731 z" />
      <path
         inkscape:connector-curvature="0"
         id="path218"
         style="fill:#d3a548;fill-opacity:1;fill-rule:nonzero;stroke:none"
         d="m 24.375,30.031 c -0.32,-0.301 -0.836,-0.304 -1.16,0 -0.07,0.063 -0.129,0.145 -0.172,0.227 -0.074,0.258 -0.008,0.539 0.215,0.746 0.316,0.297 0.832,0.297 1.152,0.004 0.082,-0.07 0.141,-0.156 0.18,-0.246 0.07,-0.258 0,-0.539 -0.215,-0.731 z" />
      <path
         inkscape:connector-curvature="0"
         id="path220"
         style="fill:#efc252;fill-opacity:1;fill-rule:nonzero;stroke:none"
         d="M 38.953,45.023 38.949,43.348 C 38.945,39.613 37.418,35.883 34.367,33.035 28.219,27.293 18.223,27.293 12.043,33.023 8.93,35.91 7.375,39.695 7.383,43.477 v 1.675 c -0.004,-3.781 1.547,-7.566 4.66,-10.453 6.18,-5.734 16.176,-5.73 22.328,0.012 3.047,2.848 4.574,6.578 4.582,10.312 z" />
      <path
         inkscape:connector-curvature="0"
         id="path222"
         style="fill:#e2b34b;fill-opacity:1;fill-rule:nonzero;stroke:none"
         d="M 34.297,55.477 C 40.477,49.746 40.508,40.441 34.371,34.711 28.219,28.969 18.223,28.965 12.043,34.699 5.852,40.441 5.832,49.738 11.98,55.48 c 6.137,5.731 16.125,5.739 22.317,-0.003 z" />
      <path
         inkscape:connector-curvature="0"
         id="path224"
         style="fill:#c6974b;fill-opacity:1;fill-rule:nonzero;stroke:none"
         d="m 36.949,46.164 c -0.406,-0.379 -1.058,-0.387 -1.472,0 -0.09,0.082 -0.165,0.188 -0.215,0.293 -0.168,0.348 -0.098,0.789 0.211,1.078 0.41,0.371 1.066,0.379 1.472,0 0.141,-0.125 0.235,-0.281 0.278,-0.437 0.089,-0.328 0,-0.688 -0.274,-0.934 z" />
      <path
         inkscape:connector-curvature="0"
         id="path226"
         style="fill:#d3a548;fill-opacity:1;fill-rule:nonzero;stroke:none"
         d="m 36.949,46.164 c -0.406,-0.379 -1.058,-0.387 -1.472,0 -0.09,0.082 -0.165,0.188 -0.215,0.293 -0.098,0.328 -0.012,0.684 0.265,0.945 0.407,0.379 1.063,0.379 1.469,0.008 0.102,-0.09 0.176,-0.203 0.227,-0.312 0.089,-0.328 0,-0.688 -0.274,-0.934 z" />
      <path
         inkscape:connector-curvature="0"
         id="path228"
         style="fill:#c6974b;fill-opacity:1;fill-rule:nonzero;stroke:none"
         d="m 30.746,36.398 c -0.348,-0.324 -0.902,-0.332 -1.254,0 -0.078,0.071 -0.144,0.157 -0.187,0.247 -0.141,0.296 -0.082,0.671 0.183,0.917 0.348,0.317 0.907,0.325 1.254,0 0.117,-0.109 0.196,-0.242 0.235,-0.374 0.074,-0.278 0,-0.583 -0.231,-0.79 z" />
      <path
         inkscape:connector-curvature="0"
         id="path230"
         style="fill:#d3a548;fill-opacity:1;fill-rule:nonzero;stroke:none"
         d="m 30.746,36.398 c -0.348,-0.324 -0.902,-0.332 -1.254,0 -0.078,0.071 -0.144,0.157 -0.187,0.247 -0.082,0.277 -0.008,0.582 0.23,0.804 0.344,0.321 0.903,0.321 1.25,0.004 0.086,-0.074 0.149,-0.168 0.192,-0.265 0.074,-0.278 0,-0.583 -0.231,-0.79 z" />
      <path
         inkscape:connector-curvature="0"
         id="path232"
         style="fill:#c6974b;fill-opacity:1;fill-rule:nonzero;stroke:none"
         d="m 30.691,45.535 c -0.304,-0.285 -0.793,-0.289 -1.101,0 -0.07,0.063 -0.125,0.141 -0.164,0.215 -0.125,0.262 -0.074,0.59 0.16,0.809 0.305,0.277 0.797,0.285 1.102,0 0.101,-0.094 0.171,-0.211 0.207,-0.329 0.066,-0.246 0,-0.511 -0.204,-0.695 z" />
      <path
         inkscape:connector-curvature="0"
         id="path234"
         style="fill:#d3a548;fill-opacity:1;fill-rule:nonzero;stroke:none"
         d="m 30.691,45.535 c -0.304,-0.285 -0.793,-0.289 -1.101,0 -0.07,0.063 -0.125,0.141 -0.164,0.215 -0.074,0.246 -0.008,0.516 0.199,0.707 0.305,0.285 0.793,0.285 1.098,0.008 0.078,-0.067 0.132,-0.153 0.172,-0.235 0.066,-0.246 0,-0.511 -0.204,-0.695 z" />
      <path
         inkscape:connector-curvature="0"
         id="path236"
         style="fill:#c6974b;fill-opacity:1;fill-rule:nonzero;stroke:none"
         d="m 27.625,54.625 c -0.375,-0.352 -0.973,-0.355 -1.352,0 -0.085,0.074 -0.152,0.168 -0.199,0.266 -0.156,0.32 -0.09,0.722 0.196,0.988 0.371,0.344 0.976,0.348 1.351,0 0.125,-0.117 0.211,-0.258 0.254,-0.402 0.082,-0.301 0,-0.629 -0.25,-0.852 z" />
      <path
         inkscape:connector-curvature="0"
         id="path238"
         style="fill:#d3a548;fill-opacity:1;fill-rule:nonzero;stroke:none"
         d="m 27.625,54.625 c -0.375,-0.352 -0.973,-0.355 -1.352,0 -0.085,0.074 -0.152,0.168 -0.199,0.266 -0.09,0.3 -0.012,0.625 0.246,0.867 0.368,0.347 0.973,0.347 1.348,0.004 0.09,-0.082 0.16,-0.184 0.207,-0.285 0.082,-0.301 0,-0.629 -0.25,-0.852 z" />
      <path
         inkscape:connector-curvature="0"
         id="path240"
         style="fill:#c6974b;fill-opacity:1;fill-rule:nonzero;stroke:none"
         d="m 31.992,51.25 c -0.344,-0.32 -0.89,-0.324 -1.238,0 -0.078,0.07 -0.141,0.156 -0.184,0.242 -0.14,0.297 -0.082,0.664 0.18,0.91 0.344,0.313 0.895,0.317 1.238,0 0.117,-0.109 0.196,-0.238 0.235,-0.371 0.074,-0.273 0,-0.574 -0.231,-0.781 z" />
      <path
         inkscape:connector-curvature="0"
         id="path242"
         style="fill:#d3a548;fill-opacity:1;fill-rule:nonzero;stroke:none"
         d="m 31.992,51.25 c -0.344,-0.32 -0.89,-0.324 -1.238,0 -0.078,0.07 -0.141,0.156 -0.184,0.242 -0.082,0.278 -0.008,0.578 0.227,0.797 0.34,0.32 0.891,0.32 1.234,0.004 0.086,-0.074 0.149,-0.168 0.192,-0.262 0.074,-0.273 0,-0.574 -0.231,-0.781 z" />
      <path
         inkscape:connector-curvature="0"
         id="path244"
         style="fill:#c6974b;fill-opacity:1;fill-rule:nonzero;stroke:none"
         d="m 23.34,50.211 c -0.352,-0.328 -0.918,-0.336 -1.274,0 -0.078,0.07 -0.144,0.16 -0.187,0.25 -0.145,0.301 -0.082,0.68 0.183,0.93 0.352,0.324 0.922,0.328 1.274,0 0.117,-0.11 0.199,-0.243 0.238,-0.379 0.078,-0.282 0,-0.59 -0.234,-0.801 z" />
      <path
         inkscape:connector-curvature="0"
         id="path246"
         style="fill:#d3a548;fill-opacity:1;fill-rule:nonzero;stroke:none"
         d="m 23.34,50.211 c -0.352,-0.328 -0.918,-0.336 -1.274,0 -0.078,0.07 -0.144,0.16 -0.187,0.25 -0.082,0.281 -0.008,0.59 0.234,0.816 0.348,0.328 0.914,0.328 1.266,0.004 0.09,-0.074 0.152,-0.172 0.195,-0.269 0.078,-0.282 0,-0.59 -0.234,-0.801 z" />
      <path
         inkscape:connector-curvature="0"
         id="path248"
         style="fill:#c6974b;fill-opacity:1;fill-rule:nonzero;stroke:none"
         d="m 17.652,36.098 c -0.41,-0.379 -1.062,-0.387 -1.472,0 -0.094,0.082 -0.168,0.183 -0.219,0.289 -0.168,0.351 -0.098,0.789 0.211,1.078 0.41,0.375 1.066,0.383 1.473,0 0.14,-0.125 0.234,-0.281 0.281,-0.438 0.086,-0.328 0,-0.683 -0.274,-0.929 z" />
      <path
         inkscape:connector-curvature="0"
         id="path250"
         style="fill:#d3a548;fill-opacity:1;fill-rule:nonzero;stroke:none"
         d="m 17.652,36.098 c -0.41,-0.379 -1.062,-0.387 -1.472,0 -0.094,0.082 -0.168,0.183 -0.219,0.289 -0.098,0.328 -0.012,0.683 0.269,0.945 0.403,0.379 1.059,0.379 1.469,0.008 0.102,-0.09 0.176,-0.199 0.227,-0.313 0.086,-0.328 0,-0.683 -0.274,-0.929 z" />
      <path
         inkscape:connector-curvature="0"
         id="path252"
         style="fill:#c6974b;fill-opacity:1;fill-rule:nonzero;stroke:none"
         d="m 19.914,55.836 c -0.316,-0.293 -0.82,-0.301 -1.137,0 -0.07,0.062 -0.129,0.141 -0.168,0.223 -0.129,0.269 -0.074,0.609 0.164,0.832 0.313,0.285 0.821,0.293 1.137,0 0.106,-0.098 0.176,-0.219 0.215,-0.34 0.066,-0.25 0,-0.528 -0.211,-0.715 z" />
      <path
         inkscape:connector-curvature="0"
         id="path254"
         style="fill:#d3a548;fill-opacity:1;fill-rule:nonzero;stroke:none"
         d="m 19.914,55.836 c -0.316,-0.293 -0.82,-0.301 -1.137,0 -0.07,0.062 -0.129,0.141 -0.168,0.223 -0.074,0.25 -0.007,0.527 0.207,0.726 0.309,0.293 0.817,0.293 1.133,0.008 0.078,-0.07 0.133,-0.156 0.176,-0.242 0.066,-0.25 0,-0.528 -0.211,-0.715 z" />
      <path
         inkscape:connector-curvature="0"
         id="path256"
         style="fill:#c6974b;fill-opacity:1;fill-rule:nonzero;stroke:none"
         d="m 11.621,42.594 c -0.406,-0.383 -1.062,-0.391 -1.473,0 -0.093,0.082 -0.168,0.183 -0.218,0.289 -0.168,0.347 -0.098,0.789 0.215,1.078 0.406,0.371 1.062,0.379 1.472,0 0.137,-0.125 0.231,-0.281 0.278,-0.438 0.085,-0.328 0,-0.687 -0.274,-0.929 z" />
      <path
         inkscape:connector-curvature="0"
         id="path258"
         style="fill:#d3a548;fill-opacity:1;fill-rule:nonzero;stroke:none"
         d="m 11.621,42.594 c -0.406,-0.383 -1.062,-0.391 -1.473,0 -0.093,0.082 -0.168,0.183 -0.218,0.289 -0.098,0.328 -0.008,0.683 0.269,0.945 0.403,0.379 1.059,0.379 1.469,0.008 0.102,-0.09 0.176,-0.203 0.227,-0.313 0.085,-0.328 0,-0.687 -0.274,-0.929 z" />
      <path
         inkscape:connector-curvature="0"
         id="path260"
         style="fill:#c6974b;fill-opacity:1;fill-rule:nonzero;stroke:none"
         d="m 15.328,49.629 c -0.351,-0.328 -0.918,-0.332 -1.273,0 -0.082,0.07 -0.145,0.164 -0.188,0.254 -0.144,0.301 -0.086,0.679 0.184,0.933 0.351,0.321 0.922,0.329 1.273,0 0.121,-0.109 0.203,-0.246 0.242,-0.382 0.075,-0.282 0,-0.59 -0.238,-0.805 z" />
      <path
         inkscape:connector-curvature="0"
         id="path262"
         style="fill:#d3a548;fill-opacity:1;fill-rule:nonzero;stroke:none"
         d="m 15.328,49.629 c -0.351,-0.328 -0.918,-0.332 -1.273,0 -0.082,0.07 -0.145,0.164 -0.188,0.254 -0.086,0.281 -0.008,0.59 0.231,0.816 0.347,0.328 0.918,0.328 1.273,0.008 0.086,-0.078 0.152,-0.176 0.195,-0.273 0.075,-0.282 0,-0.59 -0.238,-0.805 z" />
      <path
         inkscape:connector-curvature="0"
         id="path264"
         style="fill:#c6974b;fill-opacity:1;fill-rule:nonzero;stroke:none"
         d="m 18.574,43.449 c -0.344,-0.316 -0.886,-0.324 -1.234,0 -0.078,0.071 -0.137,0.156 -0.18,0.242 -0.14,0.293 -0.082,0.661 0.176,0.903 0.344,0.312 0.891,0.32 1.234,0 0.114,-0.106 0.192,-0.235 0.231,-0.367 0.074,-0.274 0,-0.571 -0.227,-0.778 z" />
      <path
         inkscape:connector-curvature="0"
         id="path266"
         style="fill:#d3a548;fill-opacity:1;fill-rule:nonzero;stroke:none"
         d="m 18.574,43.449 c -0.344,-0.316 -0.886,-0.324 -1.234,0 -0.078,0.071 -0.137,0.156 -0.18,0.242 -0.082,0.274 -0.008,0.575 0.223,0.793 0.336,0.317 0.887,0.317 1.23,0.004 0.082,-0.074 0.145,-0.168 0.188,-0.261 0.074,-0.274 0,-0.571 -0.227,-0.778 z" />
      <path
         inkscape:connector-curvature="0"
         id="path268"
         style="fill:#c6974b;fill-opacity:1;fill-rule:nonzero;stroke:none"
         d="m 25.598,42.527 c -0.407,-0.379 -1.059,-0.386 -1.473,0 -0.09,0.082 -0.164,0.188 -0.215,0.289 -0.168,0.352 -0.098,0.789 0.211,1.079 0.41,0.375 1.067,0.382 1.473,0 0.14,-0.125 0.234,-0.282 0.277,-0.438 0.09,-0.328 0,-0.684 -0.273,-0.93 z" />
      <path
         inkscape:connector-curvature="0"
         id="path270"
         style="fill:#d3a548;fill-opacity:1;fill-rule:nonzero;stroke:none"
         d="m 25.598,42.527 c -0.407,-0.379 -1.059,-0.386 -1.473,0 -0.09,0.082 -0.164,0.188 -0.215,0.289 -0.098,0.329 -0.012,0.684 0.266,0.946 0.406,0.379 1.062,0.379 1.469,0.008 0.101,-0.09 0.175,-0.2 0.226,-0.313 0.09,-0.328 0,-0.684 -0.273,-0.93 z" />
      <path
         inkscape:connector-curvature="0"
         id="path272"
         style="fill:#c6974b;fill-opacity:1;fill-rule:nonzero;stroke:none"
         d="m 35.629,40.363 c -0.328,-0.304 -0.856,-0.312 -1.188,0 -0.074,0.067 -0.136,0.149 -0.175,0.235 -0.133,0.281 -0.078,0.632 0.172,0.867 0.328,0.301 0.859,0.308 1.187,0 0.109,-0.102 0.187,-0.227 0.223,-0.352 0.07,-0.265 0,-0.554 -0.219,-0.75 z" />
      <path
         inkscape:connector-curvature="0"
         id="path274"
         style="fill:#d3a548;fill-opacity:1;fill-rule:nonzero;stroke:none"
         d="m 35.629,40.363 c -0.328,-0.304 -0.856,-0.312 -1.188,0 -0.074,0.067 -0.136,0.149 -0.175,0.235 -0.078,0.261 -0.008,0.55 0.214,0.761 0.329,0.305 0.856,0.305 1.184,0.004 0.082,-0.07 0.145,-0.16 0.184,-0.25 0.07,-0.265 0,-0.554 -0.219,-0.75 z" />
      <path
         inkscape:connector-curvature="0"
         id="path276"
         style="fill:#c6974b;fill-opacity:1;fill-rule:nonzero;stroke:none"
         d="m 24.375,34.25 c -0.32,-0.301 -0.836,-0.305 -1.16,0 -0.07,0.062 -0.129,0.145 -0.172,0.227 -0.129,0.277 -0.074,0.621 0.168,0.851 0.32,0.293 0.84,0.297 1.16,0 0.109,-0.101 0.184,-0.223 0.219,-0.348 0.07,-0.257 0,-0.539 -0.215,-0.73 z" />
      <path
         inkscape:connector-curvature="0"
         id="path278"
         style="fill:#d3a548;fill-opacity:1;fill-rule:nonzero;stroke:none"
         d="m 24.375,34.25 c -0.32,-0.301 -0.836,-0.305 -1.16,0 -0.07,0.062 -0.129,0.145 -0.172,0.227 -0.074,0.257 -0.008,0.539 0.215,0.746 0.316,0.297 0.832,0.297 1.152,0.004 0.082,-0.071 0.141,-0.157 0.18,-0.247 0.07,-0.257 0,-0.539 -0.215,-0.73 z" />
      <path
         inkscape:connector-curvature="0"
         id="path280"
         style="fill:#efc252;fill-opacity:1;fill-rule:nonzero;stroke:none"
         d="M 38.953,49.238 38.949,47.566 C 38.945,43.832 37.418,40.102 34.367,37.254 28.219,31.512 18.223,31.508 12.043,37.242 8.93,40.129 7.375,43.914 7.383,47.695 v 1.676 c -0.004,-3.781 1.547,-7.566 4.66,-10.453 6.18,-5.734 16.176,-5.73 22.328,0.012 3.047,2.847 4.574,6.574 4.582,10.308 z" />
      <path
         inkscape:connector-curvature="0"
         id="path282"
         style="fill:#e2b34b;fill-opacity:1;fill-rule:nonzero;stroke:none"
         d="M 34.297,59.695 C 40.477,53.961 40.508,44.66 34.371,38.93 28.219,33.188 18.223,33.184 12.043,38.918 5.852,44.66 5.832,53.953 11.98,59.695 c 6.137,5.735 16.125,5.743 22.317,0 z" />
      <path
         inkscape:connector-curvature="0"
         id="path284"
         style="fill:#c6974b;fill-opacity:1;fill-rule:nonzero;stroke:none"
         d="m 36.949,50.383 c -0.406,-0.379 -1.058,-0.387 -1.472,0 -0.09,0.082 -0.165,0.187 -0.215,0.293 -0.168,0.347 -0.098,0.789 0.211,1.078 0.41,0.371 1.066,0.379 1.472,0 0.141,-0.129 0.235,-0.285 0.278,-0.442 0.089,-0.324 0,-0.683 -0.274,-0.929 z" />
      <path
         inkscape:connector-curvature="0"
         id="path286"
         style="fill:#d3a548;fill-opacity:1;fill-rule:nonzero;stroke:none"
         d="m 36.949,50.383 c -0.406,-0.379 -1.058,-0.387 -1.472,0 -0.09,0.082 -0.165,0.187 -0.215,0.293 -0.098,0.324 -0.012,0.683 0.265,0.945 0.407,0.379 1.063,0.379 1.469,0.004 0.102,-0.086 0.176,-0.199 0.227,-0.313 0.089,-0.324 0,-0.683 -0.274,-0.929 z" />
      <path
         inkscape:connector-curvature="0"
         id="path288"
         style="fill:#c6974b;fill-opacity:1;fill-rule:nonzero;stroke:none"
         d="m 30.746,40.617 c -0.348,-0.324 -0.902,-0.332 -1.254,0 -0.078,0.067 -0.144,0.156 -0.187,0.246 -0.141,0.297 -0.082,0.672 0.183,0.918 0.348,0.317 0.907,0.321 1.254,0 0.117,-0.109 0.196,-0.242 0.235,-0.375 0.074,-0.277 0,-0.582 -0.231,-0.789 z" />
      <path
         inkscape:connector-curvature="0"
         id="path290"
         style="fill:#d3a548;fill-opacity:1;fill-rule:nonzero;stroke:none"
         d="m 30.746,40.617 c -0.348,-0.324 -0.902,-0.332 -1.254,0 -0.078,0.067 -0.144,0.156 -0.187,0.246 -0.082,0.278 -0.008,0.582 0.23,0.805 0.344,0.32 0.903,0.32 1.25,0.004 0.086,-0.074 0.149,-0.172 0.192,-0.266 0.074,-0.277 0,-0.582 -0.231,-0.789 z" />
      <path
         inkscape:connector-curvature="0"
         id="path292"
         style="fill:#c6974b;fill-opacity:1;fill-rule:nonzero;stroke:none"
         d="m 30.691,49.754 c -0.304,-0.285 -0.793,-0.289 -1.101,0 -0.07,0.058 -0.125,0.137 -0.164,0.215 -0.125,0.261 -0.074,0.59 0.16,0.808 0.305,0.278 0.797,0.282 1.102,0 0.101,-0.093 0.171,-0.211 0.207,-0.328 0.066,-0.246 0,-0.511 -0.204,-0.695 z" />
      <path
         inkscape:connector-curvature="0"
         id="path294"
         style="fill:#d3a548;fill-opacity:1;fill-rule:nonzero;stroke:none"
         d="m 30.691,49.754 c -0.304,-0.285 -0.793,-0.289 -1.101,0 -0.07,0.058 -0.125,0.137 -0.164,0.215 -0.074,0.246 -0.008,0.511 0.199,0.707 0.305,0.285 0.793,0.285 1.098,0.008 0.078,-0.067 0.132,-0.153 0.172,-0.235 0.066,-0.246 0,-0.511 -0.204,-0.695 z" />
      <path
         inkscape:connector-curvature="0"
         id="path296"
         style="fill:#c6974b;fill-opacity:1;fill-rule:nonzero;stroke:none"
         d="m 27.625,58.84 c -0.375,-0.348 -0.973,-0.356 -1.352,0 -0.085,0.078 -0.152,0.172 -0.199,0.269 -0.156,0.321 -0.09,0.723 0.196,0.989 0.371,0.34 0.976,0.347 1.351,0 0.125,-0.118 0.211,-0.258 0.254,-0.403 0.082,-0.3 0,-0.629 -0.25,-0.855 z" />
      <path
         inkscape:connector-curvature="0"
         id="path298"
         style="fill:#d3a548;fill-opacity:1;fill-rule:nonzero;stroke:none"
         d="m 27.625,58.84 c -0.375,-0.348 -0.973,-0.356 -1.352,0 -0.085,0.078 -0.152,0.172 -0.199,0.269 -0.09,0.297 -0.012,0.625 0.246,0.864 0.368,0.351 0.973,0.351 1.348,0.007 0.09,-0.082 0.16,-0.183 0.207,-0.285 0.082,-0.3 0,-0.629 -0.25,-0.855 z" />
      <path
         inkscape:connector-curvature="0"
         id="path300"
         style="fill:#c6974b;fill-opacity:1;fill-rule:nonzero;stroke:none"
         d="m 31.992,55.469 c -0.344,-0.321 -0.89,-0.324 -1.238,0 -0.078,0.066 -0.141,0.156 -0.184,0.242 -0.14,0.297 -0.082,0.664 0.18,0.91 0.344,0.313 0.895,0.317 1.238,0 0.117,-0.109 0.196,-0.238 0.235,-0.371 0.074,-0.273 0,-0.574 -0.231,-0.781 z" />
      <path
         inkscape:connector-curvature="0"
         id="path302"
         style="fill:#d3a548;fill-opacity:1;fill-rule:nonzero;stroke:none"
         d="m 31.992,55.469 c -0.344,-0.321 -0.89,-0.324 -1.238,0 -0.078,0.066 -0.141,0.156 -0.184,0.242 -0.082,0.277 -0.008,0.578 0.227,0.797 0.34,0.316 0.891,0.316 1.234,0.004 0.086,-0.074 0.149,-0.168 0.192,-0.262 0.074,-0.273 0,-0.574 -0.231,-0.781 z" />
      <path
         inkscape:connector-curvature="0"
         id="path304"
         style="fill:#c6974b;fill-opacity:1;fill-rule:nonzero;stroke:none"
         d="m 23.34,54.43 c -0.352,-0.328 -0.918,-0.336 -1.274,0 -0.078,0.07 -0.144,0.16 -0.187,0.25 -0.145,0.3 -0.082,0.679 0.183,0.929 0.352,0.321 0.922,0.329 1.274,0 0.117,-0.109 0.199,-0.242 0.238,-0.379 0.078,-0.281 0,-0.589 -0.234,-0.8 z" />
      <path
         inkscape:connector-curvature="0"
         id="path306"
         style="fill:#d3a548;fill-opacity:1;fill-rule:nonzero;stroke:none"
         d="m 23.34,54.43 c -0.352,-0.328 -0.918,-0.336 -1.274,0 -0.078,0.07 -0.144,0.16 -0.187,0.25 -0.082,0.281 -0.008,0.59 0.234,0.816 0.348,0.328 0.914,0.328 1.266,0.004 0.09,-0.074 0.152,-0.172 0.195,-0.27 0.078,-0.281 0,-0.589 -0.234,-0.8 z" />
      <path
         inkscape:connector-curvature="0"
         id="path308"
         style="fill:#c6974b;fill-opacity:1;fill-rule:nonzero;stroke:none"
         d="m 17.652,40.316 c -0.41,-0.382 -1.062,-0.386 -1.472,0 -0.094,0.082 -0.168,0.184 -0.219,0.289 -0.168,0.352 -0.098,0.79 0.211,1.079 0.41,0.371 1.066,0.378 1.473,0 0.14,-0.125 0.234,-0.282 0.281,-0.438 0.086,-0.328 0,-0.684 -0.274,-0.93 z" />
      <path
         inkscape:connector-curvature="0"
         id="path310"
         style="fill:#d3a548;fill-opacity:1;fill-rule:nonzero;stroke:none"
         d="m 17.652,40.316 c -0.41,-0.382 -1.062,-0.386 -1.472,0 -0.094,0.082 -0.168,0.184 -0.219,0.289 -0.098,0.329 -0.012,0.684 0.269,0.946 0.403,0.379 1.059,0.379 1.469,0.008 0.102,-0.09 0.176,-0.204 0.227,-0.313 0.086,-0.328 0,-0.684 -0.274,-0.93 z" />
      <path
         inkscape:connector-curvature="0"
         id="path312"
         style="fill:#c6974b;fill-opacity:1;fill-rule:nonzero;stroke:none"
         d="m 19.914,60.051 c -0.316,-0.293 -0.82,-0.297 -1.137,0 -0.07,0.066 -0.129,0.144 -0.168,0.226 -0.129,0.27 -0.074,0.606 0.164,0.832 0.313,0.286 0.821,0.293 1.137,0 0.106,-0.097 0.176,-0.218 0.215,-0.339 0.066,-0.254 0,-0.528 -0.211,-0.719 z" />
      <path
         inkscape:connector-curvature="0"
         id="path314"
         style="fill:#d3a548;fill-opacity:1;fill-rule:nonzero;stroke:none"
         d="m 19.914,60.051 c -0.316,-0.293 -0.82,-0.297 -1.137,0 -0.07,0.066 -0.129,0.144 -0.168,0.226 -0.074,0.25 -0.007,0.528 0.207,0.727 0.309,0.293 0.817,0.293 1.133,0.008 0.078,-0.071 0.133,-0.157 0.176,-0.242 0.066,-0.254 0,-0.528 -0.211,-0.719 z" />
      <path
         inkscape:connector-curvature="0"
         id="path316"
         style="fill:#c6974b;fill-opacity:1;fill-rule:nonzero;stroke:none"
         d="m 11.621,46.809 c -0.406,-0.379 -1.062,-0.387 -1.473,0 -0.093,0.082 -0.168,0.187 -0.218,0.293 -0.168,0.347 -0.098,0.789 0.215,1.078 0.406,0.371 1.062,0.379 1.472,0 0.137,-0.125 0.231,-0.282 0.278,-0.438 0.085,-0.328 0,-0.687 -0.274,-0.933 z" />
      <path
         inkscape:connector-curvature="0"
         id="path318"
         style="fill:#d3a548;fill-opacity:1;fill-rule:nonzero;stroke:none"
         d="m 11.621,46.809 c -0.406,-0.379 -1.062,-0.387 -1.473,0 -0.093,0.082 -0.168,0.187 -0.218,0.293 -0.098,0.328 -0.008,0.683 0.269,0.945 0.403,0.379 1.059,0.379 1.469,0.008 0.102,-0.09 0.176,-0.203 0.227,-0.313 0.085,-0.328 0,-0.687 -0.274,-0.933 z" />
      <path
         inkscape:connector-curvature="0"
         id="path320"
         style="fill:#c6974b;fill-opacity:1;fill-rule:nonzero;stroke:none"
         d="m 15.328,53.848 c -0.351,-0.328 -0.918,-0.336 -1.273,0 -0.082,0.07 -0.145,0.16 -0.188,0.25 -0.144,0.304 -0.086,0.683 0.184,0.937 0.351,0.32 0.922,0.328 1.273,0 0.121,-0.109 0.203,-0.246 0.242,-0.383 0.075,-0.281 0,-0.59 -0.238,-0.804 z" />
      <path
         inkscape:connector-curvature="0"
         id="path322"
         style="fill:#d3a548;fill-opacity:1;fill-rule:nonzero;stroke:none"
         d="m 15.328,53.848 c -0.351,-0.328 -0.918,-0.336 -1.273,0 -0.082,0.07 -0.145,0.16 -0.188,0.25 -0.086,0.285 -0.008,0.593 0.231,0.82 0.347,0.328 0.918,0.328 1.273,0.008 0.086,-0.078 0.152,-0.176 0.195,-0.274 0.075,-0.281 0,-0.59 -0.238,-0.804 z" />
      <path
         inkscape:connector-curvature="0"
         id="path324"
         style="fill:#c6974b;fill-opacity:1;fill-rule:nonzero;stroke:none"
         d="m 18.574,47.668 c -0.344,-0.316 -0.886,-0.324 -1.234,0 -0.078,0.066 -0.137,0.156 -0.18,0.242 -0.14,0.293 -0.082,0.66 0.176,0.902 0.344,0.313 0.891,0.317 1.234,0 0.114,-0.105 0.192,-0.234 0.231,-0.367 0.074,-0.273 0,-0.574 -0.227,-0.777 z" />
      <path
         inkscape:connector-curvature="0"
         id="path326"
         style="fill:#d3a548;fill-opacity:1;fill-rule:nonzero;stroke:none"
         d="m 18.574,47.668 c -0.344,-0.316 -0.886,-0.324 -1.234,0 -0.078,0.066 -0.137,0.156 -0.18,0.242 -0.082,0.274 -0.008,0.574 0.223,0.789 0.336,0.321 0.887,0.321 1.23,0.008 0.082,-0.074 0.145,-0.168 0.188,-0.262 0.074,-0.273 0,-0.574 -0.227,-0.777 z" />
      <path
         inkscape:connector-curvature="0"
         id="path328"
         style="fill:#c6974b;fill-opacity:1;fill-rule:nonzero;stroke:none"
         d="m 25.598,46.746 c -0.407,-0.379 -1.059,-0.387 -1.473,0 -0.09,0.082 -0.164,0.184 -0.215,0.289 -0.168,0.352 -0.098,0.789 0.211,1.078 0.41,0.375 1.067,0.379 1.473,0 0.14,-0.125 0.234,-0.281 0.277,-0.437 0.09,-0.328 0,-0.684 -0.273,-0.93 z" />
      <path
         inkscape:connector-curvature="0"
         id="path330"
         style="fill:#d3a548;fill-opacity:1;fill-rule:nonzero;stroke:none"
         d="m 25.598,46.746 c -0.407,-0.379 -1.059,-0.387 -1.473,0 -0.09,0.082 -0.164,0.184 -0.215,0.289 -0.098,0.328 -0.012,0.684 0.266,0.945 0.406,0.379 1.062,0.379 1.469,0.008 0.101,-0.09 0.175,-0.203 0.226,-0.312 0.09,-0.328 0,-0.684 -0.273,-0.93 z" />
      <path
         inkscape:connector-curvature="0"
         id="path332"
         style="fill:#c6974b;fill-opacity:1;fill-rule:nonzero;stroke:none"
         d="m 35.629,44.582 c -0.328,-0.309 -0.856,-0.312 -1.188,0 -0.074,0.066 -0.136,0.148 -0.175,0.234 -0.133,0.282 -0.078,0.633 0.172,0.868 0.328,0.3 0.859,0.304 1.187,0 0.109,-0.102 0.187,-0.227 0.223,-0.352 0.07,-0.266 0,-0.555 -0.219,-0.75 z" />
      <path
         inkscape:connector-curvature="0"
         id="path334"
         style="fill:#d3a548;fill-opacity:1;fill-rule:nonzero;stroke:none"
         d="m 35.629,44.582 c -0.328,-0.309 -0.856,-0.312 -1.188,0 -0.074,0.066 -0.136,0.148 -0.175,0.234 -0.078,0.262 -0.008,0.551 0.214,0.762 0.329,0.305 0.856,0.305 1.184,0.004 0.082,-0.07 0.145,-0.16 0.184,-0.25 0.07,-0.266 0,-0.555 -0.219,-0.75 z" />
      <path
         inkscape:connector-curvature="0"
         id="path336"
         style="fill:#c6974b;fill-opacity:1;fill-rule:nonzero;stroke:none"
         d="m 24.375,38.465 c -0.32,-0.297 -0.836,-0.305 -1.16,0 -0.07,0.066 -0.129,0.148 -0.172,0.23 -0.129,0.274 -0.074,0.621 0.168,0.848 0.32,0.293 0.84,0.301 1.16,0 0.109,-0.098 0.184,-0.223 0.219,-0.344 0.07,-0.258 0,-0.539 -0.215,-0.734 z" />
      <path
         inkscape:connector-curvature="0"
         id="path338"
         style="fill:#d3a548;fill-opacity:1;fill-rule:nonzero;stroke:none"
         d="m 24.375,38.465 c -0.32,-0.297 -0.836,-0.305 -1.16,0 -0.07,0.066 -0.129,0.148 -0.172,0.23 -0.074,0.258 -0.008,0.539 0.215,0.743 0.316,0.3 0.832,0.3 1.152,0.007 0.082,-0.07 0.141,-0.16 0.18,-0.246 0.07,-0.258 0,-0.539 -0.215,-0.734 z" />
      <path
         inkscape:connector-curvature="0"
         id="path340"
         style="fill:#d9242b;fill-opacity:1;fill-rule:nonzero;stroke:none"
         d="m 32.094,44.105 c 0,0 -1.742,-0.332 -3.192,-0.21 0,0 -3.722,0.121 -6.175,-0.305 -2.45,-0.434 -6.301,-0.883 -8.071,1.043 -1.769,1.929 -0.136,3.457 -0.136,3.457 l 2.132,1.187 c 0.403,0.235 0.789,0.563 1.118,1.012 0.382,0.523 0.668,1.172 0.046,1.438 0,0 -4.367,0.988 -1.546,2.812 0,0 5.492,2.723 12.695,0.363 0,0 2.5,-1.312 2.871,-3.703 0,0 0.109,-1.375 1.848,-3.094 0,0 2.062,-2.757 -1.59,-4 z" />
      <path
         inkscape:connector-curvature="0"
         id="path342"
         style="fill:#ed1b24;fill-opacity:1;fill-rule:nonzero;stroke:none"
         d="m 15.25,46.398 c 1.031,0.567 4.312,1.899 4.16,4.961 -0.051,1.176 -0.531,1.743 -0.91,2.02 1.496,0.465 3.016,0.719 4.504,0.879 -1.652,0.164 -3.555,0 -5.434,-0.543 -0.211,-0.063 -0.211,-0.551 0,-0.613 -0.047,0.015 0.301,-0.09 0.395,-0.118 1.601,-0.726 1.324,-3.593 -1.36,-5.011 l -1.71,-0.969 c -0.125,-0.09 -0.395,-0.481 -0.227,-0.77 1.445,-2.5 5.863,-1.601 7.949,-1.046 -1.672,-0.149 -5.969,-0.571 -7.367,1.21 z" />
      <path
         inkscape:connector-curvature="0"
         id="path344"
         style="fill:#ed1b24;fill-opacity:1;fill-rule:nonzero;stroke:none"
         d="m 33.227,47.141 c -3.122,3.421 -1.395,3.836 -3.239,5.402 -0.41,0.348 -0.836,0.637 -1.281,0.805 0.582,-0.453 1.809,-1.575 1.977,-2.582 l -0.004,0.019 c 0.211,-1.777 1.242,-3.223 2.179,-4.215 -1.175,-0.933 -3.293,-0.742 -5.179,-1.054 2.531,-0.485 3.316,-0.258 4.293,-0.188 0.988,0.34 1.031,0.496 1.437,0.867 0.094,0.114 -0.074,0.836 -0.183,0.946 z" />
      <path
         inkscape:connector-curvature="0"
         id="path346"
         style="fill:#e2b34b;fill-opacity:1;fill-rule:nonzero;stroke:none"
         d="m 27.449,52.227 -0.004,-3.93 -2.82,-2.633 0.008,3.93 z" />
      <path
         inkscape:connector-curvature="0"
         id="path348"
         style="fill:#efc252;fill-opacity:1;fill-rule:nonzero;stroke:none"
         d="m 24.633,49.594 -0.008,-3.93 -2.844,2.637 0.008,3.929 z" />
      <path
         inkscape:connector-curvature="0"
         id="path350"
         style="fill:#fcd357;fill-opacity:1;fill-rule:nonzero;stroke:none"
         d="m 27.449,52.227 -2.816,-2.633 -2.844,2.636 2.82,2.629 z" />
      <path
         inkscape:connector-curvature="0"
         id="path352"
         style="fill:#5e5d5b;fill-opacity:1;fill-rule:nonzero;stroke:none"
         d="m 57.16,35.625 c 0,-0.125 0,-0.254 -0.008,-0.379 -0.105,-7.574 -3.617,-13.641 -7.937,-13.641 -4.391,0 -7.953,6.274 -7.953,14.02 0,0.129 0.008,0.254 0.008,0.367 0.093,1.762 0.859,3.512 2.304,4.86 3.09,2.89 8.125,2.89 11.242,0 1.555,-1.438 2.336,-3.34 2.344,-5.227 z" />
      <path
         inkscape:connector-curvature="0"
         id="path354"
         style="fill:#565553;fill-opacity:1;fill-rule:nonzero;stroke:none"
         d="m 57.16,35.625 c 0,-0.125 0,-0.254 -0.008,-0.379 -0.093,-1.762 -0.859,-3.512 -2.304,-4.859 -3.098,-2.887 -8.125,-2.887 -11.235,0 -1.562,1.453 -2.351,3.34 -2.351,5.238 0,0.129 0.008,0.254 0.008,0.367 0.093,1.762 0.859,3.512 2.304,4.86 3.09,2.89 8.125,2.89 11.242,0 1.555,-1.438 2.336,-3.34 2.344,-5.227 z" />
      <path
         inkscape:connector-curvature="0"
         id="path356"
         style="fill:#5e5d5b;fill-opacity:1;fill-rule:nonzero;stroke:none"
         d="m 56.703,35.625 c 0,-0.121 0,-0.238 -0.004,-0.355 -0.031,-0.559 -0.137,-1.11 -0.312,-1.649 -0.34,1.082 -0.973,2.106 -1.891,2.949 -2.937,2.731 -7.687,2.731 -10.594,0 -0.91,-0.843 -1.531,-1.859 -1.875,-2.933 -0.203,0.644 -0.308,1.32 -0.308,1.988 0,0.117 0.004,0.234 0.004,0.344 0.089,1.664 0.812,3.312 2.179,4.582 2.907,2.719 7.657,2.719 10.594,0 1.465,-1.352 2.203,-3.145 2.207,-4.926 z" />
      <path
         inkscape:connector-curvature="0"
         id="path358"
         style="fill:#d9242b;fill-opacity:1;fill-rule:nonzero;stroke:none"
         d="m 43.934,30.688 c 2.929,-2.723 7.671,-2.723 10.589,0 0.907,0.847 1.528,1.863 1.868,2.937 -0.348,1.078 -0.977,2.098 -1.895,2.949 -2.937,2.723 -7.687,2.723 -10.598,0 -0.91,-0.847 -1.527,-1.863 -1.867,-2.937 0.348,-1.078 0.981,-2.094 1.903,-2.949 z" />
      <path
         inkscape:connector-curvature="0"
         id="path360"
         style="fill:#fbc6be;fill-opacity:1;fill-rule:nonzero;stroke:none"
         d="m 52.617,34.414 5.914,8.289 c 0,0 3.285,5.688 3.949,3.91 0,0 0.442,-1.019 -1.449,-3.238 L 53.062,34" />
      <path
         inkscape:connector-curvature="0"
         id="path362"
         style="fill:#d9242b;fill-opacity:1;fill-rule:nonzero;stroke:none"
         d="m 51.453,35.512 c 0.211,0.031 0.422,0 0.625,-0.09 0.168,-0.07 0.328,-0.184 0.5,-0.219 0.172,-0.035 0.363,0.027 0.473,0.242 0.054,0.11 0.109,0.266 0.195,0.246 0.043,-0.011 0.078,-0.078 0.109,-0.129 0.094,-0.156 0.223,-0.257 0.356,-0.277 0.047,-0.004 0.094,-0.004 0.137,-0.035 0.047,-0.039 0.078,-0.113 0.113,-0.176 0.074,-0.129 0.184,-0.215 0.293,-0.226 0.039,-0.239 0.082,-0.485 0.051,-0.727 -0.032,-0.269 -0.149,-0.496 -0.274,-0.687 -0.515,-0.793 -1.238,-1.176 -1.953,-1.278 -0.133,-0.019 -0.269,-0.027 -0.398,0.032 -0.196,0.093 -0.348,0.335 -0.45,0.617 -0.097,0.281 -0.152,0.597 -0.199,0.914 -0.043,0.273 -0.078,0.558 -0.035,0.832 0.047,0.269 0.203,0.515 0.375,0.484" />
    </g>
  </g>
</svg>
