<?xml version="1.0" encoding="UTF-8" standalone="no"?>
<svg
   xmlns:dc="http://purl.org/dc/elements/1.1/"
   xmlns:cc="http://creativecommons.org/ns#"
   xmlns:rdf="http://www.w3.org/1999/02/22-rdf-syntax-ns#"
   xmlns:svg="http://www.w3.org/2000/svg"
   xmlns="http://www.w3.org/2000/svg"
   xmlns:sodipodi="http://sodipodi.sourceforge.net/DTD/sodipodi-0.dtd"
   xmlns:inkscape="http://www.inkscape.org/namespaces/inkscape"
   inkscape:version="1.0beta1 (32d4812, 2019-09-19)"
   sodipodi:docname="salami.svg"
   viewBox="0 0 85.333336 85.333336"
   height="85.333336"
   width="85.333336"
   xml:space="preserve"
   id="svg10"
   version="1.1">
  <metadata
     id="metadata16">
    <rdf:RDF>
      <cc:Work
         rdf:about="">
        <dc:format>image/svg+xml</dc:format>
        <dc:type
           rdf:resource="http://purl.org/dc/dcmitype/StillImage" />
        <dc:title></dc:title>
      </cc:Work>
    </rdf:RDF>
  </metadata>
  <defs
     id="defs14" />
  <sodipodi:namedview
     inkscape:current-layer="svg10"
     inkscape:window-maximized="0"
     inkscape:window-y="23"
     inkscape:window-x="0"
     inkscape:cy="560"
     inkscape:cx="400"
     inkscape:zoom="0.35"
     showgrid="false"
     id="namedview12"
     inkscape:window-height="799"
     inkscape:window-width="1440"
     inkscape:pageshadow="2"
     inkscape:pageopacity="0"
     guidetolerance="10"
     gridtolerance="10"
     objecttolerance="10"
     borderopacity="1"
     inkscape:document-rotation="0"
     bordercolor="#666666"
     pagecolor="#ffffff" />
  <g
     transform="matrix(1.3333333,0,0,-1.3333333,0,85.333333)"
     inkscape:label="salami"
     inkscape:groupmode="layer"
     id="g18">
    <g
       id="g20">
      <path
         inkscape:connector-curvature="0"
         id="path22"
         style="fill:#c4d660;fill-opacity:1;fill-rule:nonzero;stroke:none"
         d="M 64,32 C 64,14.328 49.672,0 32,0 14.328,0 0,14.328 0,32 0,49.672 14.328,64 32,64 49.672,64 64,49.672 64,32 Z" />
      <path
         inkscape:connector-curvature="0"
         id="path24"
         style="fill:#771616;fill-opacity:1;fill-rule:nonzero;stroke:none"
         d="m 51.488,43.25 c 0,0 3.016,2.75 3.227,1.527 0.207,-1.222 -1.051,-2.265 -1.051,-2.265 0,0 3.57,0.418 2.898,-1.094 -0.671,-1.512 -2.898,-0.715 -2.898,-0.715 0,0 3.957,-3.695 0.402,-2.601 -3.55,1.093 -2.578,2.023 -2.578,2.023 z" />
      <path
         inkscape:connector-curvature="0"
         id="path26"
         style="fill:#9f1b24;fill-opacity:1;fill-rule:nonzero;stroke:none"
         d="m 8.488,36.895 c -0.054,4.484 3.192,9.582 7.61,9.699 h 0.152 c 2.09,0 3.695,-1.141 4.68,-2.11 2,-1.968 3.289,-5.05 3.265,-7.843 -0.011,-0.817 -0.117,-1.629 -0.32,-2.418 0,0 13.828,1.941 20.547,1.172 6.211,-0.707 7.531,2.652 7.691,3.16 1.418,5.863 -2.781,12.34 -11.332,12.277 -5.922,-0.043 -12.222,-1.047 -16.984,-2.023 l -8.578,-1.543 -0.246,-0.047 h 0.019 C 10.711,46.375 7.68,41.352 7.73,36.887 7.746,36.047 7.859,35.211 8.07,34.398 l 0.797,-0.007 c -0.234,0.816 -0.359,1.656 -0.379,2.504 z" />
      <path
         inkscape:connector-curvature="0"
         id="path28"
         style="fill:#f297a9;fill-opacity:1;fill-rule:nonzero;stroke:none"
         d="m 24.191,36.641 c 0.024,2.797 -1.257,5.875 -3.261,7.843 -0.989,0.969 -2.594,2.11 -4.684,2.11 H 16.098 C 11.68,46.48 8.434,41.379 8.488,36.895 c 0.032,-2.77 1.395,-5.801 3.477,-7.719 1.07,-0.988 2.808,-2.137 5.019,-1.985 4.207,0.289 7.176,5.211 7.207,9.45 z" />
      <path
         inkscape:connector-curvature="0"
         id="path30"
         style="fill:#f6fbfe;fill-opacity:1;fill-rule:nonzero;stroke:none"
         d="m 17.715,43.363 c 0,-0.679 -0.551,-1.23 -1.231,-1.23 -0.683,0 -1.234,0.551 -1.234,1.23 0,0.684 0.551,1.235 1.234,1.235 0.68,0 1.231,-0.551 1.231,-1.235 z" />
      <path
         inkscape:connector-curvature="0"
         id="path32"
         style="fill:#f6fbfe;fill-opacity:1;fill-rule:nonzero;stroke:none"
         d="m 14.242,40.703 c 0,-0.785 -0.64,-1.426 -1.426,-1.426 -0.789,0 -1.429,0.641 -1.429,1.426 0,0.789 0.64,1.43 1.429,1.43 0.786,0 1.426,-0.641 1.426,-1.43 z" />
      <path
         inkscape:connector-curvature="0"
         id="path34"
         style="fill:#f6fbfe;fill-opacity:1;fill-rule:nonzero;stroke:none"
         d="m 17.715,36.617 c 0,-0.758 -0.613,-1.371 -1.371,-1.371 -0.758,0 -1.371,0.613 -1.371,1.371 0,0.758 0.613,1.371 1.371,1.371 0.758,0 1.371,-0.613 1.371,-1.371 z" />
      <path
         inkscape:connector-curvature="0"
         id="path36"
         style="fill:#f6fbfe;fill-opacity:1;fill-rule:nonzero;stroke:none"
         d="m 20.598,40.691 c 0,-0.457 -0.368,-0.828 -0.825,-0.828 -0.457,0 -0.828,0.371 -0.828,0.828 0,0.457 0.371,0.825 0.828,0.825 0.457,0 0.825,-0.368 0.825,-0.825 z" />
      <path
         inkscape:connector-curvature="0"
         id="path38"
         style="fill:#f6fbfe;fill-opacity:1;fill-rule:nonzero;stroke:none"
         d="m 22.234,36.508 c 0,-0.613 -0.5,-1.113 -1.113,-1.113 -0.613,0 -1.109,0.5 -1.109,1.113 0,0.613 0.496,1.109 1.109,1.109 0.613,0 1.113,-0.496 1.113,-1.109 z" />
      <path
         inkscape:connector-curvature="0"
         id="path40"
         style="fill:#f6fbfe;fill-opacity:1;fill-rule:nonzero;stroke:none"
         d="m 20.598,32.629 c 0,-0.609 -0.496,-1.106 -1.106,-1.106 -0.609,0 -1.105,0.497 -1.105,1.106 0,0.609 0.496,1.105 1.105,1.105 0.61,0 1.106,-0.496 1.106,-1.105 z" />
      <path
         inkscape:connector-curvature="0"
         id="path42"
         style="fill:#f6fbfe;fill-opacity:1;fill-rule:nonzero;stroke:none"
         d="m 17.715,30.852 c 0,-0.512 -0.414,-0.926 -0.926,-0.926 -0.508,0 -0.922,0.414 -0.922,0.926 0,0.507 0.414,0.921 0.922,0.921 0.512,0 0.926,-0.414 0.926,-0.921 z" />
      <path
         inkscape:connector-curvature="0"
         id="path44"
         style="fill:#f6fbfe;fill-opacity:1;fill-rule:nonzero;stroke:none"
         d="m 14.973,33.344 c 0,-0.774 -0.629,-1.403 -1.403,-1.403 -0.773,0 -1.398,0.629 -1.398,1.403 0,0.773 0.625,1.398 1.398,1.398 0.774,0 1.403,-0.625 1.403,-1.398 z" />
      <path
         inkscape:connector-curvature="0"
         id="path46"
         style="fill:#f6fbfe;fill-opacity:1;fill-rule:nonzero;stroke:none"
         d="m 11.836,36.871 c 0,-0.621 -0.504,-1.121 -1.121,-1.121 -0.617,0 -1.121,0.5 -1.121,1.121 0,0.617 0.504,1.117 1.121,1.117 0.617,0 1.121,-0.5 1.121,-1.117 z" />
      <path
         inkscape:connector-curvature="0"
         id="path48"
         style="fill:#7d1715;fill-opacity:1;fill-rule:nonzero;stroke:none"
         d="m 50.266,16.195 c 0,0.004 0,0.008 0,0.008 -0.024,1.024 -0.301,2.02 -0.801,2.91 -1.25,2.18 -3.547,2.793 -5.227,3.25 -0.828,0.219 -2.769,0.739 -5.125,0.258 -4.281,-0.875 -8.773,-4.625 -8.148,-8.164 0.015,-0.086 0.039,-0.164 0.058,-0.25 -0.539,-0.285 -0.875,-0.613 -0.918,-0.984 -0.394,-3.106 5.075,-4.907 7.93,-5.203 2.856,-0.293 8.231,1.25 10.039,2.335 1.196,0.727 1.77,3.059 2.02,4.551 0.113,0.418 0.172,0.852 0.172,1.289 z M 31.703,14.582 c -0.539,3.074 3.692,6.5 7.559,7.289 2.187,0.445 4,-0.039 4.781,-0.25 1.637,-0.437 3.676,-0.98 4.766,-2.887 0.261,-0.453 1.062,-2.062 0.515,-3.812 -0.742,-2.367 -3.512,-3.297 -5.344,-3.914 -2.035,-0.684 -3.792,-0.664 -4.957,-0.653 -1.656,0.016 -2.656,0.028 -3.839,0.555 -0.317,0.145 -3.086,1.438 -3.481,3.672 z" />
      <path
         inkscape:connector-curvature="0"
         id="path50"
         style="fill:#f297a9;fill-opacity:1;fill-rule:nonzero;stroke:none"
         d="m 35.18,10.914 c 1.183,-0.527 2.183,-0.539 3.84,-0.555 1.168,-0.011 2.925,-0.031 4.957,0.653 1.835,0.613 4.605,1.543 5.347,3.91 0.547,1.75 -0.25,3.363 -0.515,3.816 -1.094,1.907 -3.125,2.45 -4.766,2.887 -0.777,0.207 -2.594,0.691 -4.781,0.25 -3.867,-0.789 -8.098,-4.215 -7.559,-7.293 0.395,-2.234 3.164,-3.527 3.477,-3.668 z" />
      <path
         inkscape:connector-curvature="0"
         id="path52"
         style="fill:#7d1715;fill-opacity:1;fill-rule:nonzero;stroke:none"
         d="m 38.141,23.539 c -0.286,1.41 -1.207,2.375 -1.676,2.875 -0.926,0.945 -2.082,1.637 -3.356,2 -2.636,0.82 -4.988,0.125 -6.543,-0.336 -1.484,-0.441 -2.898,-1.101 -4.191,-1.953 -1.199,-0.766 -2.23,-1.762 -3.047,-2.93 -0.535,-0.781 -1.094,-1.586 -1.211,-2.781 -0.015,-0.152 -0.019,-0.301 -0.019,-0.441 0,0 -0.5,-5.965 4.586,-7.309 5.082,-1.344 13.773,2.395 15.125,5.543 1.347,3.152 0.332,5.332 0.332,5.332 z M 18.875,20.344 c 0.098,1 0.578,1.691 1.082,2.426 0.754,1.089 1.719,2.015 2.832,2.73 1.231,0.812 2.574,1.438 3.988,1.859 1.032,0.305 2.321,0.684 3.778,0.684 0.789,0.004 1.574,-0.113 2.328,-0.348 1.152,-0.328 2.195,-0.949 3.031,-1.804 0.508,-0.532 1.453,-1.524 1.547,-2.985 0.078,-1.218 -0.492,-2.152 -0.867,-2.773 -1.285,-2.102 -3.313,-3.035 -4.793,-3.715 -1.887,-0.871 -3.93,-1.344 -6.008,-1.395 -1.598,-0.035 -3.25,-0.07 -4.731,0.965 -0.722,0.5 -1.308,1.172 -1.699,1.957 -0.16,0.34 -0.605,1.246 -0.488,2.399 z" />
      <path
         inkscape:connector-curvature="0"
         id="path54"
         style="fill:#f297a9;fill-opacity:1;fill-rule:nonzero;stroke:none"
         d="m 19.367,17.941 c 0.391,-0.785 0.973,-1.457 1.699,-1.957 1.477,-1.035 3.133,-1 4.731,-0.964 2.074,0.05 4.121,0.523 6.008,1.394 1.48,0.68 3.507,1.613 4.789,3.715 0.375,0.621 0.949,1.555 0.871,2.773 -0.094,1.461 -1.039,2.453 -1.547,2.985 -0.84,0.855 -1.883,1.476 -3.031,1.804 -0.754,0.235 -1.539,0.352 -2.328,0.348 -1.457,0 -2.75,-0.375 -3.782,-0.684 -1.41,-0.421 -2.754,-1.046 -3.984,-1.855 -1.117,-0.715 -2.078,-1.641 -2.836,-2.727 -0.5,-0.73 -0.984,-1.425 -1.082,-2.425 -0.117,-1.157 0.328,-2.063 0.492,-2.407 z" />
      <path
         inkscape:connector-curvature="0"
         id="path56"
         style="fill:#f6fbfe;fill-opacity:1;fill-rule:nonzero;stroke:none"
         d="m 26.211,24.281 c 0.07,-0.199 -0.207,-0.484 -0.625,-0.636 -0.418,-0.153 -0.816,-0.118 -0.891,0.082 -0.074,0.203 0.207,0.488 0.625,0.64 0.418,0.153 0.817,0.113 0.891,-0.086 z" />
      <path
         inkscape:connector-curvature="0"
         id="path58"
         style="fill:#f6fbfe;fill-opacity:1;fill-rule:nonzero;stroke:none"
         d="m 31.844,25.945 c 0.144,-0.394 -0.406,-0.957 -1.231,-1.257 -0.824,-0.301 -1.605,-0.227 -1.75,0.167 -0.144,0.391 0.407,0.957 1.231,1.258 0.824,0.301 1.605,0.227 1.75,-0.168 z" />
      <path
         inkscape:connector-curvature="0"
         id="path60"
         style="fill:#f6fbfe;fill-opacity:1;fill-rule:nonzero;stroke:none"
         d="m 27.793,18.168 c 0.164,-0.445 -0.457,-1.082 -1.387,-1.422 -0.929,-0.34 -1.816,-0.254 -1.98,0.192 -0.16,0.441 0.461,1.078 1.39,1.417 0.93,0.34 1.817,0.254 1.977,-0.187 z" />
      <path
         inkscape:connector-curvature="0"
         id="path62"
         style="fill:#f6fbfe;fill-opacity:1;fill-rule:nonzero;stroke:none"
         d="m 29.148,21.953 c 0.141,-0.391 -0.41,-0.957 -1.23,-1.258 -0.824,-0.3 -1.609,-0.222 -1.754,0.168 -0.144,0.395 0.406,0.957 1.231,1.258 0.824,0.301 1.609,0.227 1.753,-0.168 z" />
      <path
         inkscape:connector-curvature="0"
         id="path64"
         style="fill:#f6fbfe;fill-opacity:1;fill-rule:nonzero;stroke:none"
         d="m 38.012,15.992 c 0.144,-0.394 -0.407,-0.957 -1.231,-1.258 -0.824,-0.3 -1.609,-0.226 -1.75,0.168 -0.144,0.391 0.407,0.953 1.231,1.254 0.82,0.305 1.605,0.227 1.75,-0.164 z" />
      <path
         inkscape:connector-curvature="0"
         id="path66"
         style="fill:#f6fbfe;fill-opacity:1;fill-rule:nonzero;stroke:none"
         d="m 41.43,19.195 c 0.101,-0.281 -0.289,-0.679 -0.875,-0.894 -0.586,-0.215 -1.145,-0.16 -1.246,0.117 -0.106,0.281 0.289,0.684 0.875,0.894 0.586,0.215 1.144,0.165 1.246,-0.117 z" />
      <path
         inkscape:connector-curvature="0"
         id="path68"
         style="fill:#f6fbfe;fill-opacity:1;fill-rule:nonzero;stroke:none"
         d="m 42.918,13.57 c 0.16,-0.445 -0.461,-1.078 -1.391,-1.418 -0.929,-0.34 -1.816,-0.257 -1.976,0.188 -0.164,0.445 0.457,1.078 1.387,1.418 0.929,0.34 1.816,0.258 1.98,-0.188 z" />
      <path
         inkscape:connector-curvature="0"
         id="path70"
         style="fill:#f6fbfe;fill-opacity:1;fill-rule:nonzero;stroke:none"
         d="m 45.145,19.289 c 0.082,-0.23 -0.243,-0.566 -0.731,-0.742 -0.488,-0.18 -0.953,-0.137 -1.039,0.098 -0.082,0.234 0.242,0.566 0.73,0.746 0.489,0.175 0.954,0.132 1.04,-0.102 z" />
      <path
         inkscape:connector-curvature="0"
         id="path72"
         style="fill:#f6fbfe;fill-opacity:1;fill-rule:nonzero;stroke:none"
         d="m 43.184,16.879 c 0.097,-0.27 -0.278,-0.649 -0.832,-0.852 -0.559,-0.207 -1.09,-0.156 -1.188,0.114 -0.098,0.265 0.274,0.644 0.832,0.851 0.559,0.203 1.09,0.153 1.188,-0.113 z" />
      <path
         inkscape:connector-curvature="0"
         id="path74"
         style="fill:#f6fbfe;fill-opacity:1;fill-rule:nonzero;stroke:none"
         d="m 47.977,15.043 c 0.144,-0.395 -0.407,-0.957 -1.231,-1.258 -0.82,-0.301 -1.605,-0.226 -1.75,0.168 -0.144,0.391 0.406,0.953 1.231,1.254 0.824,0.305 1.609,0.227 1.75,-0.164 z" />
      <path
         inkscape:connector-curvature="0"
         id="path76"
         style="fill:#f6fbfe;fill-opacity:1;fill-rule:nonzero;stroke:none"
         d="m 32.918,20.137 c 0.066,-0.176 -0.18,-0.43 -0.547,-0.563 -0.367,-0.136 -0.719,-0.101 -0.781,0.074 -0.067,0.176 0.18,0.426 0.547,0.563 0.367,0.133 0.718,0.098 0.781,-0.074 z" />
      <path
         inkscape:connector-curvature="0"
         id="path78"
         style="fill:#f6fbfe;fill-opacity:1;fill-rule:nonzero;stroke:none"
         d="m 35.395,24.207 c 0.16,-0.445 -0.461,-1.078 -1.391,-1.418 -0.93,-0.34 -1.816,-0.258 -1.977,0.188 -0.164,0.445 0.461,1.078 1.391,1.418 0.93,0.339 1.812,0.257 1.977,-0.188 z" />
      <path
         inkscape:connector-curvature="0"
         id="path80"
         style="fill:#f6fbfe;fill-opacity:1;fill-rule:nonzero;stroke:none"
         d="m 24.535,21.059 c 0.145,-0.395 -0.406,-0.957 -1.23,-1.258 -0.825,-0.305 -1.61,-0.227 -1.754,0.164 -0.141,0.394 0.41,0.957 1.23,1.258 0.824,0.3 1.61,0.226 1.754,-0.164 z" />
      <path
         inkscape:connector-curvature="0"
         id="path82"
         style="fill:#771616;fill-opacity:1;fill-rule:nonzero;stroke:none"
         d="m 16.609,26.422 c 0.145,0 0.286,0.004 0.43,0.012 0.145,0.011 0.297,0.031 0.445,0.05 h 0.008 c 0.461,0.067 0.918,0.184 1.356,0.352 l 6.359,2.133 c 1.555,0.426 3.309,0.867 5.25,1.297 9.047,1.062 12.422,-1.895 17.961,2.597 1.984,1.61 3.191,3.614 3.691,5.696 -0.16,-0.512 -1.48,-3.868 -7.691,-3.161 -6.719,0.77 -20.547,-1.171 -20.547,-1.171 -0.875,-3.5 -3.473,-6.797 -6.891,-7.032 -2.214,-0.152 -3.949,1 -5.023,1.981 -1.461,1.347 -2.555,3.25 -3.098,5.219 l -0.793,0.007 c 0.547,-2.179 1.739,-4.265 3.375,-5.781 1.559,-1.43 3.371,-2.199 5.168,-2.199 z" />
      <path
         inkscape:connector-curvature="0"
         id="path84"
         style="fill:#dfa398;fill-opacity:1;fill-rule:nonzero;stroke:none"
         d="m 21.125,46.91 c 0.609,-0.625 1.234,-1.281 1.785,-1.894 2.363,0.855 17.809,6.031 27.457,-0.575 -0.004,0 -4.176,7.739 -29.242,2.469 z" />
    </g>
  </g>
</svg>
