<?xml version="1.0" encoding="UTF-8" standalone="no"?>
<svg
   xmlns:dc="http://purl.org/dc/elements/1.1/"
   xmlns:cc="http://creativecommons.org/ns#"
   xmlns:rdf="http://www.w3.org/1999/02/22-rdf-syntax-ns#"
   xmlns:svg="http://www.w3.org/2000/svg"
   xmlns="http://www.w3.org/2000/svg"
   xmlns:sodipodi="http://sodipodi.sourceforge.net/DTD/sodipodi-0.dtd"
   xmlns:inkscape="http://www.inkscape.org/namespaces/inkscape"
   inkscape:version="1.0beta1 (32d4812, 2019-09-19)"
   sodipodi:docname="food-milk.svg"
   viewBox="0 0 85.333336 85.333336"
   height="85.333336"
   width="85.333336"
   xml:space="preserve"
   id="svg10"
   version="1.1">
  <metadata
     id="metadata16">
    <rdf:RDF>
      <cc:Work
         rdf:about="">
        <dc:format>image/svg+xml</dc:format>
        <dc:type
           rdf:resource="http://purl.org/dc/dcmitype/StillImage" />
        <dc:title></dc:title>
      </cc:Work>
    </rdf:RDF>
  </metadata>
  <defs
     id="defs14" />
  <sodipodi:namedview
     inkscape:current-layer="svg10"
     inkscape:window-maximized="0"
     inkscape:window-y="23"
     inkscape:window-x="0"
     inkscape:cy="560"
     inkscape:cx="400"
     inkscape:zoom="0.35"
     showgrid="false"
     id="namedview12"
     inkscape:window-height="799"
     inkscape:window-width="1440"
     inkscape:pageshadow="2"
     inkscape:pageopacity="0"
     guidetolerance="10"
     gridtolerance="10"
     objecttolerance="10"
     borderopacity="1"
     inkscape:document-rotation="0"
     bordercolor="#666666"
     pagecolor="#ffffff" />
  <g
     transform="matrix(1.3333333,0,0,-1.3333333,0,85.333333)"
     inkscape:label="food-milk"
     inkscape:groupmode="layer"
     id="g18">
    <g
       id="g20">
      <path
         inkscape:connector-curvature="0"
         id="path22"
         style="fill:#6ebec5;fill-opacity:1;fill-rule:nonzero;stroke:none"
         d="M 62.828,32.109 C 62.828,15.145 49.074,1.391 32.109,1.391 15.141,1.391 1.387,15.145 1.387,32.109 c 0,16.965 13.754,30.719 30.722,30.719 16.965,0 30.719,-13.754 30.719,-30.719 z" />
      <path
         inkscape:connector-curvature="0"
         id="path24"
         style="fill:#5ea3a5;fill-opacity:1;fill-rule:nonzero;stroke:none"
         d="M 61.938,24.77 35.957,50.75 30.629,28.086 25.117,16.285 39.184,2.219 C 50.375,4.855 59.203,13.613 61.938,24.77 Z" />
      <path
         inkscape:connector-curvature="0"
         id="path26"
         style="fill:#e6e6e6;fill-opacity:1;fill-rule:nonzero;stroke:none"
         d="m 39.324,18.25 c 0,-1.852 -1.515,-3.367 -3.371,-3.367 h -8.23 c -1.856,0 -3.368,1.515 -3.368,3.367 v 19.18 c 0,1.855 4.067,8.609 4.067,10.949 h 6.832 c 0,-2.246 4.07,-9.098 4.07,-10.949 z" />
      <path
         inkscape:connector-curvature="0"
         id="path28"
         style="fill:#5f7499;fill-opacity:1;fill-rule:nonzero;stroke:none"
         d="m 36.492,48.938 c 0,-0.461 -0.379,-0.84 -0.84,-0.84 h -7.625 c -0.465,0 -0.843,0.379 -0.843,0.84 v 1.312 c 0,0.461 0.378,0.84 0.843,0.84 h 7.625 c 0.461,0 0.84,-0.379 0.84,-0.84 z" />
    </g>
  </g>
</svg>
