<?xml version="1.0" encoding="UTF-8" standalone="no"?>
<svg
   xmlns:dc="http://purl.org/dc/elements/1.1/"
   xmlns:cc="http://creativecommons.org/ns#"
   xmlns:rdf="http://www.w3.org/1999/02/22-rdf-syntax-ns#"
   xmlns:svg="http://www.w3.org/2000/svg"
   xmlns="http://www.w3.org/2000/svg"
   xmlns:sodipodi="http://sodipodi.sourceforge.net/DTD/sodipodi-0.dtd"
   xmlns:inkscape="http://www.inkscape.org/namespaces/inkscape"
   inkscape:version="1.0beta1 (32d4812, 2019-09-19)"
   sodipodi:docname="sixverse.svg"
   viewBox="0 0 166.66667 166.66667"
   height="166.66667"
   width="166.66667"
   xml:space="preserve"
   id="svg10"
   version="1.1">
  <metadata
     id="metadata16">
    <rdf:RDF>
      <cc:Work
         rdf:about="">
        <dc:format>image/svg+xml</dc:format>
        <dc:type
           rdf:resource="http://purl.org/dc/dcmitype/StillImage" />
        <dc:title></dc:title>
      </cc:Work>
    </rdf:RDF>
  </metadata>
  <defs
     id="defs14" />
  <sodipodi:namedview
     inkscape:current-layer="svg10"
     inkscape:window-maximized="0"
     inkscape:window-y="25"
     inkscape:window-x="0"
     inkscape:cy="560"
     inkscape:cx="400"
     inkscape:zoom="0.35"
     showgrid="false"
     id="namedview12"
     inkscape:window-height="787"
     inkscape:window-width="1440"
     inkscape:pageshadow="2"
     inkscape:pageopacity="0"
     guidetolerance="10"
     gridtolerance="10"
     objecttolerance="10"
     borderopacity="1"
     inkscape:document-rotation="0"
     bordercolor="#666666"
     pagecolor="#ffffff" />
  <g
     transform="matrix(1.3333333,0,0,-1.3333333,0,166.66667)"
     inkscape:label="sixverse"
     inkscape:groupmode="layer"
     id="g18">
    <g
       id="g20">
      <g
         transform="matrix(1,0,0,-0.813652,0,125)"
         id="g22">
        <path
           inkscape:connector-curvature="0"
           id="path24"
           style="fill:none;stroke:#000000;stroke-width:7.09514;stroke-linecap:butt;stroke-linejoin:miter;stroke-miterlimit:2;stroke-dasharray:none;stroke-opacity:1"
           d="M 34.992,74.735 C 23.008,61.586 24.242,41.465 37.75,29.799 51.258,18.128 71.922,19.328 83.906,32.483 c 4.364,4.786 7.141,10.744 7.973,17.096" />
      </g>
      <g
         transform="matrix(1,0,0,-0.804692,0,125)"
         id="g26">
        <path
           inkscape:connector-curvature="0"
           id="path28"
           style="fill:none;stroke:#000000;stroke-width:7.13453;stroke-linecap:butt;stroke-linejoin:miter;stroke-miterlimit:2;stroke-dasharray:none;stroke-opacity:1"
           d="m 91.727,98.169 c -1.684,17.432 -17.563,30.233 -35.465,28.592 -17.903,-1.64 -31.051,-17.097 -29.367,-34.528 0.683,-7.068 3.781,-13.709 8.8,-18.855" />
      </g>
      <g
         transform="matrix(0.667368,0,0,-1,0,125)"
         id="g30">
        <path
           inkscape:connector-curvature="0"
           id="path32"
           style="fill:none;stroke:#000000;stroke-width:7.83425;stroke-linecap:butt;stroke-linejoin:miter;stroke-miterlimit:2;stroke-dasharray:none;stroke-opacity:1"
           d="m 135.994,38.137 c 2.657,-6.535 7.375,-12.078 13.474,-15.84" />
      </g>
      <g
         transform="matrix(0.686601,0,0,-1,0,125)"
         id="g34">
        <path
           inkscape:connector-curvature="0"
           id="path36"
           style="fill:none;stroke:#000000;stroke-width:7.72374;stroke-linecap:butt;stroke-linejoin:miter;stroke-miterlimit:2;stroke-dasharray:none;stroke-opacity:1"
           d="M 144.166,97.395 C 138.852,93.098 135.052,87.297 133.282,80.801" />
      </g>
      <g
         transform="matrix(0.747294,0,0,-1,0,125)"
         id="g38">
        <path
           inkscape:connector-curvature="0"
           id="path40"
           style="fill:#000000;fill-opacity:1;fill-rule:nonzero;stroke:#000000;stroke-width:2.10942;stroke-linecap:butt;stroke-linejoin:miter;stroke-miterlimit:2;stroke-dasharray:none;stroke-opacity:1"
           d="m 81.978,53.5 c -5.489,2.387 -12.326,0.723 -15.279,-3.723 -2.948,-4.441 -0.894,-9.98 4.595,-12.371 5.488,-2.39 12.325,-0.726 15.279,3.719 2.922,4.402 0.935,9.891 -4.464,12.316" />
      </g>
      <g
         transform="matrix(0.812146,0,0,-1,0,125)"
         id="g42">
        <path
           inkscape:connector-curvature="0"
           id="path44"
           style="fill:#000000;fill-opacity:1;fill-rule:nonzero;stroke:#000000;stroke-width:2.084;stroke-linecap:butt;stroke-linejoin:miter;stroke-miterlimit:2;stroke-dasharray:none;stroke-opacity:1"
           d="m 75.321,82.793 c -5.42,2.359 -12.178,0.715 -15.093,-3.676 -2.915,-4.39 -0.885,-9.863 4.536,-12.222 5.42,-2.36 12.178,-0.715 15.093,3.675 2.886,4.348 0.923,9.77 -4.406,12.164" />
      </g>
      <g
         transform="matrix(0.758225,0,0,-1,0,125)"
         id="g46">
        <path
           inkscape:connector-curvature="0"
           id="path48"
           style="fill:#000000;fill-opacity:1;fill-rule:nonzero;stroke:#000000;stroke-width:2.15311;stroke-linecap:butt;stroke-linejoin:miter;stroke-miterlimit:2;stroke-dasharray:none;stroke-opacity:1"
           d="m 113.479,67.609 c -5.605,2.438 -12.585,0.739 -15.594,-3.797 -3.014,-4.535 -0.912,-10.191 4.688,-12.628 5.6,-2.442 12.581,-0.743 15.589,3.796 2.989,4.493 0.959,10.094 -4.549,12.571" />
      </g>
    </g>
  </g>
</svg>
